<svg id="Слой_1" data-name="Слой 1" xmlns="http://www.w3.org/2000/svg" viewBox="0 0 400 400"><defs><style>.cls-1{fill:#282f39;}.cls-2{fill:#4146a9;}</style></defs><title>ic</title><path class="cls-1" d="M210.39,140c-1.69,6.1-3.08,11-4.43,16-1.49,5.44.67,9.9,3.27,14.59A140.8,140.8,0,0,0,231.7,201.1c.93,1,.72,3.19.72,4.83q0,64.43.05,128.84c0,2.83.44,5.18-4,5.1s-3.64-2.37-3.64-5.23q0-63.17-.13-126.32a6.67,6.67,0,0,0-1.73-5.14,129.25,129.25,0,0,1-20.66-28.72c-1.7-3.22-2.82-1.92-3.66-.26-5.57,11-13,20.63-21.24,29.67C175.5,206,176,208.57,176,211q0,61.59,0,123.17c0,3.56,0,6.09-4.84,5.58-4.19-.44-3.05-3.25-3.06-5.51q-.09-36-.05-72c0-18.31.08-36.63,0-54.95a12.06,12.06,0,0,1,3.53-8.89c9.63-10.67,18.2-22.13,23.72-35.59,6-14.66,8.11-30.28,11.31-45.63.77-3.74-1.08-6.63-5.18-7.18s-6,1.57-7,5.47c-3.19,13.18-5.37,26.64-11.29,39.07-6.47,13.57-16.53,21.55-32,22-9,.29-17.95-.48-26.71,3.06-12.14,4.89-20.29,15-20.43,27.93-.24,22.32-.08,44.64,0,67,0,1.53-.67,3.34,1.7,4.17,3.41,1.19,2.57,4.64,1.75,6.37-1.59,3.33-5.16,1.19-7.86,1.33-2.48.13-3.6-1.15-3.56-3.91.15-10.31.06-20.63.06-30.95,0-13.47.32-27-.09-40.42-.76-25.38,17.95-41.6,42-42.24,6.71-.18,13.54.87,20.09-1,12.18-3.54,17.64-13.38,21-24.37,3.14-10.18,5.28-20.66,7.86-31,1.75-7,7.49-11,14.92-10.43s11.93,5.81,13.29,14.06c2.34,14.21,5.26,28.34,13.13,40.8,4.83,7.64,11.92,11.46,20.87,11.84,10.43.44,20.86-.4,31.06,3.54,13.51,5.22,24.17,19,24.22,33.41.07,24.85,0,49.69,0,74.54,0,5.53-5.21,9-10.05,6.18-2.78-1.63-2.4-6.52-.26-7.18,4.17-1.28,2.48-3.95,2.49-5.91.15-20.85-.71-41.73.34-62.52,1-19.79-16.61-33-33.29-34-4.41-.27-8.85-.27-13.26-.15-17.6.48-27.61-9.46-34.47-24.34C214.22,148.55,214.63,143.82,210.39,140Z"/><path class="cls-1" d="M89.61,176.49a57.69,57.69,0,0,0,6.31-.05c3.14-.34,3.91,1,4,3.95s-.58,4.14-3.79,4a62.71,62.71,0,0,0-23.55,3.14c-7.12,2.4-14.41,12.45-14.43,20.43q-.06,37.25,0,74.51c0,1.38-1.09,3.39,1.64,4,3.89.86,2.24,4.31,1.85,6.17-.63,3.08-3.79,1.39-5.81,1.51s-5,.67-5.34-2.78a44.7,44.7,0,0,1-.12-5.05c0-24.41,1-48.89-.29-73.23-1.41-25.75,18-35.72,36.39-36.56C87.51,176.46,88.56,176.5,89.61,176.49Z"/><path class="cls-1" d="M349.94,247.88q0,20.82,0,41.62c0,1.84.31,4.07-2.36,4.42-2.87.38-6,1.18-8.54-.34-1.55-.95-1.54-5.08-.37-5.21C343.34,287.87,342,266,342,266s-.21-34.48.33-51.69c.66-21.14-11.55-28.65-29-30-2.72-.21-5.46-.1-8.2-.05-2.56.05-4.85.5-4.79-3.61.06-3.88,1.69-4.25,4.92-4.3,10.8-.15,21.37.43,30.77,6.63,9,6,13.63,14.44,13.81,25.12C350.11,221.4,349.94,234.64,349.94,247.88Z"/><path class="cls-1" d="M168.41,140a23.93,23.93,0,0,1-8.79,21.1c-9.36,7.64-28.2,6.06-34-8.92-5.32-13.76-2.18-30.33,7.79-36.3,7.49-4.48,15.06-5.47,23.12-.84C165.9,120.42,168.51,128.82,168.41,140Zm-7.74.43c-.19-3.47-.14-5.59-.44-7.66-.92-6.15-6.8-12-12.81-12.81-5.41-.77-11.55,2.89-14.14,8.28a23.39,23.39,0,0,0-1.14,18.9c2.15,5.87,5.58,9.7,12.47,10.47C154.44,158.72,161.57,149.58,160.67,140.44Z"/><path class="cls-1" d="M275.74,139.12c.52,8.83-2,16.72-9.21,22.06-12,8.9-28.15,4.64-33.87-9.08-4.53-10.86-4-21.94,3.22-31.67a21.22,21.22,0,0,1,23-7.56C269.07,116,274,123.48,275.7,133.45A33.5,33.5,0,0,1,275.74,139.12Zm-37.8-.43a26.29,26.29,0,0,0,.25,4.69c1.46,6,3.65,12,10.23,13.68,5.79,1.51,12.15,1.19,15.78-4.59,5.09-8.12,5.86-16.78.77-25.41-4.23-7.15-12.43-9.31-19.26-4.81C239.76,126.16,238,132.21,237.94,138.69Z"/><path class="cls-1" d="M277.78,280.12q0-27.42,0-54.85c0-6.48,3.73-9.39,9.64-6.92,3.27,1.37,2.86,5.85.86,7-3.72,2.06-2.73,4.87-2.73,7.56-.07,33.61,0,67.23-.08,100.85,0,1.84.89,4.2-.65,5.39s-3.67,2.26-5.86,1.45-1.13-2.88-1.13-4.34C277.76,317.52,277.78,298.82,277.78,280.12Z"/><path class="cls-1" d="M122.94,279.92c0,17.88.06,35.75-.09,53.63,0,2.36,2,6.11-3.38,6.27-5.16.16-4.43-3-4.43-6.12q0-49.84,0-99.68c0-2.76.82-5.58-2.84-7.54-2.18-1.16-1.58-5-.49-6.93,1.56-2.68,4.94-1.21,7.53-1.26s3.59,1.9,3.63,4.22c.09,5.47.08,10.93.08,16.4Q122.95,259.42,122.94,279.92Z"/><path class="cls-1" d="M115.37,146c0,16.64-8.56,24.62-23.68,23-3.35-.36-5.81-2-8.2-4-9.75-8.22-9.61-29.39.41-37.09,5.64-4.34,12-6,18.87-3,7.07,3.09,11.39,8.31,12.22,16.13C115.19,142.84,115.28,144.73,115.37,146Zm-7.91-.37a27.17,27.17,0,0,0-.37-4.78A11.82,11.82,0,0,0,98,131.53c-4.24-1.09-7.86.78-10.61,3.91-4.55,5.19-4,17.33.55,22.64a8.52,8.52,0,0,0,6.43,3.21C103.25,161.82,107.48,157.08,107.46,145.6Z"/><path class="cls-1" d="M282.85,146.52c-.36-7.31,1.52-13.88,7.35-18.57,5.54-4.46,11.89-6.17,18.81-3.18,7.3,3.16,11.76,8.5,12.44,16.64.43,5.24.91,10.6-1,15.57-3.79,9.77-12.2,13.83-23.4,11.81-7.24-1.31-13.19-9-13.87-17.87C283.05,149.45,283,148,282.85,146.52Zm7.92-.08c.06,1.24.09,2.29.16,3.33.49,7.28,4.57,11.48,11.21,11.53,6.93.06,11.19-4.22,11.6-11.78a53,53,0,0,0-.06-6.9c-.45-5.78-4.57-10.6-9.91-11.21-5.71-.66-9.44,2.44-12,7.24C290.46,141.17,291.12,144,290.77,146.44Z"/><path class="cls-1" d="M77,283.34c0,17.05,0,34.09-.07,51.14,0,1.62,1.16,3.71-1.25,5-1.74.89-3.53,1.81-5.34,1.06-2-.83-1-2.94-1-4.44-.06-31.15,0-62.29-.12-93.43,0-3,1.61-6.57-3.09-8.57-1.73-.74-1.35-5.15-.24-7.07,1.54-2.65,5-1.38,7.43-.94s3.81,2.45,3.78,5.53C77,248.83,77,266.09,77,283.34Z"/><path class="cls-1" d="M323.27,284q0-25.55,0-51.1c0-6.21,4.35-9.52,9.78-6.92,3.07,1.48,2.61,6.49.81,7.08-4.25,1.41-2.79,4.25-2.8,6.54-.1,31.34-.06,62.68-.1,94,0,1.86.37,4.36-.63,5.42a5.85,5.85,0,0,1-5.76,1.6c-2.43-.76-1.24-2.85-1.25-4.26C323.24,318.89,323.27,301.43,323.27,284Z"/><path class="cls-1" d="M251.25,307.75q0-13.86,0-27.72c0-2.75-.42-5.2,4-5.15,4.62,0,3.72,2.84,3.72,5.39,0,18.27-.1,36.55.11,54.82.05,3.82-1.62,5.22-4.86,5.55-4.68.48-2.85-3.18-2.88-5.16C251.16,326.24,251.25,317,251.25,307.75Z"/><path class="cls-1" d="M149.47,307.76c0,9.25-.06,18.51,0,27.77,0,2.65-.18,4.39-3.61,4.27-3.09-.1-4.42-.83-4.39-4.29.16-18.73.13-37.46,0-56.19,0-3.3,1.14-4.31,4.38-4.38,3.55-.09,3.57,1.95,3.56,4.41Q149.46,293.55,149.47,307.76Z"/><path class="cls-1" d="M95.84,319.76c0-5.87.07-11.75,0-17.62,0-2.87.29-4.63,4-4.5,3.2.12,3.81,1.32,3.78,4.1-.09,11.33-.18,22.66,0,34,.08,4.21-2.49,4.74-5.47,4.9-3.8.2-2.21-2.84-2.26-4.51C95.73,330.68,95.85,325.22,95.84,319.76Z"/><path class="cls-1" d="M296.74,319.22c0-5.88.11-11.75-.05-17.62-.08-3,.89-3.92,3.93-3.93s3.92,1.08,3.89,4c-.11,11.53-.13,23.07,0,34.61,0,4-2.75,4.12-5.35,4.36-3.81.35-2.31-2.73-2.36-4.41C296.63,330.55,296.74,324.88,296.74,319.22Z"/><path class="cls-2" d="M224.44,97c-1.47-.07-2.75-.24-3.32-1.59a3.84,3.84,0,0,1,.72-4.6c4.53-4.48,9-9,13.56-13.46,1.59-1.57,3.1-1.47,5-.14s1.94,3.28,1.08,4.35a81.64,81.64,0,0,1-15.35,15.22C225.66,97.14,224.88,97,224.44,97Z"/><path class="cls-2" d="M177.35,92.86c-.18,1.67.08,3.14-1.42,3.68-2,.73-4.27,1-5.92-.59-4.13-4-8.12-8.24-12.07-12.47-1.64-1.75-2.79-3.62-.49-6s4.07-1.35,5.86.38c4.3,4.17,8.59,8.36,12.8,12.63A7.94,7.94,0,0,1,177.35,92.86Z"/><path class="cls-2" d="M203.84,72.48c0,3.13,0,6.26,0,9.4,0,2.63-1.23,3.77-3.78,3.77s-4-.85-3.94-3.6c0-6.27,0-12.53,0-18.8,0-2.53,1.47-4,3.77-4.09a3.62,3.62,0,0,1,3.92,3.92C203.87,66.21,203.84,69.35,203.84,72.48Z"/></svg>