<svg id="Слой_1" data-name="Слой 1" xmlns="http://www.w3.org/2000/svg" viewBox="0 0 400 400"><defs><style>.cls-1{fill:#282f39;}.cls-2{fill:#4146a9;}</style></defs><title>ic</title><path class="cls-1" d="M256.86,115.48c-28.57,0-57.13.07-85.69-.1-2.74,0-7.64,1.92-7.59-3.25,0-4.79,4.66-3.52,7.68-3.52q83.51-.08,167,0c4.86,0,7.25-3.9,5.2-8.36-1-2.18-2.87-1.16-4.3-1.17-17.28-.08-34.58-.56-51.83.2-7,.31-10.37-2.7-12.21-8.18-1.46-4.32-3.82-5.22-8-5.18q-31.93.28-63.85,0c-3.62,0-5.93,1-7,4.38-2.09,6.92-6.24,10-13.83,8.9-5-.75-10.17-.12-15.26-.22-2.08,0-4-.42-3.79-3.34.2-2.53,1.57-3.42,3.95-3.39,5.1,0,10.22-.3,15.28.11,4.05.32,6.17-1.62,7.14-4.93,1.9-6.5,5.69-8.63,12.63-8.47,21.63.52,43.3.64,64.93,0,7.53-.25,11.77,2.65,13.71,8.86,1.33,4.26,3.61,4.55,7.13,4.53,18.37-.09,36.75.06,55.12-.11,5,0,7.47,1.6,7,6.9a47.39,47.39,0,0,0,0,9.82c.71,5.47-1.81,6.71-6.75,6.68-28.92-.15-57.85-.07-86.77-.07Z"/><path class="cls-2" d="M305.67,133.25c-3.29-.2-5.31-.1-7.21-.51-1.59-.34-3.22-1.33-3.18-3.24a3.34,3.34,0,0,1,3.52-3.4c4.72-.13,9.45-.19,14.18-.07,2.9.07,4.06,2,4,4.75,0,3.63,0,7.27,0,10.91,0,2.71-.43,5.42-3.64,5.74-3,.31-2.95-2.56-3.5-4.57-.19-.68-.18-1.48-1.63-1.79-3.73,4.39-7.73,8.89-11.48,13.59-2.27,2.83-4.19,3.22-7.17.82-7-5.64-14.33-10.87-21.36-16.47-3-2.39-4.93-2.76-7.95.38-10.34,10.74-21.15,21-31.6,31.64-3.27,3.33-5.83,3.86-9.74.76-6.46-5.12-13.45-9.58-20.13-14.43-2.33-1.7-6.44-3.35-3.68-7s5.5,0,7.81,1.57c5.39,3.6,10.79,7.24,15.8,11.34,3.66,3,5.87,2.29,9-.92,10.16-10.56,20.78-20.67,31-31.19,3.52-3.63,6-3.81,9.93-.38,6.49,5.64,13.71,10.43,20.5,15.74,2.51,2,4.08,2.05,6.11-.75C298.17,141.75,301.6,138.1,305.67,133.25Z"/><path class="cls-1" d="M286.85,187.65c-4.78-4.12-9.65-8.06-14.19-12.36-2.36-2.25-3.69-1.73-5.71.37-8.59,8.94-17.46,17.61-26,26.65-3.43,3.64-6.18,4.35-10.32,1-3.46-2.81-6.72-8.06-11.22-6.94-3.85.95-6.84,5.44-10.17,8.4-2.68,2.39-5.26,4.88-8,7.24-1.82,1.6-3.75,2.11-5.64,0s-.4-3.91,1-5.16c6.7-6.19,13.56-12.2,20.37-18.26,1.87-1.66,3.61-2,5.75-.12,2.87,2.46,6.28,4.31,9,6.9s4.55,1.79,6.78-.51c8.83-9.16,17.86-18.13,26.6-27.38,3.14-3.31,5.62-3.49,8.92-.31,4.41,4.25,9.17,8.13,13.73,12.22,1.19,1.06,2.23,2.26,4.05,2.28,1.32-2.63-1.29-7.87,3.71-7.61,4.73.24,3.61,5.05,3.73,8.19.58,14.61,1.74,12.62-11.68,13.41-.18,0-.36,0-.55,0-3.23,0-8,2-8.58-2.82s4.6-3.16,7.3-4.29C286.09,188.45,286.32,188.12,286.85,187.65Z"/><path class="cls-1" d="M133.28,254.35c-.9,9-2.06,16.78-2.37,24.63-.51,12.91-2.69,25.65-3.38,38.52-.15,2.68-1.43,4-4.15,3.8-3.11-.2-2.51-2.56-2.52-4.42-.07-8.31,1.16-16.52,2-24.76,1.64-16,3.16-32.08,4.35-48.15.3-3.95,1.79-5.13,5.31-4.64,3.2.45,7.63-1.83,8.16,4.25,2,22.4,4.13,44.79,6.19,67.18.19,2.17.19,4.35.27,6.53.09,2.35-.89,3.83-3.36,4-2.73.22-3.16-1.43-3.35-3.7q-2.43-28.77-5-57.52C135.26,258.57,135.58,256.86,133.28,254.35Z"/><path class="cls-1" d="M166.82,249.17v65.42c0,1.27,0,2.55-.06,3.81-.16,2.34-1.7,3-3.76,2.94s-2.86-1.15-2.84-3.07c0-1.09,0-2.18,0-3.27q0-66,0-131.93c0-.73,0-1.45,0-2.18-.08-2.24.4-4,3.2-3.8,2.47.16,3.5,1.57,3.48,3.94,0,2.54,0,5.08,0,7.63Z"/><path class="cls-1" d="M336.83,122c-4.5-.12-3,4.16-3,6.69q-.14,46.4,0,92.8c0,3.83-.59,5.21-4.91,5.19q-70.43-.27-140.84,0c-4.13,0-5.08-1-5-5.08.23-18.74.07-37.48.07-56.22,0-14.23-15-23.34-15.16-23.4-12.17-6.43-12.17-6.43-24.58,12.64,2.16.79,5.27,2.09,5.27,2.09s4.54-8.92,5.63-10.39c1.6-2.12,3.51-2,5.74-1,11.32,5.26,15.85,11.23,16.25,24.27.7,22.54.2,45.12.19,67.69,0,2.81-.21,5.49-4.09,5.46-2.36,0-2.38,1.75-2.43,3.42-.05,1.9.69,2.87,2.77,3.18,6,.89,10.81-2.81,10.3-9.14-.49-6,1.72-7.13,7.19-7,12.36.41,24.75.07,37.12.2,1.64,0,4.73-1.43,4.65,1.82-.09,3,2.24,6.84-2.43,8.93-8.85,4-11.24,8.4-10.4,18.23.55,6.47,4.89,11.94,10.31,13,9.57,1.82,17.25-.94,20.46-7.36,4.64-9.27,1.82-18.67-7.9-23.11-5.36-2.44-3-6.34-2.93-9.52.05-3.8,3.68-1.93,5.59-1.94,29.48-.13,59-.09,88.43-.09,7.32,0,7.33,0,7.33-7q0-48.58,0-97.17C340.5,126,340.9,122.07,336.83,122ZM245.3,260c-.19,5.28-4.42,9.1-10,9a9.33,9.33,0,0,1-9.5-9.52c0-4.79,4.95-9.7,9.73-9.71C240.57,249.8,245.49,255,245.3,260Z"/><path class="cls-1" d="M122.18,127.42a15.43,15.43,0,0,0,7.77,3h.1a22.94,22.94,0,0,0,14.69-3.81c.43-.28.87-.61,1.33-1a27.8,27.8,0,0,0,10.09-21.55,39.43,39.43,0,0,0-.92-9.81C151,78.55,128.76,73.33,117.72,85c-3.81,4-5.3,10.64-5.79,16.64a31.25,31.25,0,0,0,8.22,23.93A15.93,15.93,0,0,0,122.18,127.42Zm-4.4-25.64c1-7.18,4.19-13.29,11.5-15.7,5.93-2,11.66-.66,15.86,4.25,5.32,6.22,6.41,13.54,4.32,21.33s-7.15,12.34-15.2,13.43c-2.42-.12-4.88,0-7.18-1h0C120.27,118.22,116.45,111,117.78,101.78Z"/><path class="cls-1" d="M137.36,147.77c0-1.3-.67-2.93,1.35-3.61a2.44,2.44,0,0,0,1.59-3.49c-.63-1.52-1.78-2.88-3.6-2.88-2.68,0-5.42-.54-8,.51-3.29,3.82,1.55,4.88,2.46,7.28a63.16,63.16,0,0,0,.21,18.82c-2.24.71-3-1.06-3.4-2.49-1.86-6.1-5.79-11.15-8.35-16.91-1.64-6.78-2.9-8.05-9.52-7.09-12.91,1.88-22.7,10-25,23.92-.43,2.62-1.27,4.2-3.54,5.19-2.7-1.66-22.49-.16-23.07-.26-11.11,0-14.1,19.05,4,19.05h0c.53.53,1.72,8.22-2.84,8.22-3.64,0-4,10.35-3,16.62a11.4,11.4,0,0,0,2.89,6.14c2.7,2.91,5.61,5.76,4.94,10.2-.65,4.27,1.66,5,5,4.94,8.84,0,17.68.21,26.51-.11a5.06,5.06,0,0,1,5.33,5.11q-.3,38.73,0,77.47c0,2.38-2.07,6.61,2.71,6.81,5.34.21,3.79-4.3,3.83-7.24.14-9.45.06-18.91.06-28.37,0-16.37,0-32.73,0-49.1,0-1.92-1.06-4.74,2.7-4.58,5.07.23,5.88-2.89,5.85-7.08-.09-15.78,0-31.57,0-47.36,0-12.08-3-10.41-21-10.41-.1,1.82-.28,5.46-.28,5.46v3s4.76,4.85,7.89,5.32c.14-2.83.11-7.29.11-7.29,7.49,0,6.61-.09,6.61,6.46,0,13.45-.22,26.9-.06,40.36,0,3.48-.86,4.79-4.6,4.68-9.44-.26-18.9,0-28.36-.13-2,0-4.7,1.14-5.88-1.43-1.1-2.42.38-4.53,1.9-6.42,4.47,0,3.87-23.57.92-23.57-1.18,0-1.63-.08-2.54-1.62-9.43,0-5.32,6.12-5.32,6.12s3-.82,3.35.26c.79,2.4,1.13,9.42,1.14,11,0,2.26-1.4,2.58-3.24,2.53s-3.18-.59-3-2.8-.39-10.18,1.79-11c-.13-3.7,1.56-5.82,5.33-6.12-1.32-1.73-2-3.85-.5-5.49.53-.58,3.22-.6,4.91-.25a14,14,0,0,0,2.67.17c26.39,0,24.82,1,24.82-5.47-3.13-.47-7.89-5.31-7.89-5.31v3.76s-28.95,0-33.58-.28c-1.53-.09-3.6.51-3.9-1.77s.7-3.84,3.25-4c6.69.14,32.19.12,34.23-.75.09-1.83.18-3.65.28-5.47-1.67-1.34-5-1.2-3.58-5.11,2-5.5,5-10.32,9.69-13.74,7.08-5.18,14.75,3.79,15.09,4.21,1.32,2.74,5.35,10.53,5.33,10.53,2,6.32,5.78,11.77,8.6,17.69,1.75,3.64,5.73,4.32,6.95.88,1.35-3.82,11.26-24.87,11.26-24.87s-3.11-1.3-5.27-2.09l-6,10C137.4,159,137.33,153.38,137.36,147.77Z"/></svg>