<svg id="Слой_1" data-name="Слой 1" xmlns="http://www.w3.org/2000/svg" viewBox="0 0 400 400"><defs><style>.cls-1{fill:#4146a9;}.cls-2{fill:#282f39;}</style></defs><title>ic</title><path class="cls-1" d="M88.06,70.42c1.72-1.25,3.73-1,5.67-1.12h.09c2.9,2.38,3.4,3.86,1.88,5.65C92,79.3,92,79.65,95.53,84.13a47.21,47.21,0,0,0,6.59,6.67,7.12,7.12,0,0,0,2.95,3.48,29.29,29.29,0,0,1,1.29,8.25c-1.88,6.58-3.85,7.85-9.93,6.41l-1.34-2.32a5.27,5.27,0,0,1,1.4-2.85c1.91-2.31,1.37-4.6-.07-6.76a18.31,18.31,0,0,0-3.77-4.5c-5.45-4.09-8.81-9.11-8.24-16.2C85,73.93,86.63,72.25,88.06,70.42Z"/><path class="cls-1" d="M170.76,63.86c4,.42,8.27-.56,11.72,2.48,1.15,1,2.37,2,3.56,3l.09,0a25.77,25.77,0,0,1,1.87,3.8c1.24,3,.84,6.45,2.77,9.2.79,5,3.76,7.31,9,7.19.89,1.09,2.55,1.62,2.49,3.41-.05,2.07-1.73,3-3,4.18a14.23,14.23,0,0,0-2-.2c-6.23.28-12.71-4.27-14-10.11-.55-2.55-.66-5.35-2.28-7.62-1-5.68-4.18-8.79-8.69-7.85a13.55,13.55,0,0,1-2.63.06,6.19,6.19,0,0,1-1.91-4.6A6.27,6.27,0,0,1,170.76,63.86Z"/><path class="cls-1" d="M258.14,67.16l.59.58c0,.35.21.56.59.55l.63.64c1,2.89,2,5.74,1.12,8.92-.42,1.58-1.83,2.77-1.67,4.54l0,.11a2.74,2.74,0,0,0-1.84,1.67l-.57.57c-3.16,2.64-6.94,4.51-9.59,7.78l-.52.44c-.78.42-1.36,1-1.12,2l-.06.1c-1.58,1.33-1,2.92-.33,4.34a11.44,11.44,0,0,1,.95,3.89l-.09.06c-1,.15-1.33.9-1.71,1.65l-1.09.23-5.21-.73-.07-.06a14.38,14.38,0,0,1-1.31-12.32.64.64,0,0,0,.16-.51,1.53,1.53,0,0,0,1.3-1.78c2-1.73,4.11-3.31,6.18-4.94a38.94,38.94,0,0,0,6.76-6.14c1.9-2.4,2-4.6,0-6.71a5.58,5.58,0,0,1-1.28-3.18C253.29,65.52,254.31,65.31,258.14,67.16Z"/><path class="cls-1" d="M280.89,92l-3.37-.14a5.14,5.14,0,0,1-3.62-5.82c.2-2.2,1.5-3.26,3.29-4,2.55-1,5-1.06,6.94,1.24,1.62,1.88,1.56,4,.83,6.22L282,91.79Z"/><path class="cls-1" d="M316.65,70.58a19.14,19.14,0,0,0,3.54.11c2.89-.43,3.6,1.62,4,3.62.48,2.43-1.62,2.33-3.21,2.76-2,.52-4,1.17-4.4,3.61a4.83,4.83,0,0,0-1.34,4.85c.47,2.37,1,4.73,1.45,7.09-.81,1.95.82,3.72.3,5.73-1.67,6.47-5,9.39-12.24,10.4-3.36-.67-3.77-3.1-3.52-5.92.62-.8,1.92-.12,2.46-1.12,4-.7,6-5.58,4.21-10.34l-.78-10.66C308.49,75.64,311.07,71.7,316.65,70.58Z"/><path class="cls-1" d="M65.93,93.58l-1.15-.71a6.38,6.38,0,0,1,.58-8.11l2.64,0c6,0,7.53,1.72,6.73,7.55a8.56,8.56,0,0,1-8.1,1.77L66.54,94C66.52,93.64,66.33,93.46,65.93,93.58Z"/><path class="cls-1" d="M221.23,99.91a14.43,14.43,0,0,1-.12,3c-.7,2.87-3.44,4.28-7.37,4-2.41-.2-3.94-2.08-4.16-5.14,0-.59,0-1.19,0-1.78C212.13,96.46,218.84,96.47,221.23,99.91Z"/><path class="cls-1" d="M131.32,104.78c-.91,2.48-3,3.45-5.28,4.25-2.32-.64-4.9-.73-6.38-3.09,0-.69,0-1.38.06-2.07,0-3.85.8-4.63,4.58-4.73.58,0,1.16-.12,1.75-.18C129.94,99.25,130.89,100.3,131.32,104.78Z"/><path class="cls-2" d="M127.66,260.08a7.69,7.69,0,0,1-6.27-3.18,8.53,8.53,0,0,1-1.63-4.8c-.07-8-.06-16.12-.06-24V220.3h-.83v31c0,5.46-3.06,8.62-8.39,8.67h-.11a8.5,8.5,0,0,1-6.17-2.25,8.64,8.64,0,0,1-2.34-6.29v-3c0-12.12-.07-24.65,0-37v-.63c0-6.07.08-12.34.67-18.52A7.27,7.27,0,0,0,101,187l0,12.86c0,13.86-.07,28.19.13,42.27a9.11,9.11,0,0,1-4.09,8,9.25,9.25,0,0,1-9.18.15c-3.5-1.72-3.9-4.82-3.89-7q0-11.17,0-22.36v-9h-.82v.89c0,2.74,0,5.47,0,8.21,0,7.26,0,14.77,0,22.15,0,3.85-1.59,6.41-4.82,7.58-4,1.49-8.75.19-10.71-2.95a8,8,0,0,1-.92-4.33q0-7.06,0-14.14c0-14.21-.11-28.91.19-43.38.11-5.12-1.84-8.55-4.81-12.13-3.79-4.58-7.37-9.38-10.83-14a7.18,7.18,0,0,1-1.17-4.18v-1.75c0-9.2-.09-18.72.08-28.09a7.59,7.59,0,0,1,3.32-5.67,8.55,8.55,0,0,1,8.76-.55,8.66,8.66,0,0,1,4.26,7.82c0,1.9,0,3.86.08,5.75a122.79,122.79,0,0,1-.23,13.81c-.38,4.08,1.43,6.85,3.72,10.35.36.55.72,1.1,1.07,1.66,1.83,2.89,3.93,4.24,7.08,4.37A13.15,13.15,0,0,1,70.45,157a11.8,11.8,0,0,1,.79-13.06c2.91-4.15,7.78-6.17,13.85-5.81a35.32,35.32,0,0,1,.67-5.1c.87-3.81,5-6.28,9.38-5.62a8.26,8.26,0,0,1,5.51,3c0-1,0-1.92,0-2.88,0-5.5,3-8.53,8.5-8.54h0c5.39,0,8.49,3.11,8.5,8.54q0,6.44,0,12.86v6.22l1.44-.19v-1.91q0-4.63,0-9.3c0-4.83,3.1-7.85,8.06-7.88a8.43,8.43,0,0,1,6.16,2.25,7.88,7.88,0,0,1,2.2,5.75c0,2.12,0,4.23,0,6.34,0,5.46.05,11.1-.1,16.65a6.67,6.67,0,0,0,.44,2.85,5.87,5.87,0,0,0,.38-1.68c.16-5.64.14-11.41.12-17,0-2.25,0-4.51,0-6.76,0-5.19,3.13-8.34,8.35-8.41a8.28,8.28,0,0,1,8.66,8.28c0,1.35,0,2.69,0,4a7.42,7.42,0,0,1,6.46-4,9.6,9.6,0,0,1,7.15,2.3,7.45,7.45,0,0,1,2.41,5.39c.12,3.78.09,7.64.07,11.37,0,1.62,0,3.26,0,4.9a2.38,2.38,0,0,1-2.08,2.36c-5.23.69-9,1.73-11.87,4.82a24.27,24.27,0,0,0-1.58,2c-.34.45-.67.91-1,1.34l-.18.23a4.8,4.8,0,0,1-2,1.73,2.18,2.18,0,0,1,.53.56,2.4,2.4,0,0,1,.32,2q-.7,2.51-1.42,5c-1.1,3.85-2.14,7.48-3.05,11.22-1,4.18-.15,7.5,2.65,10.14s5.37,5,8.07,7.55c3.38,3.15,6.88,6.41,10.29,9.65a6.1,6.1,0,0,1,1.89,4c.07,9,.08,18.71,0,29.81a7.64,7.64,0,0,1-2.19,5.57,8.81,8.81,0,0,1-6.39,2.32c-5.1,0-8.41-3.17-8.42-8,0-7.18,0-14.35,0-21.52V220.19h-.84v31.88a7.77,7.77,0,0,1-2.14,5.71A8.34,8.34,0,0,1,144,260h-.11c-4,0-6.74-2-7.7-5.2a7.7,7.7,0,0,1-4.94,4.66A10.87,10.87,0,0,1,127.66,260.08ZM116.5,215.53h5.59a2.39,2.39,0,0,1,2.38,2.39v10.21c0,7.84,0,16,.06,23.93a3.66,3.66,0,0,0,.66,2c.72,1,1.82,1.81,4.48.89,1.41-.49,2.35-1.33,2.31-3.88l-.09-6.5q-.27-18.58-.5-37.16c0-2.26,0-4.55,0-6.76,0-3,0-6,0-9s.17-6.14,4-8.79a2.38,2.38,0,0,1,3.66,1.39c.16.64.36,1.28.55,1.9a15.73,15.73,0,0,1,.92,4.59c.07,15.2.06,30.65.05,45.6v15.75c0,2.21,1,3.12,3.34,3.14a4.07,4.07,0,0,0,2.83-.81,3.17,3.17,0,0,0,.73-2.34q0-11.2,0-22.41V217.81a2.38,2.38,0,0,1,2.38-2.38h5.6a2.38,2.38,0,0,1,2.38,2.38v12.63q0,10.76,0,21.5c0,1.51.43,3.25,3.68,3.27a4.21,4.21,0,0,0,3-1,3,3,0,0,0,.78-2.2c0-11.08,0-20.81,0-29.75a1.74,1.74,0,0,0-.4-.62c-3.4-3.23-6.89-6.48-10.26-9.63-2.7-2.52-5.4-5-8.09-7.57-4-3.8-5.43-8.9-4-14.73.93-3.83,2-7.68,3.1-11.4l.65-2.27-2.1-.24a2.39,2.39,0,0,1-1.16-4.27,5.69,5.69,0,0,0,1.14-1.39c.76-1.12,2.21-3.27,5.06-2.94v0c.32-.39.62-.8.92-1.21a29,29,0,0,1,1.9-2.37c3.64-4,8.32-5.31,12.7-6,0-1,0-1.92,0-2.87,0-3.86.06-7.5-.06-11.19a2.78,2.78,0,0,0-.88-2,5.14,5.14,0,0,0-3.69-1.05c-2.52.13-2.9,2.22-2.9,3.45v4.69a2.39,2.39,0,0,1-2.39,2.38H151a2.38,2.38,0,0,1-2.38-2.38c0-1.36,0-2.69,0-4,0-3,0-5.94,0-8.87a3.57,3.57,0,0,0-3.83-3.6c-2.59,0-3.65,1.1-3.66,3.65q0,3.38,0,6.74c0,5.62.05,11.42-.12,17.15a14,14,0,0,1-1.39,5c-.28.67-.57,1.37-.82,2.08a2.38,2.38,0,0,1-3.87,1c-3.09-2.85-4.36-5.69-4.26-9.49.15-5.49.12-11.09.09-16.5q0-3.18,0-6.37A3.22,3.22,0,0,0,130,133a4,4,0,0,0-2.77-.87c-2.33,0-3.32,1-3.33,3.13v13.28a2.38,2.38,0,0,1-2.06,2.36l-6.2.84a2.34,2.34,0,0,1-1.89-.57,2.36,2.36,0,0,1-.82-1.79v-21.8c0-2.83-1-3.79-3.74-3.79h0c-2.8,0-3.74,1-3.75,3.79,0,1.89,0,3.78,0,5.67,0,5.94,0,12.08.07,18.1.07,3.71-2.1,5.77-4,7.59a2.38,2.38,0,0,1-4-1.73v-6.63c0-5.23,0-10.28,0-15.33,0-.66,0-2.68-3-3.13-1.84-.27-3.73.64-4,2a31.51,31.51,0,0,0-.57,4.63c-.06.77-.12,1.54-.21,2.3a2.31,2.31,0,0,1-.92,1.63,2.37,2.37,0,0,1-1.82.47c-3.79-.6-8.91-.47-11.74,3.55a7.06,7.06,0,0,0-.55,8c2.23,3.91,5.84,5.21,12.46,4.5a2.42,2.42,0,0,1,1.85.6,2.4,2.4,0,0,1,.79,1.77v4a2.39,2.39,0,0,1-2.39,2.39c-.73,0-1.44,0-2.14,0a23.74,23.74,0,0,0-3.71.07c-6.52.83-11.08-1.21-14.37-6.42l-1-1.59c-2.47-3.77-5-7.66-4.49-13.4a119.73,119.73,0,0,0,.22-13.27c0-1.91-.08-3.89-.09-5.85a4,4,0,0,0-1.79-3.65,3.86,3.86,0,0,0-3.93.41,3.13,3.13,0,0,0-1.09,1.73c-.16,9.31-.12,18.8-.07,28v1.74a3,3,0,0,0,.22,1.36c3.42,4.58,7,9.33,10.68,13.82,3,3.62,6,8.27,5.9,15.27-.3,14.41-.24,29.08-.18,43.26q0,7.08,0,14.16a4.56,4.56,0,0,0,.2,1.81c.69,1.09,2.92,1.77,5,1,.93-.34,1.7-.81,1.68-3.08-.05-7.4,0-14.91,0-22.19,0-2.73,0-5.47,0-8.2v-3.27a2.38,2.38,0,0,1,2.38-2.38h5.58a2.39,2.39,0,0,1,2.39,2.38v11.37c0,7.46,0,14.92,0,22.39,0,1.8.37,2.3,1.22,2.72a4.57,4.57,0,0,0,4.54.09,4.4,4.4,0,0,0,1.87-3.87c-.2-14.12-.17-28.47-.13-42.35l0-15.75v-3.05a2.38,2.38,0,0,1,4-1.72l.41.38c3.54,3.37,7.19,6.85,6.6,13.07-.57,6-.61,12.14-.64,18.1v.63c-.08,12.31,0,24.83,0,36.94v2.94a4,4,0,0,0,.92,2.92,4.06,4.06,0,0,0,2.89.88c2.67,0,3.66-1.09,3.66-3.91q0-10.63,0-21.26V217.92A2.39,2.39,0,0,1,116.5,215.53Zm34.33-47.86h0Zm-33.12,8.61c-2.73,0-5.4-.05-8.09-.26-2-.15-3.33-1.7-4.53-3.08-.45-.51-.87-1-1.28-1.37a2.38,2.38,0,0,1-.27-3.22L107,164a2.4,2.4,0,0,1,1.88-.92h0a2.42,2.42,0,0,1,1.88.91c3.3,4.21,7.42,4.09,13.34,3.44a2.36,2.36,0,0,1,2.13.89l3.21,4.07a2.38,2.38,0,0,1-1.87,3.85c-1.7,0-3.37,0-5,0S119.29,176.28,117.71,176.28Zm-7.59-5q1.36.1,2.76.15a13,13,0,0,1-3.86-2.36l-.47.6.13.14A10.11,10.11,0,0,0,110.12,171.28Z"/><path class="cls-1" d="M220,336.14a9.8,9.8,0,0,1-1.8-.16c-6.47-1.2-9.61-5.09-9.61-11.9v-49.3H206c-5.33,0-10.37,0-15.43.07a4,4,0,0,0-.9.75c-3.4,3.52-6.72,7-10.24,10.75l-1.7,1.79,2.53,2c3.36,2.7,6.84,5.5,10.32,8.11,5.73,4.28,7.17,9.56,4,14.5a11.72,11.72,0,0,1-7.71,4.81,11.19,11.19,0,0,1-8.62-1.7c-4.64-3.39-9.21-7-13.63-10.5-1.76-1.39-3.52-2.78-5.28-4.15-.56-.44-1.13-.86-1.7-1.29a37.08,37.08,0,0,1-4.5-3.73c-2.63-2.68-6-8.33,1.38-16q5.07-5.28,10.2-10.53,4.5-4.62,9-9.25c2.61-2.71,5.36-5.67,8.41-9.06a1.21,1.21,0,0,0,.27-.51c.07-7.4.08-15.2,0-23.16a1.19,1.19,0,0,0-.1-.45c-3.41-3.11-6.93-6.22-10.33-9.23l-4.32-3.83c-2.4-2.13-4.56-4.08-6.63-6l-3.1-2.88c-1.35-1.25-2.7-2.51-4.07-3.74-3.12-2.81-4.34-6.28-3.44-9.77,1.79-6.93,3.74-14.31,6.2-21.53a8.18,8.18,0,0,1,4.56-4.73,14.36,14.36,0,0,1,11-.2c4.82,1.91,7.24,7.51,5.61,13-.43,1.44-.82,2.94-1.19,4.39-.59,2.3-1.21,4.68-2,7-.22.65-.24.7.42,1.29l2.53,2.3c3.24,3,6.6,6,10,8.91a4,4,0,0,0,1.18.15c11.81.05,21.65.08,31.83,0a3.17,3.17,0,0,0,1.89-.92c3.6-4.4,7.29-9.18,11.61-15a4,4,0,0,0,.27-1.93c0-15.37.07-31.93,0-48.83,0-7.14,4.21-11.52,11.32-11.71a12,12,0,0,1,8.82,3.21,11.55,11.55,0,0,1,3.28,8.58c-.13,16.55-.12,33.68,0,52.37,0,4.14-2.1,6.89-4,9.31l-.56.72c-3.16,4.15-6.4,8.33-9.53,12.37-3.78,4.88-7.69,9.92-11.46,14.92a5.51,5.51,0,0,0-.72,3l0,13.44c-.06,27.31-.13,55.56.13,83.32a10.48,10.48,0,0,1-3.94,8.06A11.9,11.9,0,0,1,220,336.14ZM201.18,270h12.16v54.07c0,4.54,1.5,6.43,5.72,7.21a6.82,6.82,0,0,0,5.43-1.66,5.75,5.75,0,0,0,2.24-4.36c-.27-27.8-.2-56-.13-83.38l0-13.44a10.21,10.21,0,0,1,1.67-5.81c3.8-5,7.71-10.08,11.5-15,3.13-4,6.36-8.21,9.51-12.33.19-.26.38-.51.58-.76,1.6-2.07,3-3.86,3-6.35-.15-18.72-.16-35.87,0-52.45a6.79,6.79,0,0,0-1.85-5.14,7.3,7.3,0,0,0-5.35-1.85c-4.51.13-6.7,2.39-6.69,6.93.06,16.92,0,33.48,0,48.86a8.08,8.08,0,0,1-1.19,4.74c-4.37,5.93-8.11,10.78-11.76,15.24a7.83,7.83,0,0,1-5.52,2.66c-10.22.14-20.08.11-31.91.06a6.66,6.66,0,0,1-4.28-1.32c-3.4-3-6.78-6-10.05-9l-2.52-2.29a5.47,5.47,0,0,1-1.72-6.4c.75-2.14,1.31-4.32,1.91-6.63.38-1.49.78-3,1.23-4.55.91-3.09-.32-6.27-2.8-7.25a9.65,9.65,0,0,0-7.21.1,3.66,3.66,0,0,0-2.05,1.94c-2.41,7.06-4.33,14.33-6.1,21.18-.44,1.73.24,3.43,2,5,1.39,1.25,2.75,2.52,4.12,3.79,1,1,2.05,1.91,3.08,2.85,2,1.87,4.19,3.8,6.57,5.92l4.32,3.82c3.44,3.05,7,6.21,10.48,9.36a5.44,5.44,0,0,1,1.55,3.86c.05,8,0,15.81,0,23.27a5.81,5.81,0,0,1-1.5,3.62c-3.08,3.43-5.87,6.43-8.51,9.18q-4.48,4.65-9,9.26c-3.4,3.5-6.81,7-10.19,10.51-4.6,4.79-3.29,7.41-1.4,9.33a32.46,32.46,0,0,0,3.93,3.24c.6.45,1.2.89,1.79,1.35,1.77,1.38,3.54,2.78,5.3,4.17,4.38,3.47,8.92,7.05,13.49,10.39a6.47,6.47,0,0,0,4.95.86,7,7,0,0,0,4.57-2.71c.72-1.11,2.62-4-2.82-8.1-3.55-2.65-7.07-5.48-10.46-8.21-1.51-1.21-3-2.43-4.54-3.64l-2-1.61,5.28-5.57c3.52-3.72,6.85-7.24,10.27-10.78a6,6,0,0,1,4.08-2.2C193.91,270,197.49,270,201.18,270Z"/><path class="cls-2" d="M272.06,263.64c-.2,0-.41,0-.62,0-5.51-.44-8.19-3.25-8.19-8.57V241.83c0-15.67,0-31.87-.08-47.8a6.76,6.76,0,0,0-.79-2.25,16.88,16.88,0,0,1-.82-2,10.06,10.06,0,0,1-.66-3.16c0-1.73,0-3.46,0-5.2,0-2.48,0-5-.06-7.55-.09-2.76.18-5.92,2.85-8.54a4.63,4.63,0,0,0,.15-1.4c.06-7.17.11-15.51,0-23.77,0-3.75,1.39-6.46,4.25-8a8.29,8.29,0,0,1,12.7,6.64c.18,3.34.15,6.58.12,10,0,.53,0,1.05,0,1.58h1.44v-8.55c0-3.76,0-7.53,0-11.29a7.81,7.81,0,0,1,2.19-5.7,8.65,8.65,0,0,1,6.24-2.27c5.23,0,8,2.77,8,7.9,0,1.51,0,3,0,4.52a8.52,8.52,0,0,1,13-1.85,7.66,7.66,0,0,1,2.48,5.35c0,1.17,0,2.35,0,3.49h.17c9.72,0,15.79,4.35,16.44,11.93a11.42,11.42,0,0,1-6.65,11.76,19.14,19.14,0,0,1-2.75,1l3.71,0v0l1.39-1.71c2-2.47,4.1-5,6-7.63a4.4,4.4,0,0,0,.37-2.28c0-4.3,0-8.68,0-12.92,0-3.63,0-7.26,0-10.89,0-1.57,0-6.35,5.23-8,1.64-.51,6.62-2.07,10.05,2.41a8.57,8.57,0,0,1,1.68,4.87c.09,8.93.09,18.29,0,28.63a7.57,7.57,0,0,1-1.51,4.27c-2,2.76-4.11,5.5-6.17,8.25-2.65,3.51-5.39,7.14-8,10.75a4.87,4.87,0,0,0-.86,2.56c-.09,20.38-.09,40.91,0,61,0,1.84,0,6.15-4,8.21a9.5,9.5,0,0,1-9.61-.48c-3.43-2.12-3.44-5.67-3.44-7.38q0-11,0-22.08v-8.83h-.84v10.37q0,10.58,0,21.17c0,2.81-.69,4.86-2.09,6.26a8,8,0,0,1-5.91,2c-5.21,0-8.44-3.18-8.44-8.22V190.67a12.9,12.9,0,0,0-1.6,6.78c.32,13.72.27,27.66.22,41.14q0,8,0,16.07c0,4.2-.87,8.54-7.4,8.92-3.15.18-5.46-.46-7.07-1.95s-2.47-3.84-2.53-7.11c-.12-6.4-.09-12.89-.06-19.16q0-4,0-8v-2.89h-.23v.62c0,2.82,0,5.65,0,8.47,0,7-.08,14.18.11,21.24a8.67,8.67,0,0,1-2.7,6.55A8.2,8.2,0,0,1,272.06,263.64Zm.47-127.89a4.4,4.4,0,0,0-2.14.59c-.9.49-1.81,1.32-1.78,3.79.1,8.3.05,16.68,0,23.87,0,1.41-.18,3.44-1.51,4.69s-1.59,2.42-1.5,5.05.08,5.2.07,7.73c0,1.71,0,3.41,0,5.12a6.83,6.83,0,0,0,.41,1.7c.15.45.39,1,.63,1.48A10.06,10.06,0,0,1,268,194c.09,15.95.08,32.16.07,47.84v13.21c0,2.64.55,3.56,3.8,3.82a3.31,3.31,0,0,0,2.59-1,3.91,3.91,0,0,0,1.22-3c-.19-7.14-.16-14.39-.12-21.4,0-2.81,0-5.63,0-8.44v-3a2.39,2.39,0,0,1,2.39-2.39h5a2.38,2.38,0,0,1,2.38,2.39v5.27q0,4,0,8c0,6.25,0,12.71.07,19.05,0,1.88.37,3.12,1,3.7s1.81.79,3.57.69c2.18-.12,2.91-.17,2.91-4.15q0-8.05,0-16.1c.05-13.45.1-27.36-.22-41-.15-6.53,2.57-10.75,7-15.44a2.38,2.38,0,0,1,4.11,1.64V247c0,2.44,1.08,3.44,3.7,3.45a4,4,0,0,0,2.52-.61,4.56,4.56,0,0,0,.69-2.89V213a2.39,2.39,0,0,1,2.39-2.38h5.6A2.38,2.38,0,0,1,321,213v11.22q0,11,0,22.07c0,2.05.26,2.77,1.18,3.33a4.7,4.7,0,0,0,4.94.29c.91-.46,1.43-1.25,1.42-3.94-.07-20.12-.07-40.67,0-61.06a9.68,9.68,0,0,1,1.78-5.35c2.66-3.63,5.4-7.28,8.06-10.81,2.06-2.73,4.12-5.46,6.15-8.22a2.92,2.92,0,0,0,.58-1.47c.08-10.31.07-19.64,0-28.54a3.75,3.75,0,0,0-.7-2c-.89-1.17-2-1.66-4.85-.76-1.27.39-1.87,1-1.89,3.45q0,5.43,0,10.86c0,4.25,0,8.64,0,13a8.86,8.86,0,0,1-1.27,5c-1.95,2.72-4.08,5.34-6.13,7.87l-1.39,1.7a4.33,4.33,0,0,1-3.12,1.77c-3.57.05-7,.05-10.74.05h-3a2.37,2.37,0,0,1-2.38-2.38v-3a2.38,2.38,0,0,1,1.89-2.33c1.27-.27,2.53-.47,3.75-.66a27.7,27.7,0,0,0,7-1.7,6.69,6.69,0,0,0,3.87-7c-.61-7-8-8-14.08-7.48a2.38,2.38,0,0,1-2.57-2.37c0-.62,0-1.24,0-1.86,0-1.37,0-2.66,0-4a2.84,2.84,0,0,0-1-2,3.48,3.48,0,0,0-2.52-.94c-2,.08-3.43,1.32-3.43,3v7.82q0,6.06,0,12.13a14.6,14.6,0,0,1-.15,1.89c0,.27-.07.56-.1.86a2.38,2.38,0,0,1-3.88,1.61c-4.13-3.38-4.59-7.55-4.5-11.18.15-5.33.11-10.77.08-16,0-1.78,0-3.56,0-5.34,0-2.34-.48-3.12-3.29-3.14a4,4,0,0,0-2.84.88,3.08,3.08,0,0,0-.78,2.31v22.23a2.38,2.38,0,0,1-2.38,2.38H278.5a2.38,2.38,0,0,1-2.38-2.38c0-1.35,0-2.68,0-4,0-3.36.07-6.53-.11-9.71a4,4,0,0,0-1.1-2.47A3.89,3.89,0,0,0,272.53,135.75Zm-8.7,29.48Zm22.43,15.28c-.76,0-1.46,0-2.07-.08-2.56-.14-5.12-.11-7.82-.07-1.2,0-2.41,0-3.63,0a2.39,2.39,0,0,1-2.27-3.1c1.69-5.33,3.71-6.09,8.56-5.56a11.26,11.26,0,0,0,10.14-4,2.39,2.39,0,0,1,1.87-.78,2.35,2.35,0,0,1,1.8.93l3,3.91a2.38,2.38,0,0,1,.36,2.23C294.19,179.7,289.67,180.51,286.26,180.51Zm-.6-4.79c2.88.09,4.51-.35,5.54-2.2l-.52-.68A16,16,0,0,1,285.66,175.72Z"/><path class="cls-1" d="M204.21,198.55c-9.43,0-16.55-4.12-20.59-11.92-4.71-9.07-1.24-19.86,8-25.1,7.59-4.27,15.41-4.82,23.23-1.65a21.14,21.14,0,0,1,12.91,14.46c1.4,6-.38,12.23-5,17.41-3.82,4.28-10.45,6.76-18.17,6.8Zm.74-35.91a22.19,22.19,0,0,0-10.94,3c-7,3.95-9.66,12-6.16,18.76,3.31,6.39,8.78,9.44,16.72,9.34h0c6.39,0,11.73-1.93,14.65-5.2,4.58-5.12,4.66-10,3.92-13.16a16.32,16.32,0,0,0-10-11.12A21.52,21.52,0,0,0,205,162.64Z"/><path class="cls-2" d="M255.62,263.55h0c-5.58,0-8.41-3.21-8.4-9.53q0-10.07,0-20.15v-9.44h-.84v30.88c0,1.95-.24,4.74-2.25,6.51s-5,1.72-7.34,1.41a2.37,2.37,0,0,1-2.07-2.36v-11.5c0-1.48,0-3,0-4.43.05-3.2.11-6.52-.1-9.71-.37-6,1.06-10.53,4.66-14.84,4.92-5.89,9.52-12,14.39-18.52,2.05-2.72,4.13-5.5,6.28-8.31a2.38,2.38,0,0,1,4.28,1.44v37q0,11,0,22c0,3.5-.75,5.88-2.35,7.48C260.42,262.85,258.38,263.55,255.62,263.55Zm-16.18-2.68h0ZM246,219.66h3.54A2.38,2.38,0,0,1,252,222v32c0,4.43,1.37,4.76,3.64,4.76a4.18,4.18,0,0,0,2.9-.75c.63-.63,1-2,1-4.11V202.1l-2,2.63C253.6,209.91,249.89,214.85,246,219.66Zm-4.44,5.62a15.12,15.12,0,0,0-2.21,9.65c.21,3.38.16,6.79.11,10.09,0,1.45-.05,2.9-.05,4.35v9.26a2.44,2.44,0,0,0,1.5-.39c.24-.21.63-.86.63-2.93Z"/><path class="cls-2" d="M179.87,167.14a5.23,5.23,0,0,1-3.09-1.16,38.35,38.35,0,0,0-3.78-2.33c-.67-.38-1.36-.77-2.08-1.2a2.39,2.39,0,0,1-1.16-2c0-2.29,0-4.62,0-7,0-6.11,0-12.43,0-18.74a6.9,6.9,0,0,1,2.1-4.92,8.92,8.92,0,0,1,6.33-2.38h.14c4.79.05,8.25,3.08,8.41,7.36.06,1.63,0,3.2,0,4.87a10.38,10.38,0,0,1,3.22.24c4.87,1.32,6.28,3.19,6.28,8.34v7.21a2.39,2.39,0,0,1-1.59,2.25,25.82,25.82,0,0,0-11.3,7.6A4.72,4.72,0,0,1,179.87,167.14ZM174.52,159l.83.47a42.16,42.16,0,0,1,4.25,2.64l.13.09.08-.08a30.64,30.64,0,0,1,11.73-8.39v-5.57c0-3,0-3-2.76-3.74a8.53,8.53,0,0,0-2.38,0c-.59,0-1.26.07-2,.07a2.37,2.37,0,0,1-2.38-2.38c0-.79,0-1.57,0-2.34,0-1.67,0-3.26,0-4.83-.1-2.54-2.86-2.77-3.71-2.78h-.08a4.27,4.27,0,0,0-3,1,2.15,2.15,0,0,0-.67,1.56c-.06,6.28-.05,12.59,0,18.69C174.52,155.31,174.52,157.18,174.52,159Z"/><path class="cls-2" d="M227.3,164.9a2.4,2.4,0,0,1-1.59-.61,32.87,32.87,0,0,0-20.39-8.62,2.39,2.39,0,0,1-2.22-2.38c0-1.08,0-2.13,0-3.16,0-2.33-.06-4.53.08-6.78a7.66,7.66,0,0,1,3.11-5.9,10.35,10.35,0,0,1,7.27-1.57c.93-2.66,3.39-4.34,7-4.65,2.21-.18,4.21,1,6,2,.44.24.86.49,1.28.71,1.68.87,1.87,3,1.88,3.93,0,6.29,0,12.58,0,19.3v5.35a2.39,2.39,0,0,1-1.41,2.18A2.35,2.35,0,0,1,227.3,164.9Zm-19.45-13.78a36.9,36.9,0,0,1,17.07,6.46v-.42c0-6.71,0-13,0-19.28v-.1l-.77-.44c-1.1-.63-2.47-1.43-3.18-1.36-3.13.27-3.08,1.74-3.06,2.62a2.36,2.36,0,0,1-.89,1.94,2.4,2.4,0,0,1-2.1.44c-2.5-.66-4.63-.54-5.84.33a2.9,2.9,0,0,0-1.15,2.34c-.13,2.06-.09,4.17-.06,6.41C207.84,150.41,207.85,150.77,207.85,151.12Z"/><path class="cls-2" d="M171.78,257a2.41,2.41,0,0,1-1.19-.32,2.37,2.37,0,0,1-1.19-2.07V225.07a2.37,2.37,0,0,1,1.1-2,2.35,2.35,0,0,1,2.28-.15c4.79,2.22,6.86,5.66,6.34,10.53a54.48,54.48,0,0,0,0,11.35c.55,5.3-1.46,9.19-6.12,11.91A2.36,2.36,0,0,1,171.78,257Zm2.38-14.24v5.7a8.35,8.35,0,0,0,.2-3.22C174.28,244.44,174.21,243.62,174.16,242.79Zm0-12.54v5.25c.05-.86.13-1.72.22-2.58A6,6,0,0,0,174.16,230.25Z"/></svg>