<svg id="Слой_1" data-name="Слой 1" xmlns="http://www.w3.org/2000/svg" viewBox="0 0 400 400"><defs><style>.cls-1{fill:#282f39;}.cls-2{fill:#4146a9;}</style></defs><title>ic</title><path class="cls-1" d="M256.74,350a5.13,5.13,0,0,1-5.13-5.13V322.74a5.15,5.15,0,0,1,1.87-4C311,271.43,313.39,255.75,317,232c.46-3.05.94-6.2,1.55-9.57,5.23-28.79-11.75-66.6-16.58-75.15-1-1.75-1.67-2-1.67-2h0c-.58,0-2.27,1.23-3.29,2.57-.3.39-.23.41-.51.61-.73,1.2-4.87,9.76,7.75,34.65,11.15,22-1.43,45.42-12.88,60.3-6.68,11.37-14.51,15.81-15,16.06a5.13,5.13,0,0,1-5.89-8.31,116.66,116.66,0,0,0,12.58-13.91,55.11,55.11,0,0,0,4.86-12.09c1.38-5,1-7.66.14-8.47-1.07-1-4.05-1-6.37-.5l-36,41.69a5.12,5.12,0,0,1-2,1.4c-.21.08-20.53,8.39-32.76,19.78-8.62,8-1.77,33.57,1.31,41.89a5.14,5.14,0,0,1,.32,1.78v22.13a5.13,5.13,0,1,1-10.25,0V323.64c-2.38-6.71-12.72-38.71,1.63-52.07,12-11.17,30-19.26,34.73-21.29l36.25-42a5.11,5.11,0,0,1,2.33-1.54c1.17-.37,11.6-3.46,17.85,2.57a11.19,11.19,0,0,1,1.69,2c2.08-7.81,2.09-15.94-1.79-23.58-16.18-31.92-8.7-43.56-6.06-46.36,1.21-1.51,5.83-6.72,11.92-6.33,2.78.17,6.76,1.56,9.95,7.2,6.42,11.34,23.44,50.75,17.75,82-.59,3.23-1.05,6.3-1.5,9.27-3.77,24.87-6.51,42.91-65.27,91.6v19.71A5.12,5.12,0,0,1,256.74,350Z"/><path class="cls-1" d="M192.49,350a5.12,5.12,0,0,1-5.12-5.13V322.74a5.14,5.14,0,0,1,.32-1.78c3.08-8.32,9.93-33.86,1.31-41.89-12.26-11.42-32.55-19.7-32.75-19.78a5,5,0,0,1-2-1.4l-36-41.69c-2.3-.47-5.3-.54-6.37.5-.84.81-1.24,3.47.14,8.47A55.87,55.87,0,0,0,117,237.39a115.61,115.61,0,0,0,12.51,13.78,5.13,5.13,0,0,1-5.89,8.31c-.45-.25-8.28-4.69-15-16.06-11.45-14.88-24-38.31-12.88-60.3,12.62-24.89,8.48-33.45,7.75-34.65-.3-.21-.22-.23-.52-.64-1-1.33-2.7-2.59-3.31-2.54h0s-.67.27-1.66,2c-4.83,8.55-21.81,46.37-16.58,75.15.61,3.37,1.09,6.52,1.55,9.57,3.6,23.72,6,39.39,63.51,86.75a5.15,5.15,0,0,1,1.87,4v22.13a5.13,5.13,0,1,1-10.25,0V325.16c-58.76-48.69-61.49-66.73-65.27-91.6-.45-3-.91-6.05-1.5-9.27-5.68-31.27,11.33-70.69,17.75-82,3.19-5.64,7.17-7,9.95-7.2,6.11-.37,10.71,4.82,11.92,6.33,2.64,2.8,10.12,14.44-6.06,46.36-3.89,7.66-3.88,15.8-1.81,23.61a11.93,11.93,0,0,1,1.71-2.05c6.25-6,16.68-2.94,17.85-2.57a5.11,5.11,0,0,1,2.33,1.54l36.25,42c4.77,2,22.74,10.12,34.73,21.29,14.35,13.36,4,45.36,1.63,52.07v21.23A5.13,5.13,0,0,1,192.49,350Z"/><path class="cls-2" d="M201.68,239.79a5.11,5.11,0,0,1-4.86-3.52c-.21-.59-5.39-15.17-24.06-22.58-23.18-9.2-32-31.8-32.37-32.76a3,3,0,0,1-.15-.42c-3.07-10.82-3.13-34.6,18.63-47.17,22.5-13,40.73,4.38,47.23,15.39a5.12,5.12,0,0,1-8.82,5.22h0c-.56-.94-14-22.88-33.28-11.73s-14.62,32.61-13.95,35.27c.87,2.08,8.65,19.59,26.49,26.67,23.3,9.24,29.75,28.1,30,28.9a5.11,5.11,0,0,1-3.26,6.47A5,5,0,0,1,201.68,239.79Z"/><path class="cls-2" d="M201.69,239.79a5,5,0,0,1-1.61-.26,5.11,5.11,0,0,1-3.26-6.47c.26-.8,6.71-19.66,30-28.9,17.82-7.07,25.6-24.56,26.49-26.68.66-2.59,5.42-24.07-13.95-35.26S206.66,153,206.1,153.94a5.13,5.13,0,1,1-8.83-5.21c6.5-11,24.73-28.38,47.23-15.39,21.76,12.57,21.7,36.35,18.62,47.17a3,3,0,0,1-.14.42c-.36,1-9.2,23.56-32.37,32.76-18.89,7.49-24,22.43-24.06,22.58A5.11,5.11,0,0,1,201.69,239.79Z"/><path class="cls-2" d="M201.68,112.08a5.12,5.12,0,0,1-5.12-5.12V55.13a5.13,5.13,0,1,1,10.25,0V107A5.12,5.12,0,0,1,201.68,112.08Z"/><path class="cls-2" d="M233.93,100.56a5.13,5.13,0,0,1-3.63-8.75l35.23-35.23a5.13,5.13,0,0,1,7.25,7.25L237.55,99.06A5.1,5.1,0,0,1,233.93,100.56Z"/><path class="cls-2" d="M263.17,129.36a5.13,5.13,0,0,1-2.19-9.77l44.61-21a5.13,5.13,0,0,1,4.37,9.28l-44.61,21A5.13,5.13,0,0,1,263.17,129.36Z"/><path class="cls-2" d="M170.24,102.6a5.11,5.11,0,0,1-3.64-1.52L129.68,63.82A5.13,5.13,0,0,1,137,56.6l36.92,37.26a5.13,5.13,0,0,1-3.64,8.74Z"/><path class="cls-2" d="M140.43,129.36a5.16,5.16,0,0,1-2.12-.46l-46.07-21a5.12,5.12,0,1,1,4.25-9.32l46.07,21a5.13,5.13,0,0,1-2.13,9.79Z"/></svg>