<svg id="Слой_1" data-name="Слой 1" xmlns="http://www.w3.org/2000/svg" viewBox="0 0 400 400"><defs><style>.cls-1{fill:#282f39;}.cls-2{fill:#4146a9;}</style></defs><title>ic</title><path class="cls-1" d="M195.93,163.72l5.91-.06h5.92c11,.09,22,.21,33,.27,8.62,0,8.62,0,8.62,8.95,0,14.61.14,29.23-.09,43.83-.06,4.1,1,5.47,5.26,5.35,11-.3,22,.06,33-.21,4.95-.12,6.81,1.61,6.74,6.61-.19,15.24.12,30.49-.17,45.73-.1,5.3,1,7.55,7,7.23,9.92-.54,19.89,0,29.84-.22,4.4-.09,6.36.91,6.28,6-.32,18.42-.42,36.85,0,55.26.17,6.72-2.73,7.58-8.34,7.57q-111.8-.18-223.6-.07c-11.85,0-23.71-.16-35.57.06-5.2.09-7.07-1.86-7-7.1.23-18.42.27-36.85,0-55.27-.08-5.21,1.82-6.54,6.61-6.43,10.16.25,20.34-.25,30.49.21,5.36.25,6.38-1.83,6.31-6.56-.22-15.46.07-30.92-.17-46.37-.08-5,1.63-6.75,6.61-6.62,10.8.28,21.61-.11,32.39.21,4.38.13,5.82-1,5.73-5.55-.29-15,.12-30.07-.21-45.09-.13-6,2.09-7.74,7.8-7.59,10.36.27,20.74-.08,31.11-.18ZM69.34,300.52c0,12.36.29,24.36-.13,36.33-.19,5.48,1.71,6.54,6.82,6.53q101.34-.25,202.66-.11c15.67,0,31.34,0,47,0,2,0,5.2,1.17,5.22-2.67.08-13.21,0-26.41,0-40.07-1.39.48-2.11.51-2.47.89-10.14,10.86-28.94,9.6-37.2-3-1.85-2.81-2.82-1.46-4.41.55-6.3,8-14.76,11.14-24.67,9.34-7.56-1.36-12.84-6.53-17.34-12.85-5.59,8.23-12.36,13.29-22.49,13.23S206,303,200.6,295.6c-14.49,17.32-27.88,17.93-42.57,2.17-2-2.11-2.55-1.66-4.13.43-4.92,6.48-11.21,10.38-19.81,10.47-10.26.11-16.92-5.36-22.47-13.06C98.06,311.48,91,312.36,69.34,300.52ZM112.2,239c0,13.14.18,24.77-.09,36.38-.1,4.52.9,6.09,5.89,6,27.29-.29,54.58-.14,81.87-.14,27.51,0,55,0,82.51-.06,1.93,0,5.26,1.54,5.3-2.35.15-12.71.06-25.43.06-39.12-12.59,13.74-29.42,11.68-38,1.53-3.32-4-4.71-3.44-7.72,0-6.71,7.58-15.06,9.75-25,7.14-7.52-2-11.67-7.57-16-13.29-10.71,19.29-34.13,18.15-43.25,3.06-1.77-2.92-2.45-2.87-4.41.18A22.89,22.89,0,0,1,142,247.67C130.53,251.87,121.09,248.69,112.2,239ZM157,183c0,12.2,0,23.15,0,34.11,0,2.85.32,4.8,4,4.78q39-.16,78,0c3,0,4.11-1.1,4.08-4.12-.11-11.33-.05-22.66-.05-34.34-17.31,13.59-28.19,12.8-41.5-2.92-1.93-2.27-2.38-1.35-3.48.41-2.58,4.13-5.84,7.58-10.43,9.54C176.26,195.31,166.45,192.5,157,183Zm66.1-12.45v0c-5.07,0-10.14,0-15.22,0-2.42,0-4.68,1-3.14,3.71,3.79,6.64,8.76,12.58,17.47,12.4,7.92-.16,14.31-4.17,17.39-11.24,1.55-3.53.91-5.07-3.19-4.89C232,170.66,227.58,170.51,223.14,170.51Zm-27.48.61c-10.71-1.26-21.19-.16-31.6-.67-4.78-.24-5.49,1.42-3.49,5.5,3.55,7.21,9.8,11.05,18.3,10.53C188.22,185.92,192.65,179.74,195.66,171.12Zm-17.07,116c-4.65,0-9.3.19-13.92-.06-4.38-.23-4.33,1.56-3,4.83,2.6,6.35,10.39,11.17,17.71,10.69,6.81-.45,14.71-6.26,16.31-12,.66-2.33.21-3.58-2.57-3.51C188.29,287.22,183.44,287.14,178.59,287.12Zm-45.07,0c-4.64,0-9.29.17-13.91-.05-3.47-.16-4.06,1.32-3,4.16,2.18,5.9,10,11.19,16.74,11.35,7.19.17,14.56-4.52,17.1-10.65,1.33-3.23,1.34-5.09-3-4.87C142.8,287.31,138.15,287.13,133.52,287.13Zm133.75,0c-4.85,0-9.7.13-14.54,0-3.09-.12-3.66,1.17-2.81,3.79,1.89,5.84,9.59,11.31,16.48,11.69s14.81-4.24,17.34-10.29c1.31-3.13,1.63-5.55-3.2-5.23C276.13,287.36,271.69,287.13,267.27,287.14Zm43.8-.07v0c-4.44,0-8.88.12-13.31,0-3.76-.14-5.06.74-3.31,4.7a18.24,18.24,0,0,0,16.32,10.89c7.39.17,13.67-4.28,17.27-11.36,1.73-3.38.6-4.11-2.4-4.14C320.78,287,315.93,287.07,311.07,287.07ZM90,287.07c-4.86,0-9.71.05-14.57,0-3.47-.06-3.85,1.61-2.84,4.42,2.19,6.1,9.77,11.16,16.85,11.14s14.68-5.12,16.8-11.21c1-2.87.52-4.45-2.93-4.36C98.83,287.15,94.39,287.07,90,287.07Zm132.87.09c-4.64,0-9.29.07-13.93,0-3.27-.07-4.07,1.22-3,4.26,2.24,6.17,9.63,11.18,16.79,11.2s14.59-5,16.88-11.12c1.08-2.9.57-4.41-2.84-4.35C232.11,287.21,227.47,287.15,222.82,287.16Zm-16.11-58.84c1.55,8.55,7.63,14.42,15.38,15.14s16.74-4.6,19.27-11.56c1-2.85,0-3.66-2.9-3.63C227.9,228.4,217.34,228.32,206.71,228.32Zm42.9,0c2.69,8.62,7.79,13.82,15.95,15,9,1.36,14.89-3.83,19.6-10.77,2-3,.8-4.25-2.35-4.26C271.92,228.28,261,228.3,249.61,228.3Zm-88.89,0c2.29,8.92,8.11,14.38,15.46,15.13a19.27,19.27,0,0,0,18.95-10.93c1.32-2.68,1.61-4.27-2.23-4.24C182.33,228.39,171.77,228.33,160.72,228.33Zm-28,0v0c-4.2,0-8.44.32-12.6-.08-5.94-.55-5.36,2.84-3.38,5.87,3.93,6,9.48,10,17.12,9.4,7.26-.55,12.27-4.62,15.66-10.89,1.79-3.32.65-4.45-2.93-4.32C142,228.46,137.35,228.32,132.72,228.32Z"/><path class="cls-2" d="M201.24,126.62c-14.07,0-21.74-4.27-24.08-13.71-2.3-9.24-1.4-18.4,1.54-27.39a37.69,37.69,0,0,1,2.47-6.45c4.25-7.8,3.47-15.39-.68-22.88-.91-1.65-2.34-3.1-.58-5.06s3.36-1,5.2-.44c12.11,3.81,21,11.49,27.28,22.41,2.07,3.59,4.46,7,6.51,10.58,5.1,8.94,4.2,18.69,3.36,28.33C221.53,120.44,212.37,126.64,201.24,126.62ZM188.07,59.27A23.33,23.33,0,0,1,188,78.68c-2.73,6.24-4.32,12.68-6.2,19.1-2.68,9.16-.1,16.25,7.92,21.92,4.67,3.31,16.14,3.55,20.55.44,5.4-3.82,9.66-16.26,7.52-22.78C214,85.61,208.7,74.6,199.27,66.2,196.22,63.48,193.42,60.13,188.07,59.27Z"/><path class="cls-2" d="M195.93,163.72l-6.54-.07q0-14,.1-27.89c0-2.36,0-5.29,3.12-5.19,2.77.09,3.28,2.7,3.27,5.26C195.84,145.12,195.91,154.42,195.93,163.72Z"/><path class="cls-2" d="M207.76,163.66h-5.92q.06-13.86.13-27.7c0-2.3-.19-5.13,3-5.19,3.55-.06,2.72,3.06,2.74,5.19C207.78,145.19,207.75,154.43,207.76,163.66Z"/></svg>