<svg id="Слой_1" data-name="Слой 1" xmlns="http://www.w3.org/2000/svg" viewBox="0 0 400 400"><defs><style>.cls-1{fill:#282f39;}.cls-2{fill:#4146a9;}</style></defs><title>ic</title><path class="cls-1" d="M199.14,297.69c-21.16,0-41.29-5.74-60.16-17.17-15-9.07-23.19-18.11-34.07-37.82-10.11,1-18.89-1.12-25.52-6.07-6.26-4.67-10.22-11.69-11.46-20.29a29.13,29.13,0,0,1,5.47-22.07c4.77-6.37,12.12-10.83,20.9-12.74l.15-2.11c.26-3.78.54-7.69,1-11.58,5.7-44,40.06-80.31,83.54-88.25a145.67,145.67,0,0,1,22.43-1.83c11.54-.3,22.79-.84,33.53-4.09l.52-.15c.76-.23,1.47-.44,2.1-.69,8.81-3.46,13.54-7,13.32-15.91l-.17-7.42,6.31,3.9c11.82,7.31,18.82,14.94,22.69,24.74,4,10.16,2.83,20.43-3.52,30.55,19.32,20.28,29.4,44.53,30,72.15,9.9,1.57,17.45,6.58,22.48,14.93a31,31,0,0,1,3.88,22.66c-3.31,16.8-16.8,25.57-37.24,24.3l-.32.63c-1.13,2.26-2.3,4.58-3.66,6.84-13.07,21.63-33,36.1-59.19,43A129.37,129.37,0,0,1,199.14,297.69ZM109.33,234l1.34,2.47c10.76,19.93,18.35,28.61,32.47,37.17,26.54,16.08,55.8,20.05,87,11.81,24.12-6.37,42.41-19.63,54.37-39.41,1.2-2,2.24-4.07,3.35-6.28.53-1,1-2.09,1.59-3.12l1.26-2.42,2.71.28c12.45,1.28,28-.74,31.3-17.62a23.24,23.24,0,0,0-2.88-17c-4.27-7.09-10.76-10.84-19.86-11.47l-3.77-.26,0-3.78c.22-28.39-9.59-52.08-30-72.41l-2.43-2.43,2-2.78c6.45-8.9,7.87-17.07,4.46-25.7-2.59-6.55-7-12-14.07-17.23-2.42,9.17-10.09,13.48-17.66,16.46-1,.37-1.86.65-2.75.91l-.49.15c-11.69,3.52-23.53,4.1-35.64,4.42a139.56,139.56,0,0,0-21.19,1.7c-40.09,7.32-71.75,40.78-77,81.38-.48,3.64-.74,7.44-1,11.1-.12,1.77-.25,3.53-.39,5.29l-.27,3.19-3.17.46c-8.07,1.15-14.75,4.76-18.81,10.17a21.28,21.28,0,0,0-3.94,16.11c.93,6.44,3.8,11.62,8.31,15,5.49,4.1,13.21,5.55,22.35,4.21Z"/><path class="cls-2" d="M256.91,350.5a7.88,7.88,0,0,1-3.37-.76l-52.64-25a7.86,7.86,0,0,1,.67-14.48l52.15-19.08a7.85,7.85,0,0,1,10.56,7.3l.49,44a7.88,7.88,0,0,1-7.86,7.95Zm-52.17-32.81,52,24.65-.48-43.49Zm-.4-.19-1.71,3.64,1.72-3.64Z"/><path class="cls-2" d="M144,350.5a7.89,7.89,0,0,1-7.86-8l.49-44a7.86,7.86,0,0,1,10.56-7.29l52.15,19.08a7.86,7.86,0,0,1,.67,14.48l-52.64,25A7.88,7.88,0,0,1,144,350.5Zm.67-51.65-.48,43.49,52-24.65Zm51.91,19h0l1.37-3.78Z"/><path class="cls-1" d="M168.55,180.65a11.6,11.6,0,0,1,11.51-11.94,12.47,12.47,0,0,1,12.1,12.74,11.63,11.63,0,0,1-11.35,11.77C174.13,193.31,168.56,187.6,168.55,180.65Z"/><path class="cls-1" d="M253.8,168.71c6.6-.07,12.34,5.78,12.35,12.59a11.84,11.84,0,0,1-11.65,11.92c-6.49-.05-12.07-5.74-12.19-12.42A11.85,11.85,0,0,1,253.8,168.71Z"/></svg>