<svg id="Слой_1" data-name="Слой 1" xmlns="http://www.w3.org/2000/svg" viewBox="0 0 400 400"><defs><style>.cls-1{fill:#282f39;}.cls-2{fill:#4146a9;}</style></defs><title>ic</title><path class="cls-1" d="M175.38,313.86c-4.2-4-8.26-7.48-11.86-11.38-7.47-8.08-12.9-17.5-17.46-27.49a8.55,8.55,0,0,0-3.49-3.43c-6.57-3.82-13.26-7.41-19.84-11.2-1.62-.93-3.92-2.13-2.26-4.5,1.78-2.53,3.57-.45,5.26.58q7.85,4.79,15.7,9.54l.68-.66c-.25-.93-.52-1.86-.74-2.8-2-8.91-4.28-17.77-6-26.74-.49-2.57-1.71-2.92-3.68-3.48-8.67-2.45-17.33-5-25.94-7.65-2.1-.66-4-2.05-6.28-3.26a97.93,97.93,0,0,0,5.09,25.09,104.34,104.34,0,0,0,32,46.76c1.5,1.27,4.39,2.5,2.34,5.07s-3.85.08-5.35-1.22c-27.29-23.6-40.49-53.69-38.89-89.51,2.26-50.39,37.39-91,86.83-101.69,5.1-1.11,10.37-1.46,15.56-2.16l4.77-.63v-14c0-11.83-.06-23.67.09-35.5,0-1.22,1-3.26,1.93-3.48,2.56-.61,2.93,1.42,2.93,3.47q0,17.6,0,35.19V103c6.32.86,12.45,1.44,18.48,2.57,42.59,8,76.53,41.38,85.86,83.81a109.39,109.39,0,0,1-87.57,131.58c-26.79,4.87-51.9.05-75.44-13.47-1.58-.91-3.26-1.93-2-4.05s2.93-1,4.56-.21q10.6,4.92,21.28,9.69A26.32,26.32,0,0,0,175.38,313.86ZM308.72,204.7c-2.06-22.07-9.71-41.3-23.51-58a103.1,103.1,0,0,0-52.1-34.13A86.34,86.34,0,0,1,259.75,146a21.37,21.37,0,0,0,11.63,11.53c5.76,2.55,10.94,6.44,16.34,9.8,1.46.91,2.3,2.25,1.1,3.87s-2.65,1.16-4,.1c-.82-.62-1.62-1.27-2.5-1.81-5.13-3.11-10.28-6.19-15.64-9.42l7.58,33.21C285.73,195.61,297.67,198.08,308.72,204.7Zm-84.54,28.35v-39.8h-39.8v39.8Zm-82.62-72.6c-11.66,5.42-22.42,12.59-30.86,22.92a48.69,48.69,0,0,0-11.06,25c-.79,6.13-.17,8.24,5.6,10.77a168.3,168.3,0,0,0,18,6.25c3.55,1.09,7.26,1.63,10.85,2.41V198.36c-4.41,1-8.59,2-12.78,2.89-1.65.36-3.48.7-4-1.56s1.07-2.87,2.81-3.25c4.11-.9,8.24-1.7,12.32-2.73,1-.25,2.43-1.08,2.61-1.88C137.31,181.43,139.4,171,141.56,160.45ZM219,142.92c-.83-3.87-1.28-7.69-2.49-11.26-2.3-6.77-4.93-13.43-7.65-20-1.16-2.83-3.86-3.7-6.7-3.27-4.14.63-8.4,1.12-12.32,2.5-13.28,4.65-22.74,14.11-30.36,25.53-3.07,4.6-5.58,9.57-8.37,14.41l33.14-7.59c1.52-6.1,3-12.48,4.75-18.81a5.21,5.21,0,0,1,2.28-2.54,2.26,2.26,0,0,1,2,.85,6.74,6.74,0,0,1,.22,3.48c-1.3,5.58-2.74,11.12-4.15,16.74Zm1.26,5.2h-32l-4,39.93h40C222.91,174.75,221.6,161.61,220.25,148.12Zm9.09,84.27c.14.12.22.24.29.24,12.67-1.21,25.34-2.41,38-3.72a2.41,2.41,0,0,0,1.51-1.76c.09-9.83.06-19.65.06-30l-39.86-4Zm-44.56,5.78a7.84,7.84,0,0,0-.12,1.33c1.21,12.17,2.47,24.34,3.63,36.52.18,1.91,1.39,2.09,2.76,2.09,8.74,0,17.47,0,26.21.08,2.29,0,2.91-1.14,3.13-3.16.71-6.54,1.67-13,2.32-19.6.56-5.69.81-11.41,1.22-17.26ZM179.21,193c-12.89,1.43-25.51,2.8-38.12,4.33a3,3,0,0,0-1.74,2.22c-.13,8.92-.09,17.84-.12,26.77,0,1.87.76,2.64,2.71,2.84,8.68.88,17.33,2,26,2.9,3.73.38,7.5.46,11.27.68Zm4-44.38c-5.85,1.15-11.43,2-16.9,3.39a154.07,154.07,0,0,0-15.3,4.65,6.15,6.15,0,0,0-3.32,3.45q-3.17,10.13-5.72,20.43c-.94,3.73-1.36,7.59-2,11.5l39.4-3.85C180.6,175.11,181.87,162.16,183.2,148.62Zm46,39.59,39.3,3.79a140.31,140.31,0,0,0-8-32.87,3.59,3.59,0,0,0-1.74-1.93A137,137,0,0,0,225.39,149C226.67,162.13,227.92,175.06,229.19,188.21Zm-3.81,89.1a138.76,138.76,0,0,0,33.28-8.1,3.17,3.17,0,0,0,1.68-1.6,139.5,139.5,0,0,0,8.12-33.39l-39.27,3.83C227.93,251,226.68,263.93,225.38,277.31Zm-85.15-43.07a5.69,5.69,0,0,0-.07,1.16A139.76,139.76,0,0,0,148,267a4.44,4.44,0,0,0,2.51,2.3c7,2.14,13.93,4.23,21,6,3.81,1,7.77,1.39,11.68,2.07-1.31-13.51-2.57-26.53-3.82-39.36Zm35-121.87c-36.74,9-65.07,42.84-71.8,72.51,16.22-18,19.08-20.11,40-30.44a6,6,0,0,0,2.48-2.83c4-8.94,8.67-17.57,15.16-25C165.63,121.47,170.78,116.8,175.21,112.37Zm57.33,201.36c29.58-5,69.53-44.87,71.7-71.28-1.44,1.72-2.65,3.23-3.92,4.67-9.47,10.8-21.24,18.35-34.24,24.17A6.31,6.31,0,0,0,263,273.9C256.06,289.32,247,303.09,232.54,313.73Zm34.07-47.68c19.14-9.46,35.45-21.59,41.83-44.36-11.23,6.57-23,9-34.19,11.23C271.65,244.18,269.15,255,266.61,266.05Zm-9.45-115.39c-9.54-19.22-21.68-35.44-44.33-41.73,6.59,11.24,9,23,11.27,34.22Zm.08,124.73c-8.62,2-16.71,4.7-25,5.62-6.57.73-9,3.2-9.92,9.59a74.74,74.74,0,0,1-9.41,26.67C235.63,310.81,247.72,294.62,257.24,275.39Zm-105.85.3c9.55,19,21.51,35.25,44.21,41.51-5.71-9.88-8.4-19.88-10.24-30.08-.62-3.43-1.71-4.77-5.35-5.39C170.54,280.14,161.19,277.81,151.39,275.69Zm37.91,7.61c1.66,6.52,2.95,12.87,4.93,19a59.81,59.81,0,0,0,5.85,12.78c2.53,4.13,5.93,4.1,8.42-.05a61.57,61.57,0,0,0,5.78-12.82c2-6.16,3.29-12.55,4.9-18.89Zm85.16-84.82v29.93c8.61-2.53,17.06-4.87,25.39-7.57a25.7,25.7,0,0,0,7.15-4.1c2.67-2,2.54-5.16,0-7.33a13.61,13.61,0,0,0-2.23-1.64C295.31,202.55,284.9,200.52,274.46,198.48Z"/><path class="cls-1" d="M203.5,324.27c-19.38,0-38.2-5.18-56.15-15.5-1.13-.64-2.67-1.53-3.09-3.15a3.8,3.8,0,0,1,.58-3c1.84-3,4.54-1.73,6-1l.48.24c5.28,2.44,10.94,5,17.6,8-2.28-2.11-4.44-4.17-6.49-6.38-6.75-7.3-12.38-16.16-17.72-27.89a7.15,7.15,0,0,0-2.89-2.76c-3.49-2-7.08-4-10.56-6-3-1.69-6.19-3.45-9.27-5.22l-.17-.1c-1.24-.71-2.94-1.69-3.33-3.44a3.87,3.87,0,0,1,.76-3.12,4,4,0,0,1,2.55-1.8c1.55-.26,2.86.66,3.91,1.41a9.66,9.66,0,0,0,.81.55L137.83,262l2.21,1.34c0-.17-.09-.35-.13-.53-.54-2.36-1.1-4.73-1.66-7.09-1.51-6.43-3.08-13.08-4.34-19.69-.32-1.68-.76-1.8-2.61-2.33-10.13-2.85-18.39-5.29-26-7.66a20.17,20.17,0,0,1-4.11-2A96.66,96.66,0,0,0,106,246a103.39,103.39,0,0,0,31.54,46.11c.24.19.51.39.79.59,1.13.82,2.53,1.83,2.76,3.5a4,4,0,0,1-1,3.06,4,4,0,0,1-2.85,1.7c-1.71.12-3-1.12-4-2.11-.22-.22-.44-.43-.65-.61-27.77-24-41-54.54-39.4-90.71,2.27-50.72,37.64-92.16,88-103.1A106.36,106.36,0,0,1,192,102.83c1.63-.18,3.27-.37,4.89-.59l3.17-.42.3,0V81.18c0-9.05,0-18.4.09-27.61,0-1.47,1.2-4.46,3.08-4.92a3.67,3.67,0,0,1,3.28.53c1.33,1,1.5,2.9,1.5,4.4q0,13,0,25.93v22.16l4.66.59c4.34.53,8.44,1,12.6,1.82a109,109,0,0,1,56.17,29.39A111.06,111.06,0,0,1,223.8,322.41,113.48,113.48,0,0,1,203.5,324.27ZM148,303.72c-.27,0-.38.18-.56.48a1,1,0,0,0-.23.67c.1.4,1.12,1,1.67,1.3,23.53,13.52,48.57,18,74.42,13.29A108.09,108.09,0,0,0,225,107c-4.06-.77-8.11-1.27-12.41-1.8q-3-.36-6-.76a1.51,1.51,0,0,1-1.3-1.49V79.51q0-13,0-25.93c0-1.71-.32-2-.36-2s-.21-.08-.6,0a3.83,3.83,0,0,0-.9,2.07c-.12,9.18-.1,18.53-.09,27.57V103.1a1.49,1.49,0,0,1-1.3,1.48l-1.61.22-3.16.41c-1.64.23-3.3.41-4.95.6a105.62,105.62,0,0,0-10.49,1.54c-49,10.65-83.43,51-85.65,100.3-1.58,35.21,11.33,64.92,38.37,88.31.25.22.51.47.78.73.5.48,1.36,1.25,1.71,1.27.12,0,.37-.16.71-.58s.4-.66.38-.78c-.06-.4-1-1.05-1.55-1.48-.34-.25-.67-.49-1-.73A106.27,106.27,0,0,1,103.15,247,99.07,99.07,0,0,1,98,221.49a1.53,1.53,0,0,1,.68-1.36,1.48,1.48,0,0,1,1.52-.07c.77.41,1.49.83,2.19,1.24a19.36,19.36,0,0,0,3.84,1.92c7.57,2.36,15.8,4.79,25.9,7.64,2,.56,4.08,1.14,4.75,4.64,1.24,6.55,2.8,13.17,4.31,19.57.56,2.37,1.12,4.74,1.66,7.11.15.62.32,1.24.49,1.86l.24.9a1.47,1.47,0,0,1-.41,1.46l-.68.66a1.51,1.51,0,0,1-1.82.21l-4.38-2.66q-5.66-3.44-11.32-6.89c-.33-.2-.66-.43-1-.67-.53-.37-1.35-1-1.66-.89-.11,0-.33.17-.6.56a1.23,1.23,0,0,0-.3.74c.11.47,1.23,1.11,1.9,1.49l.18.11c3.06,1.76,6.2,3.51,9.23,5.2,3.49,1.95,7.1,4,10.61,6a10.39,10.39,0,0,1,4.11,4.11c5.21,11.43,10.67,20,17.19,27.09,2.42,2.61,5,5,7.83,7.61q2,1.8,4,3.7a1.5,1.5,0,0,1-1.43,2.54c-.44-.13-.85-.22-1.24-.31a13.88,13.88,0,0,1-2.4-.73c-8.3-3.73-15.06-6.81-21.29-9.7l-.53-.26A4.74,4.74,0,0,0,148,303.72Zm56.32,15.92c-1.44,0-3.56-.66-5.48-3.79a60.89,60.89,0,0,1-6-13.11c-1.4-4.32-2.43-8.64-3.53-13.22-.46-1.94-.92-3.89-1.42-5.85a1.46,1.46,0,0,1,.27-1.29,1.48,1.48,0,0,1,1.18-.58h29.88a1.48,1.48,0,0,1,1.18.58,1.46,1.46,0,0,1,.27,1.29c-.48,1.9-.93,3.8-1.39,5.69-1,4.39-2.13,8.92-3.53,13.29a62.86,62.86,0,0,1-5.92,13.13c-1.91,3.17-4,3.85-5.48,3.86ZM191.22,284.8c.33,1.35.65,2.69,1,4,1.08,4.52,2.1,8.79,3.47,13a58.13,58.13,0,0,0,5.69,12.46c.94,1.52,2,2.36,2.93,2.36h0c1,0,2-.86,2.93-2.41a60,60,0,0,0,5.63-12.49c1.37-4.27,2.44-8.74,3.48-13.07q.45-1.94.93-3.87Zm21.71,34a1.46,1.46,0,0,1-1.17-.57,1.48,1.48,0,0,1-.13-1.66,73.92,73.92,0,0,0,9.23-26.15c1-7.12,4-10.07,11.23-10.87a118.66,118.66,0,0,0,17-3.62c2.53-.66,5.15-1.35,7.79-2a1.5,1.5,0,0,1,1.69,2.13c-8.49,17.14-20.5,35.61-45.24,42.66A1.4,1.4,0,0,1,212.93,318.77Zm41.5-41.15c-1.54.39-3.07.79-4.56,1.19a121.79,121.79,0,0,1-17.45,3.69c-5.85.65-7.77,2.52-8.59,8.31A74.62,74.62,0,0,1,216,314.73C236,307.76,246.75,292.47,254.43,277.62ZM195.6,318.7a1.31,1.31,0,0,1-.39-.05c-24.44-6.74-36.54-25.16-45.16-42.29a1.51,1.51,0,0,1,1.66-2.14c2.82.61,5.6,1.24,8.35,1.86,6.94,1.57,13.48,3,20.2,4.17,4.1.69,5.82,2.42,6.57,6.6,1.58,8.75,4,19.11,10.07,29.6a1.5,1.5,0,0,1-1.3,2.25Zm-41.42-40.86c8.09,15.47,18.63,30.17,38.35,36.85-5-9.75-7.19-19.2-8.65-27.31-.53-2.95-1.26-3.69-4.12-4.17-6.79-1.14-13.38-2.63-20.36-4.2Zm78.36,37.39a1.5,1.5,0,0,1-.89-2.71c12.59-9.26,22.11-21.72,30-39.23a7.88,7.88,0,0,1,3.87-3.37c14.24-6.37,25.28-14.16,33.73-23.79.84-1,1.66-1.95,2.54-3l1.35-1.63a1.5,1.5,0,0,1,2.65,1.08c-1.05,12.77-10.78,29.46-26,44.63s-32.78,25.64-46.94,28Zm69.3-67.56-.39.44c-8.74,10-20.11,18-34.75,24.55a5,5,0,0,0-2.36,1.86c-6.92,15.44-15.13,27.09-25.55,36.13C264.7,302.39,295.9,271.28,301.84,247.67Zm-84.53,32h-.07c-5.18-.05-10.37-.05-15.56-.06-3.54,0-7.09,0-10.63,0-1,0-3.92,0-4.25-3.45q-1.19-12.35-2.45-24.67-.58-5.93-1.19-11.84a5.05,5.05,0,0,1,.07-1.19c0-.14.05-.28.06-.44a1.5,1.5,0,0,1,1.49-1.35h39.15a1.51,1.51,0,0,1,1.49,1.6c-.12,1.8-.23,3.59-.34,5.36-.24,3.93-.49,8-.88,12-.36,3.71-.84,7.46-1.29,11.09-.36,2.8-.72,5.69-1,8.53C221.75,276.43,221.39,279.69,217.31,279.69Zm-31.13-40q.57,5.76,1.16,11.52,1.24,12.35,2.45,24.68c.06.67.07.74,1.27.74,3.54,0,7.08,0,10.62,0,5.2,0,10.4,0,15.59.06,1.09,0,1.44-.07,1.63-1.82.31-2.87.68-5.77,1-8.57.45-3.61.92-7.34,1.29-11,.38-3.92.62-7.77.87-11.84.07-1.26.15-2.51.23-3.78Zm-3,39.24-.26,0c-1.21-.21-2.42-.39-3.63-.58a78.1,78.1,0,0,1-8.17-1.52c-6.72-1.73-13.27-3.68-21-6.06a5.93,5.93,0,0,1-3.47-3.2,140.39,140.39,0,0,1-7.9-31.93,4.39,4.39,0,0,1,0-1.16l0-.29a1.51,1.51,0,0,1,1.64-1.41l39.09,3.81a1.5,1.5,0,0,1,1.35,1.35l3.83,39.36a1.53,1.53,0,0,1-.47,1.25A1.51,1.51,0,0,1,183.15,278.91Zm-41.4-43a136.11,136.11,0,0,0,7.63,30.56,3.06,3.06,0,0,0,1.55,1.41c7.73,2.37,14.24,4.31,20.9,6,2.55.65,5.14,1,7.88,1.46l1.75.26-3.52-36.19Zm83.63,42.93a1.53,1.53,0,0,1-1-.43,1.51,1.51,0,0,1-.45-1.22l3.81-39.27a1.51,1.51,0,0,1,1.35-1.35l39.28-3.82A1.49,1.49,0,0,1,270,234.4a142.39,142.39,0,0,1-8.2,33.74,4.65,4.65,0,0,1-2.55,2.47,138.86,138.86,0,0,1-33.64,8.19Zm5.18-39.4-3.51,36.17a135.32,135.32,0,0,0,31.07-7.78,1.75,1.75,0,0,0,.82-.73,138.3,138.3,0,0,0,7.8-31.18Zm36.05,28.13a1.49,1.49,0,0,1-1.46-1.83l7.64-33.14a1.49,1.49,0,0,1,1.16-1.13c10.59-2.13,22.6-4.54,33.73-11.06a1.5,1.5,0,0,1,2.2,1.7c-6.94,24.8-25.43,36.82-42.6,45.31A1.56,1.56,0,0,1,266.61,267.55Zm8.88-33.35-6.7,29.07c14.89-7.68,30.21-18.44,37.11-38.48C295.67,230,285.05,232.27,275.49,234.2Zm-51.31.35h-39.8a1.5,1.5,0,0,1-1.5-1.5v-39.8a1.5,1.5,0,0,1,1.5-1.5h39.8a1.5,1.5,0,0,1,1.5,1.5v39.8A1.5,1.5,0,0,1,224.18,234.55Zm-38.3-3h36.8v-36.8h-36.8Zm-6.67,2.69h-.09c-1.17-.07-2.35-.12-3.52-.18-2.56-.12-5.21-.24-7.81-.51-4.17-.44-8.41-.93-12.5-1.4-4.42-.51-9-1-13.5-1.5-2.74-.28-4.07-1.7-4.06-4.34s0-5.29,0-7.94c0-6.18,0-12.56.11-18.84,0-1.42,1.54-3.51,3.06-3.69,10.37-1.26,20.52-2.38,31.27-3.57l6.86-.76a1.56,1.56,0,0,1,1.17.37,1.52,1.52,0,0,1,.5,1.12v39.74a1.5,1.5,0,0,1-.47,1.09A1.48,1.48,0,0,1,179.21,234.24ZM141.44,198.8a2.09,2.09,0,0,0-.59.84c-.09,6.19-.1,12.57-.11,18.73q0,4,0,7.95c0,1,0,1.21,1.36,1.35,4.52.46,9.11,1,13.54,1.5,4.09.47,8.31,1,12.47,1.39,2.52.27,5.12.39,7.64.5l2,.1V194.68l-5.2.57C161.82,196.44,151.73,197.55,141.44,198.8Zm.06-.05Zm88.13,35.37a1.7,1.7,0,0,1-1.21-.54,1.57,1.57,0,0,1-.58-1.19V193.15a1.49,1.49,0,0,1,1.65-1.49l39.86,4a1.5,1.5,0,0,1,1.36,1.49v5.73c0,8.38,0,16.3-.07,24.3a3.79,3.79,0,0,1-2.86,3.24c-11.4,1.18-23,2.29-34.21,3.36l-3.8.36Zm1.21-39.31V231l2.44-.23c11.15-1.06,22.68-2.16,34-3.33a1.79,1.79,0,0,0,.35-.43c.08-7.95.07-15.82.07-24.15v-4.37Zm36.38,32.68Zm.44-.53Zm6.8,2.95a1.5,1.5,0,0,1-.9-.3,1.52,1.52,0,0,1-.6-1.2V198.48a1.48,1.48,0,0,1,.55-1.16,1.51,1.51,0,0,1,1.24-.32c10.36,2,21.08,4.12,30.75,9.45a16.19,16.19,0,0,1,2.48,1.81,6.5,6.5,0,0,1,2.47,5.11A6,6,0,0,1,307.9,218a27.52,27.52,0,0,1-7.59,4.31c-6,2-12.22,3.75-18.22,5.49l-7.2,2.1A1.54,1.54,0,0,1,274.46,229.91ZM276,200.3v26.11l5.29-1.54c6.26-1.81,12.16-3.52,18.13-5.46a24.71,24.71,0,0,0,6.72-3.87,3,3,0,0,0,1.35-2.27,3.56,3.56,0,0,0-1.42-2.73,12.93,12.93,0,0,0-2-1.46C295.33,204.28,285.54,202.18,276,200.3Zm-141.89,29a1.17,1.17,0,0,1-.32,0c-1.1-.24-2.21-.45-3.32-.67a73.37,73.37,0,0,1-7.65-1.77l-1-.29a158.51,158.51,0,0,1-17.18-6c-6.49-2.84-7.34-5.7-6.49-12.33a49.81,49.81,0,0,1,11.39-25.78c7.74-9.47,18-17.11,31.39-23.33a1.5,1.5,0,0,1,2.1,1.66l-1.29,6.34c-1.68,8.23-3.42,16.74-5.25,25.06-.35,1.61-2.45,2.7-3.7,3-2.85.71-5.76,1.33-8.58,1.92l-3.79.82c-1.22.26-1.57.56-1.66.71a1.1,1.1,0,0,0,0,.74c.15.65.2.87,2.22.43,3-.65,6-1.34,9-2l3.77-.86a1.44,1.44,0,0,1,1.26.29,1.48,1.48,0,0,1,.57,1.17v29.46a1.5,1.5,0,0,1-1.5,1.5Zm5.42-66.21c-11.65,5.78-20.7,12.74-27.62,21.21a46.77,46.77,0,0,0-10.74,24.26c-.72,5.56-.39,7,4.71,9.21a157.23,157.23,0,0,0,16.86,5.89l1,.29a73,73,0,0,0,7.34,1.7l1.57.31V200.24l-1.93.44c-3.06.7-6,1.38-9,2-1.35.29-4.91,1.07-5.79-2.69a3.88,3.88,0,0,1,.4-3,5.28,5.28,0,0,1,3.55-2l3.82-.82c2.79-.59,5.67-1.2,8.47-1.9a3.71,3.71,0,0,0,1.53-.85c1.81-8.26,3.54-16.73,5.21-24.92ZM308.72,206.2A1.54,1.54,0,0,1,308,206c-11-6.57-23.21-9-34-11.23a1.49,1.49,0,0,1-1.16-1.13l-7.59-33.22a1.5,1.5,0,0,1,2.24-1.61l4.22,2.53c3.87,2.33,7.66,4.6,11.43,6.89a23.63,23.63,0,0,1,2.24,1.6l.39.3c.86.65,1.27.66,1.37.64a1,1,0,0,0,.54-.44,1.09,1.09,0,0,0,.28-.71,2.08,2.08,0,0,0-1-1c-1.56-1-3.12-2-4.62-3a82,82,0,0,0-11.54-6.72,22.75,22.75,0,0,1-12.38-12.28,85.1,85.1,0,0,0-26.18-32.86,1.51,1.51,0,0,1-.44-1.87,1.48,1.48,0,0,1,1.76-.77,105.11,105.11,0,0,1,52.84,34.61c13.93,16.85,21.73,36.1,23.85,58.83a1.49,1.49,0,0,1-.7,1.4A1.43,1.43,0,0,1,308.72,206.2ZM275.48,192c10,2,21.08,4.36,31.45,9.94-2.44-20.86-9.93-38.65-22.87-54.31a102,102,0,0,0-43.93-31.21,88.82,88.82,0,0,1,21,28.94A19.69,19.69,0,0,0,272,156.16a84.31,84.31,0,0,1,12,7c1.49,1,3,2,4.55,2.93a4.67,4.67,0,0,1,2.32,3,4.25,4.25,0,0,1-3.34,4.68,4.81,4.81,0,0,1-3.61-1.23l-.4-.31a21.72,21.72,0,0,0-2-1.4c-3.77-2.29-7.55-4.56-11.42-6.89l-1.2-.72Zm-135.56,1.52a1.51,1.51,0,0,1-1.1-.48,1.49,1.49,0,0,1-.38-1.28c.21-1.21.4-2.42.58-3.62.41-2.63.82-5.35,1.48-8,1.79-7.17,3.73-14.07,5.75-20.52a7.65,7.65,0,0,1,4.25-4.41,155.32,155.32,0,0,1,15.44-4.7c3.83-.94,7.63-1.65,11.66-2.4,1.75-.32,3.52-.65,5.31-1a1.55,1.55,0,0,1,1.3.37,1.47,1.47,0,0,1,.48,1.25l-3.88,39.58a1.5,1.5,0,0,1-1.34,1.35l-39.4,3.84Zm41.59-43.07-3.36.63c-4,.74-7.75,1.44-11.5,2.36a155.49,155.49,0,0,0-15.14,4.61,4.71,4.71,0,0,0-2.4,2.49c-2,6.39-3.92,13.24-5.7,20.35-.62,2.49-1,5-1.42,7.71l-.27,1.74L178,186.82Zm87,43h-.14l-39.29-3.79a1.5,1.5,0,0,1-1.35-1.35l-3.8-39.26a1.5,1.5,0,0,1,.44-1.22,1.55,1.55,0,0,1,1.23-.41,137.09,137.09,0,0,1,33.75,8.34,5,5,0,0,1,2.6,2.79A140.8,140.8,0,0,1,270,191.82a1.49,1.49,0,0,1-1.49,1.68Zm-37.91-6.67,36.19,3.5a136.92,136.92,0,0,0-7.64-30.67,2.21,2.21,0,0,0-.88-1.06,134.09,134.09,0,0,0-31.18-7.93Zm-6.33,2.72h-40a1.51,1.51,0,0,1-1.11-.49,1.48,1.48,0,0,1-.38-1.16l4-39.93a1.49,1.49,0,0,1,1.49-1.35h32a1.49,1.49,0,0,1,1.49,1.35l4,39.94a1.49,1.49,0,0,1-1.49,1.64Zm-38.3-3h36.64l-3.69-36.93H189.63Zm-82.53-.17a1.56,1.56,0,0,1-.69-.17,1.52,1.52,0,0,1-.77-1.67c6.49-28.6,34.24-64.14,72.9-73.63a1.5,1.5,0,0,1,1.42,2.52c-1.34,1.34-2.75,2.71-4.19,4.1-3.32,3.22-6.75,6.54-9.89,10.12-7,7.91-11.63,17.29-14.92,24.57a7.51,7.51,0,0,1-3.18,3.57c-20.88,10.3-23.47,12.27-39.56,30.09A1.52,1.52,0,0,1,103.41,186.38Zm66.55-71c-32,10.26-55.4,38.76-63.44,63.83,12.78-13.91,17-16.68,36.24-26.14a4.67,4.67,0,0,0,1.78-2.11c3.37-7.48,8.17-17.11,15.4-25.32C163.15,122,166.61,118.66,170,115.41ZM151.1,152.29a1.5,1.5,0,0,1-1.3-2.25c.87-1.51,1.71-3,2.55-4.55,1.84-3.31,3.73-6.73,5.87-9.94,9.05-13.56,18.94-21.86,31.11-26.12a59.74,59.74,0,0,1,10.91-2.32l1.69-.25c3.88-.58,7,1,8.31,4.19,2.25,5.47,5.15,12.7,7.68,20.12a57.23,57.23,0,0,1,1.84,7.85c.22,1.19.44,2.38.7,3.58a1.54,1.54,0,0,1-.3,1.26,1.52,1.52,0,0,1-1.17.55H189.37a1.49,1.49,0,0,1-1.46-1.86c.37-1.45.73-2.9,1.1-4.35,1-4,2.09-8.24,3.05-12.36a5.1,5.1,0,0,0-.1-2.38l-.24-.11a3.48,3.48,0,0,0-1.28,1.43c-1.29,4.76-2.47,9.57-3.62,14.23-.37,1.53-.75,3.05-1.12,4.55a1.49,1.49,0,0,1-1.12,1.1l-33.14,7.6A2,2,0,0,1,151.1,152.29Zm52.38-42.55a7.2,7.2,0,0,0-1.1.09l-1.71.25a57.7,57.7,0,0,0-10.34,2.18c-11.53,4-20.94,12-29.61,25-2.07,3.1-3.94,6.47-5.74,9.73l-.9,1.62L183,142q.45-1.81.9-3.66c1.15-4.67,2.33-9.5,3.63-14.29a6.69,6.69,0,0,1,2.92-3.42,2.52,2.52,0,0,1,2.22-.07,3.22,3.22,0,0,1,2,1.7,8.07,8.07,0,0,1,.27,4.31c-1,4.15-2,8.35-3.06,12.42l-.63,2.47h25.87c-.12-.61-.23-1.23-.35-1.84a53.47,53.47,0,0,0-1.73-7.43c-2.5-7.35-5.39-14.52-7.62-19.95A4,4,0,0,0,203.48,109.74Zm53.68,42.42a1.32,1.32,0,0,1-.34,0l-33-7.5a1.5,1.5,0,0,1-1.14-1.17c-2.3-11.24-4.65-22.76-11.1-33.76a1.5,1.5,0,0,1,.11-1.67,1.48,1.48,0,0,1,1.59-.53c24.71,6.86,36.75,25.33,45.27,42.5a1.5,1.5,0,0,1-1.34,2.17ZM225.38,141.9l29,6.59c-7.71-14.88-18.48-30.19-38.45-37C221.13,121.56,223.32,131.87,225.38,141.9Z"/><path class="cls-2" d="M283,81.59c5.58.76,10.37,1.29,15.12,2.13a4.2,4.2,0,0,0,4.5-1.62c2.86-3.37,5.85-6.64,8.93-9.81.83-.86,2.5-1.94,3.22-1.62A5,5,0,0,1,317,73.92c.94,4.2,1.65,8.46,2.31,12.72a4.6,4.6,0,0,0,3.11,4c4.18,1.69,8.29,3.58,12.35,5.57,1,.47,2.15,1.64,2.17,2.52s-1.08,2.13-2,2.67q-5.85,3.42-11.92,6.46a4.29,4.29,0,0,0-2.74,3.94c-.35,4.61-.95,9.2-1.6,13.78-.14,1-.82,2.45-1.53,2.63a4.07,4.07,0,0,1-3.22-.92c-3.52-3.16-6.8-6.59-10.34-9.71a5.15,5.15,0,0,0-3.71-1.06c-4.66.75-9.26,1.89-13.91,2.69-1.05.18-2.7-.05-3.23-.74s-.37-2.35.06-3.34a101.93,101.93,0,0,1,5.35-11.09c1.58-2.71,1.27-4.81-.35-7.3-2.28-3.53-4.29-7.25-6.29-11C280.23,83.56,281.4,81.61,283,81.59Zm5,5.75c2.16,3.79,3.94,7.12,5.92,10.32a4.61,4.61,0,0,1,.24,5.14c-1.82,3.42-3.39,7-5.25,10.85,4.12-.86,7.83-1.59,11.52-2.42a5.12,5.12,0,0,1,5.49,1.65c2.45,2.7,5.24,5.1,8.32,8.05.48-4.36,1-8,1.23-11.69a5,5,0,0,1,3-4.55c3.4-1.67,6.68-3.58,10.47-5.63-3.68-1.67-6.88-3.27-10.19-4.57a5.67,5.67,0,0,1-4.05-5.16c-.39-3.5-1.25-7-2-11-2.8,3.06-5.34,5.59-7.58,8.37a5.61,5.61,0,0,1-5.93,2.14C295.7,88.28,292.15,87.89,288,87.34Z"/><path class="cls-2" d="M316.54,129.83a5.88,5.88,0,0,1-3.65-1.38c-1.69-1.51-3.34-3.1-4.94-4.64-1.75-1.69-3.55-3.43-5.39-5a3.72,3.72,0,0,0-2.49-.71c-2.47.4-5,.92-7.41,1.42-2.12.44-4.3.89-6.47,1.27-1.26.21-3.64.05-4.68-1.31s-.63-3.69-.13-4.85a105.77,105.77,0,0,1,5.43-11.25c1.2-2,1.12-3.54-.31-5.73-2.3-3.55-4.34-7.33-6.31-11a4.81,4.81,0,0,1-.19-4.76,3.53,3.53,0,0,1,3-1.78h.11l.11,0c1.66.23,3.24.43,4.77.63,3.62.47,7,.91,10.41,1.51a2.73,2.73,0,0,0,3.1-1.11c2.76-3.26,5.78-6.58,9-9.88,0,0,2.83-2.89,4.91-2,1.57.7,2.67,2.71,3,4.29,1,4.35,1.69,8.73,2.32,12.82a3.14,3.14,0,0,0,2.19,2.89c3.85,1.56,7.92,3.39,12.45,5.61,1.13.56,3,2.09,3,3.83s-1.66,3.37-2.75,4c-3.83,2.24-7.86,4.43-12,6.51a2.84,2.84,0,0,0-1.93,2.72c-.36,4.9-1,9.76-1.61,13.87-.12.86-.87,3.41-2.63,3.87A3.69,3.69,0,0,1,316.54,129.83ZM300.4,115a6.67,6.67,0,0,1,4.14,1.47c1.89,1.67,3.72,3.44,5.5,5.15,1.57,1.52,3.2,3.09,4.85,4.57a2.77,2.77,0,0,0,1.69.61,3.54,3.54,0,0,0,.57-1.42c.59-4,1.23-8.85,1.59-13.67a5.75,5.75,0,0,1,3.57-5.17c4.07-2,8.05-4.21,11.83-6.42a3.45,3.45,0,0,0,1.25-1.32,3.45,3.45,0,0,0-1.32-1.23c-4.46-2.18-8.47-4-12.26-5.52a6.06,6.06,0,0,1-4-5.21c-.63-4-1.34-8.36-2.29-12.63a4.43,4.43,0,0,0-1.13-2.09,5.51,5.51,0,0,0-1.72,1.19c-3.16,3.25-6.14,6.52-8.85,9.73a5.67,5.67,0,0,1-5.91,2.12c-3.31-.58-6.69-1-10.28-1.48L283,83.09a.61.61,0,0,0-.39.29,1.89,1.89,0,0,0,.19,1.75c2,3.67,4,7.38,6.24,10.84,2.06,3.17,2.17,5.82.38,8.88a101.59,101.59,0,0,0-5.24,10.87,3.57,3.57,0,0,0-.26,1.87,3.52,3.52,0,0,0,1.78.19c2.12-.36,4.28-.81,6.37-1.24,2.46-.51,5-1,7.55-1.45A5.29,5.29,0,0,1,300.4,115Zm15,9.09-2.2-2.1c-1-.91-1.86-1.76-2.75-2.58-2-1.87-3.92-3.63-5.66-5.55a3.6,3.6,0,0,0-4-1.2c-2.59.59-5.18,1.12-7.93,1.68l-3.61.75-3,.62,1.31-2.73c.56-1.17,1.09-2.31,1.61-3.42,1.22-2.61,2.38-5.07,3.66-7.49a3.13,3.13,0,0,0-.18-3.65c-1.4-2.26-2.71-4.59-4.09-7-.6-1.07-1.21-2.18-1.87-3.32l-1.5-2.64,3,.41,3.67.47c2.63.34,5.12.66,7.58,1.07a4.11,4.11,0,0,0,4.51-1.6c1.58-2,3.31-3.8,5.13-5.74.81-.87,1.65-1.76,2.52-2.71l2-2.21.56,3c.23,1.24.47,2.42.71,3.57.53,2.58,1,5,1.31,7.51a4.23,4.23,0,0,0,3.1,3.93c2.35.92,4.61,2,7,3.1,1.05.49,2.13,1,3.26,1.51L332.34,99l-2.65,1.43-3.31,1.82c-2.47,1.37-4.81,2.66-7.21,3.83a3.5,3.5,0,0,0-2.18,3.32c-.19,2.58-.49,5.18-.81,7.93-.14,1.22-.28,2.48-.43,3.82Zm-13.35-14.59a6.44,6.44,0,0,1,5,2.34c1.65,1.83,3.51,3.55,5.47,5.37l.59.55.09-.85c.32-2.72.61-5.29.8-7.81a6.44,6.44,0,0,1,3.85-5.79c2.34-1.14,4.64-2.41,7.07-3.76l.73-.4-.58-.28c-2.36-1.1-4.58-2.14-6.83-3a7.11,7.11,0,0,1-5-6.39c-.26-2.34-.75-4.72-1.27-7.24l-.15-.72-.53.57c-1.79,1.9-3.47,3.7-5,5.57A7.1,7.1,0,0,1,299,90.35c-2.4-.41-4.86-.72-7.46-1l-.71-.09.4.72c1.36,2.44,2.65,4.74,4,6.94a6.08,6.08,0,0,1,.28,6.63c-1.25,2.36-2.39,4.79-3.59,7.36l-.33.72.67-.14c2.73-.56,5.31-1.09,7.87-1.67A8.67,8.67,0,0,1,302.08,109.53Z"/><path class="cls-1" d="M314.23,306c-1.4,4.53,1.42,7.56,5.92,9.73a17.92,17.92,0,0,1,4.11,2.7,4.55,4.55,0,0,1,1.68,2.89c0,.76-1.23,1.79-2.14,2.18a66.18,66.18,0,0,1-8.39,3,4.65,4.65,0,0,0-3.6,4,79.1,79.1,0,0,1-2.2,8.33c-.34,1-1.32,2.35-2.18,2.5s-2.26-.73-3-1.55c-2-2.32-3.68-4.95-5.76-7.22a5.55,5.55,0,0,0-3.59-1.64c-3.17-.09-6.36.38-9.54.35a4.18,4.18,0,0,1-3.08-1.34c-.44-.62-.05-2.19.46-3,2.06-3.42,5.67-6.56,6.09-10.12s-2.48-7.21-3.73-10.89c-.31-.93-.3-2.56.27-3.06a4.2,4.2,0,0,1,3.32-.67c3.08.72,6.06,1.95,9.16,2.61a5.45,5.45,0,0,0,3.84-.81c2.61-1.82,4.92-4.05,7.48-5.94.81-.6,2.31-1.15,3-.79a4.48,4.48,0,0,1,1.78,2.91A36.64,36.64,0,0,1,314.23,306Zm-22.6,2.27c4.15,6.62,3.51,12.34-2.09,17.87,7.7-2,12.85.53,16.07,7.82,1.25-3.89,1.43-7.59,3.37-9.65s5.71-2.73,8.78-4c-2.71-2-6.16-3.29-7.58-5.79s-.87-6.2-1.28-10.33C304.13,310.76,298.59,311.86,291.63,308.23Z"/><path class="cls-1" d="M307.22,342.87a5.93,5.93,0,0,1-3.9-2.08c-1-1.12-1.86-2.3-2.72-3.44a48.16,48.16,0,0,0-3-3.76,4.06,4.06,0,0,0-2.52-1.15c-1.62-.05-3.22.06-4.92.17-1.5.09-3,.18-4.59.18a5.66,5.66,0,0,1-4.3-2c-.94-1.35-.25-3.59.41-4.68a34.61,34.61,0,0,1,2.51-3.52c1.61-2.09,3.14-4.06,3.37-6s-.83-4-2-6.31a33.94,33.94,0,0,1-1.71-3.92c-.34-1-.63-3.49.69-4.66a5.68,5.68,0,0,1,4.66-1c1.52.35,3,.82,4.44,1.28,1.61.51,3.13,1,4.69,1.33a4,4,0,0,0,2.68-.58c1.37-1,2.64-2,4-3.15,1.11-.93,2.26-1.89,3.45-2.77.73-.54,3-1.75,4.59-.9a5.89,5.89,0,0,1,2.55,4,18.33,18.33,0,0,1,.15,3.9c0,.65,0,1.37,0,2.18a1.62,1.62,0,0,1-.07.44c-.63,2-.78,5.08,5.14,7.94a19.8,19.8,0,0,1,4.46,2.93,5.84,5.84,0,0,1,2.18,4c0,1.63-1.89,3-3.05,3.53a66.86,66.86,0,0,1-8.58,3.1c-1.5.42-2.16,1.17-2.54,2.9a78.77,78.77,0,0,1-2.24,8.49c-.4,1.19-1.66,3.2-3.35,3.5A3.42,3.42,0,0,1,307.22,342.87ZM294.3,329.43h.84a7.08,7.08,0,0,1,4.66,2.13c1.16,1.27,2.19,2.64,3.2,4,.83,1.1,1.68,2.24,2.58,3.28a3.62,3.62,0,0,0,1.57,1,3.31,3.31,0,0,0,1-1.48,76.84,76.84,0,0,0,2.15-8.18,6.23,6.23,0,0,1,4.67-5.15,64.66,64.66,0,0,0,8.2-3,3.36,3.36,0,0,0,1.22-.95,3.89,3.89,0,0,0-1.16-1.62,16.81,16.81,0,0,0-3.77-2.46c-5.83-2.82-8.11-6.62-6.77-11.31,0-.75,0-1.43,0-2.06a15.9,15.9,0,0,0-.1-3.26,3.42,3.42,0,0,0-.92-1.79,3.57,3.57,0,0,0-1.49.6c-1.12.83-2.23,1.76-3.3,2.66-1.34,1.12-2.73,2.28-4.21,3.31a6.93,6.93,0,0,1-5,1.05c-1.7-.37-3.36-.89-5-1.4-1.44-.46-2.81-.89-4.22-1.22a3,3,0,0,0-1.88.26,3.19,3.19,0,0,0,.06,1.52,31.47,31.47,0,0,0,1.57,3.58c1.25,2.59,2.56,5.27,2.23,8s-2.19,5.17-4,7.49a32.46,32.46,0,0,0-2.31,3.22,3.42,3.42,0,0,0-.44,1.5,3.13,3.13,0,0,0,1.78.61c1.43,0,2.93-.08,4.37-.18S292.83,329.43,294.3,329.43Zm-10.5-.16Zm40.68-8.21ZM314.23,306Zm-2.4-7.33Zm-6.22,36.79a1.5,1.5,0,0,1-1.37-.9c-2.94-6.66-7.36-8.81-14.32-7a1.49,1.49,0,0,1-1.69-.7,1.51,1.51,0,0,1,.25-1.81c5.09-5,5.67-10,1.87-16a1.52,1.52,0,0,1,.17-1.81,1.49,1.49,0,0,1,1.8-.31c6.41,3.34,11.15,2.21,15.36-3.68a1.5,1.5,0,0,1,2.71.73c.14,1.38.17,2.68.2,3.93.06,2.37.1,4.42.89,5.81s2.55,2.44,4.41,3.56c.92.55,1.86,1.12,2.75,1.76a1.5,1.5,0,0,1-.29,2.59c-1,.43-2,.78-3.05,1.11-2.1.71-4.09,1.37-5.23,2.58s-1.5,3.06-2,5.32c-.29,1.21-.58,2.46-1,3.76a1.49,1.49,0,0,1-1.35,1Zm-11.4-11.48a12.57,12.57,0,0,1,10.91,6c.61-2.56,1.18-5,2.76-6.67s4.11-2.58,6.47-3.37l0,0,0,0c-2.11-1.27-4.3-2.58-5.47-4.65s-1.23-4.56-1.29-7.22a12.18,12.18,0,0,1-12.8,3.2A13.08,13.08,0,0,1,293.3,324Z"/><path class="cls-2" d="M84.81,120a69.73,69.73,0,0,0,1.35-8.18,7,7,0,0,0-1.38-4.28c-1.41-1.86-3.43-3.26-5-5-.77-.91-1.63-2.46-1.33-3.36s1.91-1.56,3.07-1.88A20.37,20.37,0,0,1,87,96.44c2.95,0,4.72-1.2,5.71-4a37.16,37.16,0,0,1,3-6.07c1.32-2.28,3.49-2.23,4.76.1s2.14,4.92,3.59,7.14a6.89,6.89,0,0,0,3.63,2.6c2.55.7,5.28.74,7.89,1.28s3.17,2.5,1.33,4.49a48.24,48.24,0,0,1-5.07,4.94c-2.05,1.66-2.42,3.56-1.84,6a52.19,52.19,0,0,1,1.13,6.67c.3,2.95-1.29,4-3.93,2.79a62.58,62.58,0,0,1-6.54-3.44,4.53,4.53,0,0,0-5.39.08,59.57,59.57,0,0,1-6.82,3.55C86.38,123.46,84.77,122.27,84.81,120Zm6-3.78c5-4.7,9.75-4.38,14.79-.56-2.72-6.16-.41-10.41,4.41-14.13-6.64.6-10-2.76-12.08-8.59-1.38,6.62-5.59,8.73-12,8.35,2.29,2.53,4.74,4.16,5.46,6.35S91.1,112.64,90.76,116.24Z"/><path class="cls-2" d="M109.16,124.35a6,6,0,0,1-2.58-.67,63.07,63.07,0,0,1-6.69-3.52,3.08,3.08,0,0,0-3.8.08,60.14,60.14,0,0,1-7,3.65,4.12,4.12,0,0,1-4-.14A4.24,4.24,0,0,1,83.31,120l0-.24c.14-.82.31-1.64.48-2.46a39.74,39.74,0,0,0,.85-5.55,5.54,5.54,0,0,0-1.07-3.29,21.31,21.31,0,0,0-2.49-2.56,27.54,27.54,0,0,1-2.41-2.42c-.24-.28-2.29-2.77-1.62-4.8.52-1.56,2.51-2.42,4.1-2.86A22.07,22.07,0,0,1,87,94.94c2.36,0,3.53-.83,4.3-3a37.64,37.64,0,0,1,3.1-6.33,4.32,4.32,0,0,1,3.71-2.43,4.38,4.38,0,0,1,3.67,2.57c.53,1,1,2,1.45,3a31.58,31.58,0,0,0,2.07,4,5.38,5.38,0,0,0,2.77,2,29.28,29.28,0,0,0,4.24.72c1.17.15,2.37.3,3.56.55,2.42.5,3.2,1.89,3.45,2.67s.42,2.42-1.32,4.3a50.82,50.82,0,0,1-5.23,5.09c-1.46,1.18-1.82,2.39-1.32,4.47a52.58,52.58,0,0,1,1.16,6.86c.26,2.54-.66,3.77-1.48,4.35A3.45,3.45,0,0,1,109.16,124.35Zm-22.85-4.19a1.33,1.33,0,0,0,.4,1.08,1.29,1.29,0,0,0,1.16-.09,58.7,58.7,0,0,0,6.64-3.46,6,6,0,0,1,7-.06,60.41,60.41,0,0,0,6.38,3.34c.88.42,1.42.42,1.57.31s.33-.61.23-1.58a51.93,51.93,0,0,0-1.1-6.48c-.76-3.2,0-5.58,2.36-7.5a48.69,48.69,0,0,0,4.91-4.79c.56-.61.74-1.11.66-1.35s-.46-.49-1.2-.65c-1.07-.22-2.16-.36-3.31-.5a32.17,32.17,0,0,1-4.67-.81,8.33,8.33,0,0,1-4.49-3.23A33,33,0,0,1,100.54,90c-.45-1-.87-1.92-1.36-2.82-.4-.73-.82-1-1.08-1h0c-.32,0-.73.36-1.07.94a34.83,34.83,0,0,0-2.86,5.81,6.89,6.89,0,0,1-7.13,5,18.93,18.93,0,0,0-5.06.77,5.62,5.62,0,0,0-2,.93,4.71,4.71,0,0,0,1,1.9,23.09,23.09,0,0,0,2.16,2.15,24.22,24.22,0,0,1,2.84,3,8.45,8.45,0,0,1,1.68,5.27,43.3,43.3,0,0,1-.91,6C86.59,118.65,86.44,119.4,86.31,120.16Zm23,.23-4.62-3.51c-4.78-3.64-8.63-3.5-12.86.45L88.88,120l.38-4c.12-1.23.31-2.37.48-3.38.32-1.92.58-3.45.21-4.58s-1.53-2.23-2.87-3.51c-.7-.68-1.5-1.45-2.28-2.31l-2.45-2.72,3.65.22c6.18.36,9.29-1.77,10.41-7.15l1.1-5.31,1.78,5.12c2,5.8,5.17,8.07,10.54,7.58l5.13-.46-4.08,3.15c-4.92,3.79-6.1,7.48-4,12.34ZM89.45,102.73a11.61,11.61,0,0,1,3.35,4.47c.57,1.73.31,3.55,0,5.63a10.45,10.45,0,0,1,10.25-.45,11.1,11.1,0,0,1,3.16-9.43,11,11,0,0,1-8.1-5.89C96.4,100.38,93.55,102.25,89.45,102.73Z"/><path class="cls-1" d="M86.82,285.39a45.23,45.23,0,0,0-6.53-1.23,7.43,7.43,0,0,0-4.3,1.26c-1.82,1.28-3.26,3.12-4.95,4.61-2.21,2-4.07,1.35-4.61-1.52a32.36,32.36,0,0,1-.72-6.11c0-2.68-1.3-4.06-3.6-5a26.24,26.24,0,0,1-4.88-2.6,3.92,3.92,0,0,1-1.79-2.51,3.69,3.69,0,0,1,1.84-2.44c1.94-1.14,4.2-1.76,6-3A7.48,7.48,0,0,0,66,263.27a62.84,62.84,0,0,0,1.3-6.64c.6-2.71,3.22-3.64,4.67-1.37,4,6.21,9.1,7.69,15.94,5.62,2.36-.71,3.79,1.61,2.64,3.95a37,37,0,0,1-3.26,5.58c-1.42,1.94-1.25,3.64-.09,5.6A45.58,45.58,0,0,1,90,281.52C91,284.07,89.94,285.57,86.82,285.39ZM63.41,272.45c5.56,1.55,7.65,5.19,7.64,10.78,3.12-5.21,7.32-5.43,12.35-3.72-3.38-4.38-3.23-8.49.2-12.87-5.23,1.52-9.19.37-12.09-4.51C71.45,267.82,68.91,271.16,63.41,272.45Z"/><path class="cls-1" d="M68.68,292.67a3.5,3.5,0,0,1-1.09-.18c-.94-.33-2.17-1.23-2.63-3.7a32.31,32.31,0,0,1-.75-6.4c0-1.84-.68-2.79-2.68-3.62A28.65,28.65,0,0,1,56.38,276c-.91-.62-2.45-2.12-2.44-3.75s1.55-3.12,2.58-3.73a28.49,28.49,0,0,1,2.9-1.4,18.34,18.34,0,0,0,3.07-1.55,6,6,0,0,0,2.1-2.79,21.94,21.94,0,0,0,.79-3.81c.13-.87.27-1.78.47-2.67a4.65,4.65,0,0,1,3.48-3.78,3.81,3.81,0,0,1,3.91,1.92c3.44,5.4,7.84,6.93,14.24,5a3.72,3.72,0,0,1,4,1.06,4.58,4.58,0,0,1,.38,5,38.5,38.5,0,0,1-3.4,5.8c-1,1.32-1,2.35,0,3.95a47.85,47.85,0,0,1,2.83,5.69c.92,2.17.46,3.56-.09,4.34s-1.83,1.77-4.51,1.62l-.21,0c-.55-.11-1.14-.25-1.75-.4a26.07,26.07,0,0,0-4.56-.8,5.79,5.79,0,0,0-3.35,1A20.61,20.61,0,0,0,74,289.24c-.63.64-1.28,1.3-2,1.91A5.1,5.1,0,0,1,68.68,292.67Zm1.26-37.19h-.08c-.38.07-.88.55-1.08,1.46s-.3,1.61-.43,2.47a25.73,25.73,0,0,1-.92,4.33,8.89,8.89,0,0,1-3.26,4.32,21.61,21.61,0,0,1-3.55,1.81A24.75,24.75,0,0,0,58,271.12a2.81,2.81,0,0,0-1.1,1.21,3.78,3.78,0,0,0,1.14,1.21A24.89,24.89,0,0,0,62.69,276c2,.82,4.56,2.37,4.52,6.41a31.48,31.48,0,0,0,.69,5.83c.19,1,.52,1.36.67,1.41s.67,0,1.48-.75c.61-.54,1.2-1.13,1.81-1.76a24.34,24.34,0,0,1,3.27-2.95,8.91,8.91,0,0,1,5.24-1.52,28.55,28.55,0,0,1,5.09.87c.54.13,1.06.26,1.55.36,1.16.06,1.66-.2,1.77-.36s.15-.57-.22-1.44a44.14,44.14,0,0,0-2.64-5.33,6,6,0,0,1,.17-7.25,34.77,34.77,0,0,0,3.12-5.36,1.63,1.63,0,0,0,0-1.71.81.81,0,0,0-.9-.13c-7.7,2.33-13.47.28-17.63-6.25C70.57,255.84,70.29,255.48,69.94,255.48Zm1.11,29.25a1.75,1.75,0,0,1-.4-.05,1.51,1.51,0,0,1-1.1-1.45c0-5.26-2-8.05-6.54-9.33a1.5,1.5,0,0,1,.06-2.91c4.75-1.11,6.89-3.85,6.94-8.87a1.5,1.5,0,0,1,2.79-.75c2.44,4.09,5.54,5.24,10.38,3.83a1.49,1.49,0,0,1,1.66.59,1.52,1.52,0,0,1-.06,1.77c-3,3.88-3.09,7.28-.2,11a1.5,1.5,0,0,1-1.67,2.34c-5.22-1.78-8.19-.91-10.58,3.07A1.48,1.48,0,0,1,71.05,284.73Zm-3.59-12.17a10.24,10.24,0,0,1,4.72,6.89,9.52,9.52,0,0,1,8.09-2.26,9.81,9.81,0,0,1,.24-8.46,9.89,9.89,0,0,1-8-2.8A9.9,9.9,0,0,1,67.46,272.56Z"/><path class="cls-1" d="M316.14,140.75c5.56,3.06,9.64-.22,13.43-5,1.61-2,3.81-1.13,4.42,1.5a2.53,2.53,0,0,1,.06.61c-.06,5.68,2.47,9.34,8.1,10.89a3.86,3.86,0,0,1,2.41,2.64c0,.93-1.41,1.91-2.2,2.87a.52.52,0,0,1-.28.13c-5.43,1.52-7.52,5.26-7.43,10.7,0,1.12-.84,3-1.59,3.21a4.26,4.26,0,0,1-3.59-1.36c-3.35-4.66-7.54-5.57-12.77-3.78-1,.35-2.92.07-3.51-.65a3.72,3.72,0,0,1,.14-3.54c3.61-4.8,3-9.16-.41-13.82C311.05,142.55,312.29,140.65,316.14,140.75Zm20.48,10.72c-4.78-.9-6.68-3.94-6.92-8.58-2.62,4.14-6.05,4.86-10.35,3.54,2.85,3.64,3,7.19.34,11,4.39-1.6,7.74-.68,10.43,3.12C330.07,155.91,332.15,153,336.62,151.47Z"/><path class="cls-1" d="M332.58,169.81a5.79,5.79,0,0,1-4.33-2c-2.8-3.89-6.21-4.89-11.07-3.23-1.38.47-4,.27-5.15-1.12s-.85-4.13.1-5.39c3-3.95,2.85-7.55-.42-12-1.61-2.2-1.18-3.8-.78-4.56.55-1.05,1.89-2.24,5.24-2.19a1.51,1.51,0,0,1,.69.18c3.95,2.18,7.19.88,11.53-4.64a3.84,3.84,0,0,1,3.85-1.61,4.57,4.57,0,0,1,3.21,3.7,4.13,4.13,0,0,1,.1,1c-.06,5.1,2.17,8.09,7,9.42,1.54.43,3.45,2.32,3.52,4,.05,1.32-.95,2.29-1.82,3.14a8.49,8.49,0,0,0-.73.75,2,2,0,0,1-1,.62c-4.47,1.24-6.43,4.09-6.34,9.23,0,1.38-.94,4.29-2.77,4.69A3.45,3.45,0,0,1,332.58,169.81Zm-11.25-9c3.74,0,6.83,1.74,9.35,5.25a3.08,3.08,0,0,0,1.86.79,3.85,3.85,0,0,0,.61-1.73c-.11-6.38,2.69-10.45,8.3-12.1.23-.25.46-.48.7-.7a9.34,9.34,0,0,0,.88-.95,3,3,0,0,0-1.28-1.17c-6.18-1.7-9.27-5.86-9.2-12.36a.94.94,0,0,0,0-.25c-.21-.9-.63-1.38-.94-1.45s-.54.15-.84.54c-3.48,4.42-8.33,9-15,5.59-1.53,0-2.09.42-2.17.59s0,.65.54,1.4c4.08,5.59,4.2,10.56.4,15.62a2.78,2.78,0,0,0-.16,1.68,3.13,3.13,0,0,0,1.85.18A15.88,15.88,0,0,1,321.33,160.78Zm19.88-7.52h0Zm1.87-2Zm-13,10.85a1.5,1.5,0,0,1-1.23-.64c-2.26-3.2-4.86-4-8.69-2.57a1.5,1.5,0,0,1-1.74-2.27c2.27-3.25,2.18-6.1-.29-9.27a1.49,1.49,0,0,1-.06-1.77,1.51,1.51,0,0,1,1.68-.59c4,1.23,6.57.36,8.64-2.9a1.5,1.5,0,0,1,2.76.72c.23,4.32,1.94,6.47,5.71,7.19a1.5,1.5,0,0,1,.21,2.89c-3.89,1.35-5.53,3.65-5.49,7.69a1.53,1.53,0,0,1-1,1.45A1.83,1.83,0,0,1,330.12,162.1Zm-6.59-6.88a8.49,8.49,0,0,1,5.47,1.95,9.2,9.2,0,0,1,3.79-5.47,8.56,8.56,0,0,1-4.06-5.34,8.6,8.6,0,0,1-6.4,2.15,9.09,9.09,0,0,1,.21,6.76C322.87,155.24,323.2,155.22,323.53,155.22Z"/><path class="cls-2" d="M68,153.06c1,.36,1.63.53,2.2.76,4.08,1.68,8.14,3.39,12.23,5.06,1.62.66,2.93,1.85,1.94,3.44-.53.86-2.7,1.46-3.75,1.1-4.34-1.53-8.59-3.37-12.77-5.33a3.74,3.74,0,0,1-1.68-2.8C66.17,154.53,67.41,153.74,68,153.06Z"/><path class="cls-2" d="M81.39,165a3.73,3.73,0,0,1-1.25-.19,131.63,131.63,0,0,1-12.91-5.39,5.13,5.13,0,0,1-2.55-4.12,3.8,3.8,0,0,1,1.67-2.74,6.56,6.56,0,0,0,.53-.51l.67-.75.94.32c.36.13.66.22.93.31.55.18,1,.32,1.36.48l4.81,2L83,157.49a4.92,4.92,0,0,1,3.08,2.8,3.29,3.29,0,0,1-.43,2.82C84.91,164.31,83,165,81.39,165ZM67.7,155.44a2.54,2.54,0,0,0,.8,1.29A131.82,131.82,0,0,0,81.13,162a3.19,3.19,0,0,0,2-.52.44.44,0,0,0,.08-.26c-.06-.19-.47-.6-1.35-1q-3.72-1.51-7.43-3.06l-4.8-2c-.34-.14-.69-.25-1.15-.41l-.09,0-.05,0A7.72,7.72,0,0,0,67.7,155.44Z"/><path class="cls-2" d="M154.19,330.73c.78,1.61,2.09,3,1.79,3.89-1.71,4.82-3.71,9.55-5.87,14.19a2.34,2.34,0,0,1-4.31-1.76c1.77-4.8,3.8-9.5,5.85-14.19C151.92,332.22,152.81,331.85,154.19,330.73Z"/><path class="cls-2" d="M147.63,351.49a2.73,2.73,0,0,1-1-.19c-1.5-.61-2.73-3.28-2.18-4.76,1.78-4.86,3.8-9.53,5.87-14.28a4.51,4.51,0,0,1,1.73-1.77c.35-.24.76-.54,1.24-.93l1.47-1.2.83,1.71a15.89,15.89,0,0,0,.82,1.43c.75,1.22,1.47,2.38,1,3.62-1.59,4.49-3.53,9.17-5.92,14.32A4.57,4.57,0,0,1,147.63,351.49Zm.2-2.9Zm-.57-1.14a2.65,2.65,0,0,0,.47,1,2.75,2.75,0,0,0,1.07-.41c2.3-4.95,4.16-9.45,5.7-13.76a10.5,10.5,0,0,0-.7-1.24l-.07-.12a5.11,5.11,0,0,0-.74.57C151,338.13,149,342.71,147.26,347.45Zm7.26-13.05Z"/><path class="cls-2" d="M252.14,92.08c2.23-5.29,4.18-10.14,6.38-14.87a2.94,2.94,0,0,1,2.76-1c.81.47,1.77,2.11,1.5,2.83-1.76,4.8-3.74,9.54-5.9,14.17-.34.72-2.08,1.24-3,1.06C253.13,94.15,252.64,92.77,252.14,92.08Z"/><path class="cls-2" d="M254.26,95.83a3.69,3.69,0,0,1-.69-.06c-1.2-.24-1.81-1.34-2.3-2.23a6.14,6.14,0,0,0-.35-.59l-.48-.68.32-.77c.55-1.3,1.08-2.58,1.6-3.83,1.61-3.85,3.12-7.5,4.79-11.09a3.88,3.88,0,0,1,2.34-1.72,3.3,3.3,0,0,1,2.54.07c1.25.73,2.74,3,2.16,4.65-1.76,4.79-3.76,9.6-5.95,14.28C257.62,95.18,255.67,95.83,254.26,95.83Zm.17-2.88Zm-.61-1,.08.14a7.43,7.43,0,0,0,.44.73,2.82,2.82,0,0,0,1.24-.36c2.1-4.51,4-9.14,5.73-13.76a3,3,0,0,0-.64-1.06,2.76,2.76,0,0,0-.86.34c-1.62,3.49-3.11,7.06-4.68,10.84C254.7,89.85,254.27,90.9,253.82,92Z"/><path class="cls-2" d="M156.45,92.23c-.6.74-1.1,1.94-1.81,2.09-.89.19-2.58-.22-2.86-.85q-3.3-7.26-6-14.75c-.23-.62.77-2.12,1.55-2.52a2.73,2.73,0,0,1,2.59.8C152.15,81.91,154.2,86.93,156.45,92.23Z"/><path class="cls-2" d="M154.14,95.86c-1.31,0-3.15-.48-3.73-1.77-2.2-4.85-4.24-9.85-6.08-14.85-.61-1.65,1.16-3.8,2.28-4.38a3.76,3.76,0,0,1,2.71,0,3.2,3.2,0,0,1,1.92,1.48c1.75,3.79,3.34,7.58,5,11.59q.76,1.83,1.56,3.69l.35.83-.56.7a5.14,5.14,0,0,0-.44.64,3.78,3.78,0,0,1-2.23,2A3.94,3.94,0,0,1,154.14,95.86Zm-1.09-3.22a2.46,2.46,0,0,0,1.13.23,5.71,5.71,0,0,0,.47-.68l.09-.14c-.41-1-.83-2-1.23-2.94-1.65-3.91-3.21-7.61-4.9-11.28a2.35,2.35,0,0,0-.74-.22,3,3,0,0,0-.63.86C149,83.24,151,88,153.05,92.64Zm-5.29-15Z"/><path class="cls-2" d="M343.56,269.06c-1.95.64-3.41,1.68-4.39,1.33-4.72-1.66-9.37-3.6-13.92-5.7a3.22,3.22,0,0,1-1.06-3,3.17,3.17,0,0,1,2.82-1.35c4.71,1.72,9.34,3.68,13.93,5.71C341.73,266.41,342.21,267.47,343.56,269.06Z"/><path class="cls-2" d="M339.59,272a2.63,2.63,0,0,1-.91-.15c-4.48-1.58-9.08-3.46-14.06-5.76-1.52-.7-2.37-3.47-1.83-4.88a4.47,4.47,0,0,1,4.74-2.23c5.17,1.89,10.21,4.07,14,5.75a5.28,5.28,0,0,1,2,1.95c.31.41.66.89,1.13,1.44l1.45,1.71-2.12.69c-.61.2-1.17.45-1.72.68A7.07,7.07,0,0,1,339.59,272ZM326,263.38c4.85,2.23,9.32,4.07,13.67,5.6a9.86,9.86,0,0,0,1.44-.57h0a5.69,5.69,0,0,0-.81-1c-3.73-1.65-8.65-3.78-13.7-5.62a2.68,2.68,0,0,0-1,.49A3.12,3.12,0,0,0,326,263.38Zm0,.05Zm-.52-1.05Z"/><path class="cls-2" d="M263.29,347.86c-.66.78-1.18,2-1.9,2.1-.9.17-2.55-.26-2.85-.91q-3.26-7.11-6-14.46c-.25-.69.55-2.2,1.29-2.69a2.77,2.77,0,0,1,2.65.53C258.85,337.42,261,342.51,263.29,347.86Z"/><path class="cls-2" d="M261,351.49c-1.3,0-3.2-.5-3.8-1.81-2.17-4.75-4.2-9.65-6-14.57-.57-1.56.75-3.72,1.88-4.46a4,4,0,0,1,3-.19,2.73,2.73,0,0,1,1.86,1.33c1.82,3.89,3.49,7.78,5.26,11.89.5,1.18,1,2.38,1.54,3.58l.37.86-.6.71a4.91,4.91,0,0,0-.49.68,3.89,3.89,0,0,1-2.28,1.93A4.65,4.65,0,0,1,261,351.49Zm-.09-2.92Zm-1.07-.33a2.94,2.94,0,0,0,1.14.26,5.72,5.72,0,0,0,.5-.68l.11-.16-1.2-2.8c-1.71-4-3.33-7.75-5.08-11.49a2.93,2.93,0,0,0-.71-.12,2.79,2.79,0,0,0-.55,1C255.79,339,257.74,343.67,259.82,348.24ZM254,334.3Zm.44-1Z"/><path class="cls-2" d="M260.2,347.86a2.85,2.85,0,0,0,.54.13l.26-.38c-.36-.86-.73-1.71-1.09-2.55-1.68-3.9-3.26-7.6-5-11.26l-.14,0a3.89,3.89,0,0,0-.24.44C256.28,338.82,258.17,343.4,260.2,347.86Zm-5.67-14.1Z"/><path class="cls-2" d="M261.42,349.59l-.88-.12a4.47,4.47,0,0,1-.84-.19l-.61-.22-.26-.58c-2-4.49-3.95-9.11-5.67-13.74l-.2-.54.21-.54a3.64,3.64,0,0,1,.39-.72l.52-.79.94.14.24,0,.72.16.32.67c1.73,3.71,3.31,7.4,5,11.31l1.42,3.3-.47.68c-.09.14-.2.3-.3.43Z"/><path class="cls-2" d="M100.09,318.64c-.59-.44-1.59-.81-1.76-1.41a3.46,3.46,0,0,1,.22-2.82c3.51-3.73,7.11-7.38,10.88-10.84.56-.51,2.43-.24,3.19.34a3,3,0,0,1,.11,2.91c-3.56,3.82-7.31,7.46-11,11.12A5.55,5.55,0,0,1,100.09,318.64Z"/><path class="cls-2" d="M99.89,320.36l-.7-.52c-.14-.1-.31-.2-.48-.3a3.49,3.49,0,0,1-1.82-1.88c-.29-1-.53-3.1.57-4.27,3.92-4.19,7.51-7.76,11-10.93,1.25-1.15,3.92-.65,5.11.26a3.17,3.17,0,0,1,1,2.28,4,4,0,0,1-.71,2.84c-3.18,3.4-6.54,6.7-9.8,9.9L102.74,319a3.76,3.76,0,0,1-1.5.81l-.56.2Zm-.17-3.72.51.32,0,0h0l.43-.16,1.23-1.22c3.2-3.14,6.5-6.38,9.59-9.69a2.77,2.77,0,0,0,0-.91,3.37,3.37,0,0,0-1.21-.2c-3.34,3.07-6.81,6.53-10.61,10.58A3,3,0,0,0,99.72,316.64Zm11.75-11.81Z"/></svg>