<svg id="Слой_1" data-name="Слой 1" xmlns="http://www.w3.org/2000/svg" viewBox="0 0 400 400"><defs><style>.cls-1{fill:#282f39;}.cls-2{fill:#4146a9;}</style></defs><title>ic</title><path class="cls-1" d="M349.87,162.5c0-9.49-.16-9.59-9.68-9.59H96.57c0-.33-.09-.66-.13-1,3.74-1,7.45-2.18,11.23-3.06C136.4,142.2,314.73,101.48,327.1,99c13.48-2.71,15.85-5.38,12.58-17.64-5.21-19.52-19.89-29.62-40-27.64C283,55.34,267,60.51,250.85,64.15c-14.8,3.33-29.7,7.13-44.51,10.68-23.86,5.73-47.7,11.64-71.68,16.92C117,95.64,99.41,99.94,81.71,103.69c-19.82,4.2-33.25,19.61-31.57,39.44.72,8.39,2.84,16.54,2.79,25.14-.3,46.39-.06,92.79-.18,139.18-.07,25,19.22,39.25,39.1,39.06q110-1,220,0c21.7.23,38.31-17.85,38.15-38.16C349.61,259.76,349.88,211.13,349.87,162.5Zm-40.9.33c6.3-.14,22.26-.43,28.36-.16a2.48,2.48,0,0,1,2.37,2.43c.11,5.27.36,18.1.36,23.08,0,5.9-.05,5.48-15.26,5.45a2.77,2.77,0,0,1-2.39-1.36c-4.41-7.5-11.91-21.56-14.83-27.08A1.6,1.6,0,0,1,309,162.83Zm-29.59.07c12-.11,14.33-1.32,18.84,6.67s14.82,23.18,15,23.56c-16.22.5-15,1-22.82-11.66C287.51,176.75,277.29,162.92,279.38,162.9ZM215.54,162c15.66.08,31.32,0,47,0,1.7,0,3.52-.28,4.7,1.49,6.29,9.5,12.6,19,19.74,29.72-19.17,0-36.71,0-54.25,0-1.76,0-2.28-.94-3.17-2.32q-8-12.37-16.48-24.43C210.51,162.94,211.56,162,215.54,162Zm-27-.06c6.74-.38,11.07.94,15.45,7.66,5.47,8.41,9.83,14.94,15.11,22.69-17.81.3-14.43,2.12-21-8.09-3.83-6-7.85-11.86-12-17.64C183.67,163.15,184.37,162.22,188.51,162Zm-67.74.06c15.91.09,31.82.05,47.73,0,2.08,0,3.65.33,5,2.38,6,9.21,12.16,18.28,19.26,28.89-19,0-36.07,0-53.16,0-2,0-3.19-.46-4.51-2.59-5.19-8.33-11-16.29-16.52-24.4C116.62,163.56,116.79,162,120.77,162Zm-12.24,5c3.59,5.72,10.17,16.15,14.33,22.46a1.77,1.77,0,0,1-1.45,2.74l-8.88.18a8.39,8.39,0,0,1-7.45-4.22L92,165.3A1.55,1.55,0,0,1,93.34,163h7.82A8.69,8.69,0,0,1,108.53,167ZM294.73,63.61A85.75,85.75,0,0,1,304,62.7c12.64.12,21.09,5.74,25.2,16.06,1.12,2.81,4.12,6.71.52,8.39-4.3,2-9.74,5.54-14.49,1.59-7.58-6.3-14.52-13.37-21.76-20.09C290.7,66.11,291.37,64.26,294.73,63.61ZM287.93,76c5.26,6,11.45,11.08,17.36,16.7-12,6.37-19.27,1.08-26.11-6.71-4.42-5-9.67-9.36-14.5-14C274.57,65.46,281.41,68.64,287.93,76Zm-41.39-.92c3.74-.92,7-1,9.58,1.85,6.91,7.74,13.59,15.7,19.82,22.94-8.95,3.28-32.52,7.61-36.79,8.6-12.07,2.79-18.42,1.31-25.4-6.89-4.55-5.35-9.6-10.27-14.42-15.36C214.93,82.59,230.78,79,246.54,75.1ZM194.36,96.26c6.06,5.8,12.29,11.41,18.8,17.43-10.4,5.45-13.78,5.14-21-1.69-6.53-6.16-13-12.38-19.44-18.54C183.18,87.9,186.08,88.33,194.36,96.26ZM143.64,99.2c19.46-4.23,21.34-1.73,28,6.19,4.53,5.37,9.54,10.32,14.52,15.66-15.84,3.75-31.83,7.58-47.84,11.3-2.3.53-4.78,1.5-7-.61-7.93-7.56-15.9-15.07-24.49-23.2C125.27,103.61,131.61,101.82,143.64,99.2Zm-61,14c12-4.6,14-1.25,16.92,1.47,7.24,6.89,14.5,13.77,21.91,20.8-15.93,5-17.38,3.53-24.07-4.67-4-4.86-9.07-8.85-13.81-13C81.9,116.28,80,114.19,82.6,113.18ZM59.67,145.85c0-12.81-1-39.93,20-18.94a155.76,155.76,0,0,0,12.78,12c3.51,2.8,2.23,3.9-.93,4.56C61.86,149.71,59.67,150.87,59.67,145.85Zm2.65,20.91c-.09-3.48,1-4.57,4.58-4.82,7.17-.51,12.4.66,16.08,8.09,3.85,7.77,9.58,14.62,15.46,23.3-11.93,0-21.86-.09-31.78,0-3.17.05-4.41-.95-4.33-4.24C62.51,181.68,62.53,174.21,62.32,166.76ZM342.1,215.69s-.31,96.55-3.91,104.79c-4.71,10.77-13,16.43-24.19,16.47q-112.59.36-225.2.08c-13,0-24.38-9.81-25.53-22.88-1-11.14-.69-22.4-.73-33.62-.09-23.69.12-47.38-.14-71.07-.06-5.24.84-7.14,6.75-7.12q116.72.43,233.43.2c3.88,0,24.24,0,27.63.06C340.58,202.76,342.1,215.69,342.1,215.69Z"/><path class="cls-2" d="M169.49,274.29c0-7.72-.17-15.44,0-23.15.35-13.68,9.88-19.44,22.11-13.27,15.32,7.72,30.59,15.55,45.71,23.66,4.67,2.5,8,6.68,8.18,12.37.17,6.05-3.25,10.48-8.18,13.13C222,295.26,206.52,303.18,191,311c-11.33,5.72-20.92,0-21.43-12.84C169.23,290.23,169.49,282.25,169.49,274.29Zm9.64-.26c0,7.72-.19,15.44.06,23.14.22,6.57,2.63,8.07,8.48,5.07,14.92-7.66,29.73-15.54,44.51-23.46,4.62-2.48,4.88-6.48.47-8.85q-22.47-12.09-45.19-23.74c-5.69-2.91-8.08-1.27-8.28,5.45C179,259.1,179.13,266.57,179.13,274Z"/></svg>