<svg id="Слой_1" data-name="Слой 1" xmlns="http://www.w3.org/2000/svg" viewBox="0 0 400 400"><defs><style>.cls-1{fill:#282f39;}.cls-2{fill:#e33d22;}.cls-3{fill:#4146a9;}</style></defs><title>ic</title><path class="cls-1" d="M194.15,84a5.06,5.06,0,0,1,3.8,2.29,2.65,2.65,0,0,1-.65,3.37c-5,4.9-10,9.81-15,14.63-1.09,1-2.8,1.57-3.79.08-.81-1.23-2-2.9-.47-4.47q7.36-7.64,14.81-15.18A4.56,4.56,0,0,1,194.15,84Z"/><path class="cls-1" d="M100.36,101.19a1.73,1.73,0,0,1-1.09,2,4.23,4.23,0,0,1-4.67-.61C90.34,98.46,86.14,94.31,82.11,90c-1.29-1.37-1.85-3.55-.29-5.06s3.32-.46,4.72,1c4,4.08,8.15,8.1,12.17,12.2C99.53,98.94,100.73,99.68,100.36,101.19Z"/><path class="cls-1" d="M137.58,93.56c0-3.35-.06-6.69,0-10,0-1.4-.07-3,2.15-3.1,2-.07,3.34.77,3.36,2.77.07,7.1.06,14.2-.09,21.3,0,1.55-1.11,2.52-3,2.53-2.08,0-2.41-1.27-2.43-2.82,0-3.55,0-7.1,0-10.65Z"/><path class="cls-1" d="M194.45,162.39c16.07,11.7,26,27.79,30.81,46.61,6.15,24.21,2.93,47.6-10.94,68.77C196.07,305.63,170,319.49,136.7,318.3c-30.92-1.1-54.6-15.66-71.11-41.63a81.19,81.19,0,0,1-13-48c1.58-34.32,18.14-59.44,48.06-76,2.7-1.5,8.75-4.17,11.62-2.94l1-.32c.62,3.93-7.08,7.29-9.51,8.55-20.92,10.83-34.58,27.6-41.7,50-10.22,32.15,3.1,70.28,31.72,90.19,40.52,28.18,98.31,13.58,119.86-30.84,16.43-33.87,9.67-72.84-18.62-97.08-24.76-21.21-23.71-18-19.81-21.73C181.79,152.91,190.17,158.84,194.45,162.39Z"/><path class="cls-1" d="M180.54,135.17c-6.22,0-11.69.06-17.16,0-2.13,0-3,1.37-3.56,2.93-3.4,8.91-8.9,24.91-8.9,24.91l10.83-9.89,3.62,6.51s-16.12,16.7-20.84,21.77c-2.21,2.51-2.8,2.6-5.72,0-7.29-6.62-14-13.77-21.23-20.43-2.84-2.62-4.23-7.05-8.91-7.48l.13.13c-.61-5.47-5.68-7.6-8.8-11-9.54-10.33-9.8-10.08-.18-20.07a24.14,24.14,0,0,0,2.85-3.23c7.27-11.13,17.54-14.15,30.4-12.82,9.93,1,20.05.32,30.09.13,3.16-.06,5.61.65,7.76,3,6,6.6,12.06,13.18,18.29,19.57,2.34,2.41,2.63,3.8,0,6.4-8.75,8.53-23.8,24-23.8,24l-3.62-6.51m-19.9,17s7.08-20.49,11-30.37c1.58-4,.55-4.66-3.15-4.55-5.6.17-11.22.22-16.83,0-3.9-.15-4.1,1.42-3,4.52C132,145.47,141.85,170.06,141.85,170.06ZM131.36,163c-2-8.08-5.62-17.16-9.37-26.19-.69-1.67-2.17-1.63-3.68-1.62-5.09,0-10.19,0-17.15,0C112.27,145.43,122.13,154.5,131.36,163Zm20.75-33.51-11.05-13-9.7,13.06Zm-50.47-.22h16.08l-4.47-12.83Zm79.57.23-13.53-12.8-6,12.8Zm-64-17,7.57,12.56,9.64-12.56Zm47.16-.11-15.78.11,8.87,12.8Z"/><path class="cls-1" d="M206,235.48c-.13-24.92-9-42.22-25.13-56-1.09-.94-20-14.88-20.89-16-1.34-1.62-.66-1.78.19-3,1-1.49,20.09,11.69,21.09,12.33,23.25,14.82,35.47,47.06,29.11,74-5.5,23.32-18.58,40.39-39.87,50.5a72.66,72.66,0,0,1-74.8-123.71A96.72,96.72,0,0,1,110.67,165c2.19-1.1,11.39-6.07,12.87-2.76,1.75,3.6-8.48,7.62-10.51,8.48-14.82,6.32-25.51,16.88-33.12,31-15.65,29-4,69.63,24.29,86.66,31.26,18.81,72.8,10.42,92.73-23C203,255.19,206.43,244.08,206,235.48Z"/><path class="cls-2" d="M236.51,107.72c2.81-.27,3.43,1.32,3.68,3,.41,2.67-1.81,3-3.55,3.32-1.91.31-4.22-.81-4.39-2.42C232,108.69,235.49,109.1,236.51,107.72Z"/><path class="cls-3" d="M335.58,180.2a96.2,96.2,0,0,0-24.69-23.09c-2.05-1.35-5.09-2.59-6.75-.14-1.87,2.76,1.57,3.66,3.14,5a28.93,28.93,0,0,0,3.13,2c37.28,24.61,46.89,78,21.27,114.41-26.56,37.71-80.09,46.86-117.15,17.83-1.81-1.42-4.22-4.78-6.75-1.1-2.09,3.06,1.24,4.51,3,5.82,26,19.38,54.81,23.6,85,12.7,34.06-12.32,56.68-46.22,56.72-82.11C352.5,214.48,345.74,193.91,335.58,180.2Z"/><path class="cls-3" d="M218.66,288.06c18.15,14.69,39.16,19.12,61.53,14.69,32.71-6.49,57.18-37.5,57.24-70.75,0-13.17-4.59-29-12.06-40.08a74,74,0,0,0-29.44-25.73c-2.06-1-4.22-1.51-5.33,1-.94,2.18.8,3.39,2.53,4.33,2.37,1.27,4.81,2.43,7.07,3.87,28.86,18.36,39.17,54.73,24.64,84.56-19.45,39.94-67.88,50.6-102.66,23.41-1.57-1.23-2.84-4.43-5.41-1.41C214.36,284.8,216.82,286.58,218.66,288.06Z"/><path class="cls-3" d="M221.73,138.78l0,.22,0,.06c1.7,9.93,7,17.78,18.38,24.27,8.38,4.77,16.13,9.83,21.28,18.19,2.69,4.37,5.8,3.1,7.7-.26,4.73-8.4,12.3-13.14,20.39-17.57a39.78,39.78,0,0,0,19.25-22.53c4.06-11.8-.07-23.75-11-31-7.78-5.16-22-7.24-30.9,2.34-2.17,2.35-2.86,1.15-4-.13-4.13-4.79-9.61-6.29-15.59-6.48l-1.2,0h0a5.45,5.45,0,0,0-1.47.11c-26.57,2.2-23.51,27.46-23.51,27.46A45.46,45.46,0,0,0,221.73,138.78Zm25.41-27.21c6.78-.17,11.55,3.44,14.42,9.11s4.67,3.8,7.07-.09c4.68-7.58,10.91-10.47,18.18-8.64,10,2.52,16.5,9.54,17.08,18,.82,11.87-4.91,20.31-14.25,26.44-7.91,5.2-16.63,9.29-22.55,17-2.16,2.83-3.11,1.25-4.53-.51a50.58,50.58,0,0,0-16.37-13c-8.76-4.53-15.66-10.87-18.94-20.51C220.41,112.79,247.14,111.57,247.14,111.57Z"/><path class="cls-3" d="M189,194.26c-3.24-1.45-4.52,1.2-5.43,3.55-4.22,10.95-6.74,22.24-6.58,34.05.22,11.24,1.58,22.26,6.23,32.67.89,2,1.86,4.15,4.43,3.24,3.12-1.1,2-3.63,1.18-5.78q-12.1-31.08.51-62C190.09,198.1,192.3,195.75,189,194.26Z"/><path class="cls-3" d="M198.2,210.27c-3.23-.87-3.21,1.89-4,4.09-2.05,5.83-1.83,11.88-2.39,17.86a84.2,84.2,0,0,0,2.61,18.47c.52,2,1.17,3.8,3.5,3.55,3-.32,2.57-2.77,2.35-4.83-.37-3.51-2.13-6.71-2-10.37.23-7.87-1-15.83,1.8-23.53C200.81,213.46,200.74,211,198.2,210.27Z"/><path class="cls-3" d="M221.56,180.79c5-3.76,9.88-7.58,15.83-9.77a3.4,3.4,0,0,0,2.33-3.86c-.57-1.8-1.66-3.06-4.35-1.92a74.73,74.73,0,0,0-17.77,11,3.34,3.34,0,0,0-.66,5C218.81,183.55,220.05,181.94,221.56,180.79Z"/><path class="cls-3" d="M209.74,171a144,144,0,0,1,16.61-11.77,2.13,2.13,0,0,0,.7-3.23,3.4,3.4,0,0,0-3.11-1.64c-2.51.11-17.29,10.43-18,12.69s-.34,4.17,2.61,4.4A4.24,4.24,0,0,0,209.74,171Z"/></svg>