<svg id="_1" data-name="1" xmlns="http://www.w3.org/2000/svg" viewBox="0 0 308 56.16"><defs><style>.cls-1{fill:#82b71a;fill-rule:evenodd;}</style></defs><title>Власта инвест логотип</title><path class="cls-1" d="M159.66,7.25h-4.77v25h-8.12v-25H142V1h17.7ZM199.76,18V32.21h6.78V1H199.8l-4.53,14.08V1h-6.78V32.21h7.06ZM86.86,29.92a10.35,10.35,0,0,0,.9-5V7.25h2.37v25h8.12V1H79.64V24c0,1.43-.18,2.26-.56,2.5a4,4,0,0,1-2,.37v5.36h1.27a31.31,31.31,0,0,0,5.83-.39A4,4,0,0,0,86.86,29.92Zm-12.05-.35a3.9,3.9,0,0,1-2.29,2.08,23.48,23.48,0,0,1-6.47.56H56.69V1h8.07a21.13,21.13,0,0,1,5.8.6A5.74,5.74,0,0,1,73.73,4q1.21,1.82,1.21,5.86a6.29,6.29,0,0,1-.85,3.81,6,6,0,0,1-3.38,1.66,6.06,6.06,0,0,1,3.82,2.11,8.14,8.14,0,0,1,1,4.53v2.89A11.53,11.53,0,0,1,74.81,29.57ZM67.41,21A4.24,4.24,0,0,0,67,18.61a3.67,3.67,0,0,0-2.19-.48v8.75A3.35,3.35,0,0,0,67,26.35,3.88,3.88,0,0,0,67.41,24Zm0-11.74a5.55,5.55,0,0,0-.26-2.06,1.31,1.31,0,0,0-.69-.74,6.23,6.23,0,0,0-1.65-.17v6.94l.8,0c.78,0,1.27-.2,1.49-.58A9.76,9.76,0,0,0,67.41,9.31Zm92.24,22.9L163.77,1H175.5l4.64,31.19h-8.29l-.44-5.6h-2.92l-.44,5.6Zm8.79-11.12h2.75q-.58-5.3-1.23-13.14Q168.76,16.94,168.44,21.09ZM108,32.21H99.63L103.74,1h11.73l4.64,31.19h-8.29l-.44-5.6h-2.92Zm.39-11.12h2.75q-.58-5.3-1.23-13.14Q108.74,16.94,108.42,21.09Zm16.66,10.5A12,12,0,0,0,131,32.88a10.34,10.34,0,0,0,5.77-1.52,7,7,0,0,0,3-3.56,24.09,24.09,0,0,0,.68-6.87V19.71h-8.12v3.92A11.47,11.47,0,0,1,132,26.9a1.36,1.36,0,0,1-2.37,0,10.25,10.25,0,0,1-.27-3V9.46a11,11,0,0,1,.27-3.08,1.18,1.18,0,0,1,1.26-.71,1.11,1.11,0,0,1,1.14.59,9.85,9.85,0,0,1,.26,3v5.42h8.12v-3a20.83,20.83,0,0,0-.73-6.43,6.65,6.65,0,0,0-3.06-3.45,13,13,0,0,0-10.59-.49,7.69,7.69,0,0,0-3.17,2.46A7.07,7.07,0,0,0,121.5,7a41.11,41.11,0,0,0-.23,5.05v9.11A23.54,23.54,0,0,0,122,28,6.28,6.28,0,0,0,125.08,31.59Zm163-3.79a24.09,24.09,0,0,0,.68-6.87V19.71h-8.12v3.92a11.47,11.47,0,0,1-.28,3.27,1.36,1.36,0,0,1-2.37,0,10.24,10.24,0,0,1-.27-3V9.46A11,11,0,0,1,278,6.38a1.18,1.18,0,0,1,1.26-.71,1.11,1.11,0,0,1,1.14.59,9.86,9.86,0,0,1,.26,3v5.42h8.12v-3A20.83,20.83,0,0,0,288,5.22,6.65,6.65,0,0,0,285,1.77a13,13,0,0,0-10.59-.49,7.69,7.69,0,0,0-3.17,2.46A7.07,7.07,0,0,0,269.84,7a41.13,41.13,0,0,0-.23,5.05v9.11a23.54,23.54,0,0,0,.75,6.87,6.28,6.28,0,0,0,3.06,3.58,12,12,0,0,0,5.87,1.29,10.34,10.34,0,0,0,5.77-1.52A7,7,0,0,0,288.09,27.8ZM267.54,26h-6V19.12h5V13.2h-5v-6H267V1H253.47V32.21h14.07ZM290.3,1V7.25h4.81v25h8.12v-25H308V1ZM247.53,31.65a23.48,23.48,0,0,1-6.47.56H231.7V1h8.07a21.13,21.13,0,0,1,5.8.6A5.74,5.74,0,0,1,248.74,4Q250,5.85,250,9.89a6.29,6.29,0,0,1-.85,3.81,6,6,0,0,1-3.38,1.66,6.06,6.06,0,0,1,3.82,2.11,8.14,8.14,0,0,1,1,4.53v2.89a11.53,11.53,0,0,1-.72,4.69A3.9,3.9,0,0,1,247.53,31.65ZM242.42,21a4.24,4.24,0,0,0-.41-2.44,3.67,3.67,0,0,0-2.19-.48v8.75a3.35,3.35,0,0,0,2.14-.54,3.88,3.88,0,0,0,.46-2.38Zm0-11.74a5.55,5.55,0,0,0-.26-2.06,1.31,1.31,0,0,0-.69-.74,6.23,6.23,0,0,0-1.65-.17v6.94l.8,0c.78,0,1.27-.2,1.48-.58A9.76,9.76,0,0,0,242.42,9.31Zm-14,22.9V1H220.3V12.18h-2.37V1h-8.12V32.21h8.12V19.12h2.37V32.21ZM56.69,51.13H67.78V40H56.69Zm35.14-6.57H86.41V40.14H85V50.88h1.39V45.83h5.41v5.06h1.39V40.14H91.83Zm156.32,3q-.38,1.14-.56,1.72-.16-.53-.5-1.59l-2.48-7.6h-2.08V50.88h1.33V41.73l3,9.15h1.25l3.06-9v9h1.33V40.14h-1.86Zm6.62,3.27h1.39V41.4h5.44v9.48H263V40.14h-8.22ZM202.83,40.14l4.26,10.74h-1.58l-1.21-3.26h-4.41l-1.14,3.26h-1.47l4-10.74Zm1,6.33-1.09-3q-.49-1.36-.75-2.24a15.51,15.51,0,0,1-.58,2.07l-1.15,3.15Zm65.79-6.33,4.26,10.74h-1.58l-1.21-3.26h-4.41l-1.14,3.26h-1.47l4-10.74Zm1,6.33-1.09-3q-.49-1.36-.75-2.24a15.52,15.52,0,0,1-.58,2.07l-1.15,3.15Zm16.18,2.18V40.14h-1.26V50.88H287l5.56-8.49v8.49h1.26V40.14h-1.37Zm12.87-8.51h4.64V50.88H303V46.11h-1.6a4.19,4.19,0,0,0-.77.05,2.09,2.09,0,0,0-.63.28,3.21,3.21,0,0,0-.7.72c-.26.34-.6.84-1,1.48l-1.39,2.24h-1.73L297,48a7.16,7.16,0,0,1,1.15-1.43A3.55,3.55,0,0,1,299,46a3.61,3.61,0,0,1-2.23-1,2.74,2.74,0,0,1-.72-1.93,3.11,3.11,0,0,1,.44-1.62,2.34,2.34,0,0,1,1.16-1A6,6,0,0,1,299.75,40.14ZM303,41.32h-3.31a2.46,2.46,0,0,0-1.7.49,1.63,1.63,0,0,0-.54,1.26,1.77,1.77,0,0,0,.28,1,1.55,1.55,0,0,0,.81.65,4.32,4.32,0,0,0,1.48.2h3Zm-21.11,3.24h-5.41V40.14h-1.39V50.88h1.39V45.83h5.41v5.06h1.39V40.14h-1.39ZM75.74,48.65V40.14H74.48V50.88h1.39l5.56-8.49v8.49h1.26V40.14H81.31Zm136.1-8.51h4.64V50.88h-1.39V46.11h-1.6a4.19,4.19,0,0,0-.77.05,2.09,2.09,0,0,0-.63.28,3.21,3.21,0,0,0-.7.72c-.26.34-.59.84-1,1.48L209,50.88h-1.73L209.07,48a7.16,7.16,0,0,1,1.15-1.43,3.55,3.55,0,0,1,.84-.54,3.61,3.61,0,0,1-2.23-1,2.74,2.74,0,0,1-.72-1.93,3.11,3.11,0,0,1,.44-1.62,2.34,2.34,0,0,1,1.16-1A6,6,0,0,1,211.83,40.14Zm3.25,1.19h-3.31a2.46,2.46,0,0,0-1.7.49,1.63,1.63,0,0,0-.54,1.26,1.77,1.77,0,0,0,.28,1,1.55,1.55,0,0,0,.81.65,4.32,4.32,0,0,0,1.48.2h3Zm-58.39,7.32V40.14h-1.26V50.88h1.39l5.56-8.49v8.49h1.26V40.14h-1.37Zm-21.34,0V40.14H134.1V50.88h1.39L141,42.4v8.49h1.26V40.14h-1.37Zm17.48-8.51h-1.39v9.48H146V40.14h-1.39V50.88h7.94v3h1.23V49.62h-1Zm22.07,2.51a6.55,6.55,0,0,1,.61,2.88,6.45,6.45,0,0,1-.64,2.92,4.44,4.44,0,0,1-1.82,2,5.11,5.11,0,0,1-2.55.66,4.87,4.87,0,0,1-2.65-.73,4.67,4.67,0,0,1-1.77-2,6.17,6.17,0,0,1-.6-2.68,5.92,5.92,0,0,1,1.4-4.18A4.7,4.7,0,0,1,170.52,40a4.94,4.94,0,0,1,2.62.71A4.59,4.59,0,0,1,174.91,42.65Zm-.82,2.88a5.61,5.61,0,0,0-.43-2.29,3.34,3.34,0,0,0-3.13-2.05,3.5,3.5,0,0,0-2.53,1,4.69,4.69,0,0,0-1.06,3.45,4.36,4.36,0,0,0,1,3.05,3.49,3.49,0,0,0,5.13,0A4.63,4.63,0,0,0,174.09,45.52Zm20.64-1h-5.41V40.14h-1.39V50.88h1.39V45.83h5.41v5.06h1.39V40.14h-1.39Zm-10.57,0h-5.41V40.14h-1.39V50.88h1.39V45.83h5.41v5.06h1.39V40.14h-1.39Zm-62.74,4.59a2.92,2.92,0,0,1-2,.69,3.31,3.31,0,0,1-1.77-.51,3,3,0,0,1-1.21-1.53,6.72,6.72,0,0,1-.39-2.39,6.57,6.57,0,0,1,.33-2.06,3.13,3.13,0,0,1,1.14-1.59,3.32,3.32,0,0,1,2-.59,2.75,2.75,0,0,1,1.74.54,3.32,3.32,0,0,1,1.06,1.71l1.36-.33a4.27,4.27,0,0,0-1.49-2.31,4.2,4.2,0,0,0-2.64-.82,5.08,5.08,0,0,0-2.54.65,4.35,4.35,0,0,0-1.78,1.9,6.46,6.46,0,0,0-.62,2.93,7.49,7.49,0,0,0,.55,2.88,4.38,4.38,0,0,0,1.61,2,4.86,4.86,0,0,0,2.75.71,4.24,4.24,0,0,0,2.77-.92,4.8,4.8,0,0,0,1.57-2.67l-1.39-.36A3.56,3.56,0,0,1,121.42,49.16ZM226,45.38a2.8,2.8,0,0,0,.87-.57,5.54,5.54,0,0,0,.89-1.72,4.57,4.57,0,0,1,.75-1.41,1.32,1.32,0,0,1,1-.33h.56V40.14l-.84,0a2.29,2.29,0,0,0-1.15.3,2.25,2.25,0,0,0-.8.74,9.76,9.76,0,0,0-.72,1.5,6.32,6.32,0,0,1-1,1.82,1.88,1.88,0,0,1-1.33.38V40.14h-1.39V50.88h1.39v-5a1.76,1.76,0,0,1,1.26.45A8,8,0,0,1,226.7,48l1.76,2.91h1.72L228,47.31A3.91,3.91,0,0,0,226,45.38ZM106.71,46h5.78V44.7h-5.78V41.4h6.17V40.14h-7.56V50.88h7.81V49.62h-6.42Zm-3.83.18a2.64,2.64,0,0,1,.51,1.63,3.21,3.21,0,0,1-.31,1.41,2.71,2.71,0,0,1-.77,1,3.21,3.21,0,0,1-1.15.53,6.8,6.8,0,0,1-1.69.18h-4V40.14H99.4a4.77,4.77,0,0,1,1.93.33,2.49,2.49,0,0,1,1.13,1,2.67,2.67,0,0,1,.41,1.42,2.49,2.49,0,0,1-.36,1.3,2.62,2.62,0,0,1-1.1,1A2.72,2.72,0,0,1,102.88,46.14Zm-6-1.49h2.27a4.94,4.94,0,0,0,1.32-.13,1.46,1.46,0,0,0,.8-.54,1.58,1.58,0,0,0,.27-.94,1.75,1.75,0,0,0-.25-.94,1.27,1.27,0,0,0-.71-.56A5.83,5.83,0,0,0,99,41.4H96.86ZM102,47.77a1.81,1.81,0,0,0-.3-1,1.58,1.58,0,0,0-.83-.63,5,5,0,0,0-1.53-.18H96.86v3.71h2.61a5.77,5.77,0,0,0,.95-.05,2.2,2.2,0,0,0,.8-.29,1.56,1.56,0,0,0,.53-.6A1.91,1.91,0,0,0,102,47.77Zm22.39-6.37h3.45v9.48h1.39V41.4h3.45V40.14h-8.3Zm115.83,1.25a6.55,6.55,0,0,1,.61,2.88,6.45,6.45,0,0,1-.64,2.92,4.44,4.44,0,0,1-1.82,2,5.11,5.11,0,0,1-2.55.66,4.87,4.87,0,0,1-2.65-.73,4.67,4.67,0,0,1-1.77-2,6.17,6.17,0,0,1-.6-2.68,5.92,5.92,0,0,1,1.4-4.18A4.7,4.7,0,0,1,235.78,40a4.94,4.94,0,0,1,2.62.71A4.59,4.59,0,0,1,240.17,42.65Zm-.82,2.88a5.61,5.61,0,0,0-.43-2.29,3.34,3.34,0,0,0-3.13-2.05,3.5,3.5,0,0,0-2.53,1,4.69,4.69,0,0,0-1.06,3.45,4.36,4.36,0,0,0,1,3.05,3.49,3.49,0,0,0,5.13,0A4.63,4.63,0,0,0,239.35,45.52ZM34.22,10.68h2.84V7.84H34.22ZM0,22.46H2.95V20.18H0Zm4.1,0H7V20.18H4.1Zm4.1,0h2.95V20.18H8.2Zm4.1,0h2.95V20.18H12.29ZM0,26.21H2.95V23.92H0Zm4.1,0H7V23.92H4.1Zm4.1,0h2.95V23.92H8.2Zm4.1,0h2.95V23.92H12.29ZM0,30H2.95V27.66H0Zm4.1,0H7V27.66H4.1Zm4.1,0h2.95V27.66H8.2Zm4.1,0h2.95V27.66H12.29ZM0,33.69H2.95V31.41H0Zm4.1,0H7V31.41H4.1Zm4.1,0h2.95V31.41H8.2Zm4.1,0h2.95V31.41H12.29ZM0,37.44H2.95V35.15H0Zm4.1,0H7V35.15H4.1Zm4.1,0h2.95V35.15H8.2Zm4.1,0h2.95V35.15H12.29ZM0,41.18H2.95V38.89H0Zm4.1,0H7V38.89H4.1Zm4.1,0h2.95V38.89H8.2Zm4.1,0h2.95V38.89H12.29ZM0,44.93H2.95V42.64H0Zm4.1,0H7V42.64H4.1Zm4.1,0h2.95V42.64H8.2Zm4.1,0h2.95V42.64H12.29ZM0,48.67H2.95V46.38H0Zm4.1,0H7V46.38H4.1Zm4.1,0h2.95V46.38H8.2Zm4.1,0h2.95V46.38H12.29ZM0,52.41H2.95V50.12H0Zm4.1,0H7V50.12H4.1Zm4.1,0h2.95V50.12H8.2Zm4.1,0h2.95V50.12H12.29ZM0,56.16H2.95V53.87H0Zm4.1,0H7V53.87H4.1Zm4.1,0h2.95V53.87H8.2Zm4.1,0h2.95V53.87H12.29ZM34.22,14.75h2.84V11.9H34.22Zm0,4.07h2.84V16H34.22Zm0,4.07h2.84V20H34.22Zm0,4.07h2.84V24.1H34.22Zm0,4.07h2.84V28.17H34.22Zm0,4.07h2.84V32.23H34.22Zm0,4.07h2.84V36.3H34.22Zm0,4.07h2.84V40.36H34.22Zm0,4.07h2.84V44.43H34.22Zm0,4.07h2.84V48.49H34.22Zm0,4.07h2.84V52.56H34.22Zm4.06-44.72h2.84V7.84H38.28Zm0,4.07h2.84V11.9H38.28Zm0,4.07h2.84V16H38.28Zm0,4.07h2.84V20H38.28Zm0,4.07h2.84V24.1H38.28Zm0,4.07h2.84V28.17H38.28Zm0,4.07h2.84V32.23H38.28Zm0,4.07h2.84V36.3H38.28Zm0,4.07h2.84V40.36H38.28Zm0,4.07h2.84V44.43H38.28Zm0,4.07h2.84V48.49H38.28Zm0,4.07h2.84V52.56H38.28Zm4.06-44.72h2.84V7.84H42.35Zm0,4.07h2.84V11.9H42.35Zm0,4.07h2.84V16H42.35Zm0,4.07h2.84V20H42.35Zm0,4.07h2.84V24.1H42.35Zm0,4.07h2.84V28.17H42.35Zm0,4.07h2.84V32.23H42.35Zm0,4.07h2.84V36.3H42.35Zm0,4.07h2.84V40.36H42.35Zm0,4.07h2.84V44.43H42.35Zm0,4.07h2.84V48.49H42.35Zm0,4.07h2.84V52.56H42.35Zm4.06-44.72h2.84V7.84H46.41ZM17.73,2.58H20.3V0H17.73Zm3.68,0H24V0H21.41Zm3.68,0h2.57V0H25.09Zm3.68,0h2.57V0H28.77Zm-11,3.36H20.3V3.36H17.73Zm3.68,0H24V3.36H21.41Zm3.68,0h2.57V3.36H25.09Zm3.68,0h2.57V3.36H28.77Zm-11,3.36H20.3V6.72H17.73Zm3.68,0H24V6.72H21.41Zm3.68,0h2.57V6.72H25.09Zm3.68,0h2.57V6.72H28.77Zm-11,3.36H20.3V10.08H17.73Zm3.68,0H24V10.08H21.41Zm3.68,0h2.57V10.08H25.09Zm3.68,0h2.57V10.08H28.77ZM17.73,16H20.3V13.44H17.73Zm3.68,0H24V13.44H21.41Zm3.68,0h2.57V13.44H25.09Zm3.68,0h2.57V13.44H28.77Zm-11,3.36H20.3V16.8H17.73Zm3.68,0H24V16.8H21.41Zm3.68,0h2.57V16.8H25.09Zm3.68,0h2.57V16.8H28.77Zm-11,3.36H20.3V20.16H17.73Zm3.68,0H24V20.16H21.41Zm3.68,0h2.57V20.16H25.09Zm3.68,0h2.57V20.16H28.77Zm-11,3.36H20.3V23.52H17.73Zm3.68,0H24V23.52H21.41Zm3.68,0h2.57V23.52H25.09Zm3.68,0h2.57V23.52H28.77Zm-11,3.36H20.3V26.88H17.73Zm3.68,0H24V26.88H21.41Zm3.68,0h2.57V26.88H25.09Zm3.68,0h2.57V26.88H28.77Zm-11,3.36H20.3V30.24H17.73Zm3.68,0H24V30.24H21.41Zm3.68,0h2.57V30.24H25.09Zm3.68,0h2.57V30.24H28.77Zm-11,3.36H20.3V33.6H17.73Zm3.68,0H24V33.6H21.41Zm3.68,0h2.57V33.6H25.09Zm3.68,0h2.57V33.6H28.77Zm-11,3.36H20.3V37H17.73Zm3.68,0H24V37H21.41Zm3.68,0h2.57V37H25.09Zm3.68,0h2.57V37H28.77Zm-11,3.36H20.3V40.32H17.73Zm3.68,0H24V40.32H21.41Zm3.68,0h2.57V40.32H25.09Zm3.68,0h2.57V40.32H28.77Zm-11,3.36H20.3V43.68H17.73Zm3.68,0H24V43.68H21.41Zm3.68,0h2.57V43.68H25.09Zm3.68,0h2.57V43.68H28.77Zm-11,3.36H20.3V47H17.73Zm3.68,0H24V47H21.41Zm3.68,0h2.57V47H25.09Zm3.68,0h2.57V47H28.77ZM17.73,53H20.3V50.4H17.73Zm3.68,0H24V50.4H21.41Zm3.68,0h2.57V50.4H25.09Zm3.68,0h2.57V50.4H28.77ZM46.41,14.75h2.84V11.9H46.41Zm0,4.07h2.84V16H46.41Zm0,4.07h2.84V20H46.41Zm0,4.07h2.84V24.1H46.41Zm0,4.07h2.84V28.17H46.41Zm0,4.07h2.84V32.23H46.41Zm0,4.07h2.84V36.3H46.41Zm0,4.07h2.84V40.36H46.41Zm0,4.07h2.84V44.43H46.41Zm0,4.07h2.84V48.49H46.41Zm0,4.07h2.84V52.56H46.41Z"/></svg>