<svg xmlns="http://www.w3.org/2000/svg" xmlns:xlink="http://www.w3.org/1999/xlink" viewBox="0 0 1348.73 300.49" width="220px" height="50px" id="logo"><defs><clipPath id="a" transform="translate(-0.5 0)"><rect width="1349.23" height="305.2" style="fill:none"/></clipPath></defs><polygon points="119.5 300 299.5 300 209.5 70 119.5 300" style="fill:#d9e0e6"/><polygon points="0 300 180 300 90 100 0 300"/><polygon points="207.97 300 239.05 300 152.33 91.23 207.97 300" style="fill:#007dab"/><polygon points="207.7 300 238.62 300 152.33 92.26 207.7 300" style="fill:#007dab"/><polygon points="207.42 300 238.19 300 152.33 93.29 207.42 300" style="fill:#007dab"/><polygon points="207.15 300 237.77 300 152.33 94.32 207.15 300" style="fill:#007dab"/><polygon points="206.87 300 237.34 300 152.33 95.35 206.87 300" style="fill:#007dab"/><polygon points="208.25 300 239.48 300 152.33 90.2 208.25 300" style="fill:#00ade8"/><polygon points="132.21 300 166.79 300 149.5 91.23 132.21 300" style="fill:#007dab"/><polygon points="132.29 300 166.71 300 149.5 92.26 132.29 300" style="fill:#007dab"/><polygon points="132.38 300 166.62 300 149.5 93.29 132.38 300" style="fill:#007dab"/><polygon points="132.47 300 166.53 300 149.5 94.32 132.47 300" style="fill:#007dab"/><polygon points="132.55 300 166.45 300 149.5 95.35 132.55 300" style="fill:#007dab"/><polygon points="133.88 300 165.12 300 149.5 90.2 133.88 300" style="fill:#00ade8"/><polygon points="59.95 300 91.03 300 146.67 91.23 59.95 300" style="fill:#007dab"/><polygon points="60.38 300 91.3 300 146.67 92.26 60.38 300" style="fill:#007dab"/><polygon points="60.8 300 91.58 300 146.67 93.29 60.8 300" style="fill:#007dab"/><polygon points="61.23 300 91.85 300 146.67 94.32 61.23 300" style="fill:#007dab"/><polygon points="61.66 300 92.13 300 146.67 95.35 61.66 300" style="fill:#007dab"/><polygon points="59.52 300 90.75 300 146.67 90.2 59.52 300" style="fill:#00ade8"/><path d="M130.82,62.47,118.74,101.3,150,77.21l31.29,24.09-12.1-38.91L200,38.57H162.5L150,.93,137.5,38.57H100Zm7.82-3.15L120.38,45.16H142.6l7.4-22.3,7.4,22.3h22.22L161.34,59.27l7.17,23L150,68,131.48,82.32Z" transform="translate(-0.5 0)" style="fill:#007dab"/><path d="M130.82,63.4l-12.09,38.82L150,78.13l31.29,24.09-12.1-38.91L200,39.5H162.5L150,1.85,137.5,39.5H100Zm7.82-3.15L120.38,46.09H142.6l7.4-22.3,7.4,22.3h22.22l-18.28,14.1,7.17,23.05L150,69,131.48,83.25Z" transform="translate(-0.5 0)" style="fill:#007dab"/><path d="M130.82,64.32l-12.09,38.82L150,79.06l31.29,24.09-12.1-38.91L200,40.42H162.5L150,2.78,137.5,40.42H100Zm7.82-3.15L120.38,47H142.6L150,24.7,157.4,47h22.22L161.34,61.12l7.17,23L150,69.9,131.48,84.17Z" transform="translate(-0.5 0)" style="fill:#007dab"/><path d="M130.82,65.25l-12.09,38.82L150,80l31.29,24.09-12.1-38.91L200,41.35H162.5L150,3.7,137.5,41.35H100Zm7.82-3.15L120.38,47.94H142.6l7.4-22.3,7.4,22.3h22.22L161.34,62l7.17,23.05L150,70.83,131.48,85.1Z" transform="translate(-0.5 0)" style="fill:#007dab"/><path d="M130.82,66.18,118.74,105,150,80.91,181.25,105l-12.1-38.91L200,42.27H162.5L150,4.63,137.5,42.27H100ZM138.64,63,120.38,48.86H142.6l7.4-22.3,7.4,22.3h22.22L161.34,63l7.17,23L150,71.75,131.48,86Z" transform="translate(-0.5 0)" style="fill:#007dab"/><path d="M138.64,58.4,120.38,44.23H142.6l7.4-22.3,7.4,22.3h22.22L161.34,58.34l7.17,23L150,67.12,131.48,81.39ZM150,0,137.5,37.64H100l30.82,23.91-12.09,38.82L150,76.28l31.29,24.09-12.1-38.91L200,37.64H162.5Z" transform="translate(-0.5 0)" style="fill:#00ade8"/><g style="clip-path:url(#a)"><path d="M461.41,112.36a26.19,26.19,0,0,1,1.55-8.79,24.37,24.37,0,0,1,4.52-7.82,23.16,23.16,0,0,1,7.3-5.62A21.74,21.74,0,0,1,484.64,88a20.41,20.41,0,0,1,11.2,3,18,18,0,0,1,6.86,7.72L498.91,101A14.5,14.5,0,0,0,496,96.93a16,16,0,0,0-3.62-2.69,15.36,15.36,0,0,0-4-1.48,19.21,19.21,0,0,0-4.07-.45,16.37,16.37,0,0,0-7.79,1.79,18,18,0,0,0-5.69,4.69,20.45,20.45,0,0,0-3.48,6.51,23.67,23.67,0,0,0-1.17,7.34,21.71,21.71,0,0,0,1.41,7.79,22.07,22.07,0,0,0,3.86,6.58,18.52,18.52,0,0,0,5.79,4.55,15.87,15.87,0,0,0,7.27,1.69,18.25,18.25,0,0,0,4.24-.52,16.35,16.35,0,0,0,4.2-1.65,17.69,17.69,0,0,0,3.76-2.83,14.68,14.68,0,0,0,2.89-4.1l4,2.07a15,15,0,0,1-3.31,4.86,21.79,21.79,0,0,1-4.76,3.55,23.72,23.72,0,0,1-5.55,2.21,22.92,22.92,0,0,1-5.75.76,19.56,19.56,0,0,1-9.24-2.21,24.17,24.17,0,0,1-7.24-5.75,26.67,26.67,0,0,1-4.72-8.06,26,26,0,0,1-1.62-9.22" transform="translate(-0.5 0)"/><path d="M586.78,137.52a20.71,20.71,0,0,1-9.34-2.1,23.19,23.19,0,0,1-7.27-5.58,25.34,25.34,0,0,1-4.69-8,26.22,26.22,0,0,1-1.65-9.17,25.44,25.44,0,0,1,1.76-9.37,25.87,25.87,0,0,1,4.86-7.93,23.55,23.55,0,0,1,7.31-5.48,20.63,20.63,0,0,1,9.1-2,20.19,20.19,0,0,1,9.34,2.17,23.42,23.42,0,0,1,7.24,5.69,26.23,26.23,0,0,1,4.65,8,25.79,25.79,0,0,1,1.65,9.06,25.44,25.44,0,0,1-1.76,9.37,25.78,25.78,0,0,1-4.82,7.89,23.34,23.34,0,0,1-7.27,5.44,20.62,20.62,0,0,1-9.11,2m-18.12-24.81a22.78,22.78,0,0,0,1.31,7.68,20.87,20.87,0,0,0,3.72,6.55,18.29,18.29,0,0,0,5.72,4.55,16,16,0,0,0,7.37,1.69,15.77,15.77,0,0,0,7.51-1.79A18.33,18.33,0,0,0,600,126.7a21.68,21.68,0,0,0,3.62-6.55,22.5,22.5,0,0,0-.07-15.13,21.06,21.06,0,0,0-3.76-6.51,18.57,18.57,0,0,0-5.7-4.51,16.78,16.78,0,0,0-14.82.07,17.91,17.91,0,0,0-5.72,4.65,21.64,21.64,0,0,0-3.62,6.55,22.4,22.4,0,0,0-1.28,7.44Z" transform="translate(-0.5 0)"/><path d="M689.13,88.24h4.07l20.33,48.93h-5.1l-6.34-15.3h-22l-6.27,15.3h-5.17ZM701,118.08l-9.86-24.19-10,24.19Z" transform="translate(-0.5 0)"/><polygon points="775.19 137.17 775.19 88.24 780.01 88.24 780.01 132.9 808.27 132.9 808.27 137.17 775.19 137.17"/><path d="M972.32,97.41a14.9,14.9,0,0,0-5.51-3.79A20.12,20.12,0,0,0,959,92.17q-6.48,0-9.44,2.45a8.17,8.17,0,0,0-3,6.65,7.37,7.37,0,0,0,.79,3.62,6.92,6.92,0,0,0,2.45,2.45,17.19,17.19,0,0,0,4.24,1.79q2.58.76,6.1,1.52a66.47,66.47,0,0,1,7.06,1.86,20.3,20.3,0,0,1,5.34,2.58,10.75,10.75,0,0,1,3.38,3.76,11.68,11.68,0,0,1,1.17,5.51,12.39,12.39,0,0,1-1.31,5.86,11.67,11.67,0,0,1-3.65,4.13,16.27,16.27,0,0,1-5.58,2.45,29.92,29.92,0,0,1-7.1.79,29.18,29.18,0,0,1-19.64-7.1l2.41-3.93a19.2,19.2,0,0,0,3.14,2.62,22.84,22.84,0,0,0,4.07,2.17,25.73,25.73,0,0,0,4.79,1.45,27,27,0,0,0,5.38.52q5.86,0,9.13-2.1a7.06,7.06,0,0,0,3.28-6.37,7.31,7.31,0,0,0-1-3.85,8.05,8.05,0,0,0-2.79-2.69,19.85,19.85,0,0,0-4.62-2q-2.76-.83-6.41-1.65-3.86-.9-6.75-1.86a18,18,0,0,1-4.89-2.41,9.36,9.36,0,0,1-3-3.48,11.23,11.23,0,0,1-1-5,13.72,13.72,0,0,1,1.28-6,11.84,11.84,0,0,1,3.62-4.41A17.14,17.14,0,0,1,952,88.83a24.9,24.9,0,0,1,7-.93,24,24,0,0,1,8.72,1.48,23.45,23.45,0,0,1,6.93,4.17Z" transform="translate(-0.5 0)"/><polygon points="1074.92 92.51 1057.5 92.51 1057.5 137.17 1052.68 137.17 1052.68 92.51 1035.24 92.51 1035.24 88.24 1074.94 88.24 1074.92 92.51"/><path d="M1153,88.24h4.07l20.33,48.93h-5.1l-6.34-15.3h-22l-6.27,15.3h-5.17Zm11.86,29.84L1155,93.89l-10,24.19Z" transform="translate(-0.5 0)"/><path d="M1239.59,137.17V88.24h20.68a12.7,12.7,0,0,1,5.82,1.34,15.4,15.4,0,0,1,4.58,3.52,16.14,16.14,0,0,1,3,4.93,15.34,15.34,0,0,1,1.07,5.58,16.57,16.57,0,0,1-.79,5.13,15.85,15.85,0,0,1-2.21,4.41,13.33,13.33,0,0,1-3.41,3.31,12.07,12.07,0,0,1-4.48,1.83l12,18.88h-5.45l-11.51-18.06h-14.47v18.06Zm4.82-22.33h16a8.2,8.2,0,0,0,3.89-.93,9.24,9.24,0,0,0,3-2.52,12.19,12.19,0,0,0,1.93-3.58,12.82,12.82,0,0,0,.69-4.21,11.9,11.9,0,0,0-2.93-7.79,10.21,10.21,0,0,0-3.17-2.41,8.58,8.58,0,0,0-3.82-.9h-15.58Z" transform="translate(-0.5 0)"/><polygon points="421.19 225.33 431.09 225.33 469.28 173.7 496.86 173.7 451.77 234.35 500.92 299.24 473.7 299.24 433.39 247.24 421.19 247.24 421.19 299.24 396.96 299.24 396.96 173.71 421.18 173.71 421.19 225.33"/><path d="M569.68,300.13a57,57,0,0,1-25-5.39,61.35,61.35,0,0,1-19.27-14.32,66.41,66.41,0,0,1-16.89-43.94,63.08,63.08,0,0,1,4.69-24,66.37,66.37,0,0,1,12.91-20.33A61.58,61.58,0,0,1,545.63,178a58,58,0,0,1,24.58-5.22A55.14,55.14,0,0,1,595,178.35,62.06,62.06,0,0,1,614.24,193a67.16,67.16,0,0,1,12.38,20.51A64.58,64.58,0,0,1,631,236.83a63.48,63.48,0,0,1-4.6,24A65.07,65.07,0,0,1,613.67,281a61.22,61.22,0,0,1-19.45,14,58,58,0,0,1-24.54,5.14m-36.42-63.65a50.49,50.49,0,0,0,2.47,15.74,42,42,0,0,0,7.16,13.44,34.25,34.25,0,0,0,54.11-.37,43,43,0,0,0,7.07-13.53,50.21,50.21,0,0,0,2.39-15.29,49,49,0,0,0-2.56-15.74,43.44,43.44,0,0,0-7.25-13.44,34.6,34.6,0,0,0-11.5-9.29,35.81,35.81,0,0,0-31,.18,34.93,34.93,0,0,0-11.49,9.55,42.89,42.89,0,0,0-7,13.44,50.23,50.23,0,0,0-2.4,15.3Z" transform="translate(-0.5 0)"/><path d="M674,300.48a37.09,37.09,0,0,1-4.24-.26q-2.3-.27-4.77-.8a34.8,34.8,0,0,1-4.86-1.41,18.17,18.17,0,0,1-4.16-2.12l3.18-20.16a46.69,46.69,0,0,0,5.39,2.39,19.83,19.83,0,0,0,7.16,1.33,14.26,14.26,0,0,0,8.93-2.92q3.8-2.92,6.63-10.52l-46.15-92.3h26.35l30.76,67.72,28.64-67.72H752.5l-44.2,95.48a127.71,127.71,0,0,1-7.6,14.41,50.36,50.36,0,0,1-7.69,9.72,24.63,24.63,0,0,1-8.58,5.48A30.29,30.29,0,0,1,674,300.48" transform="translate(-0.5 0)"/><path d="M809.44,214.2a347,347,0,0,1-5.3,40.67q-3.36,16.44-9.19,26.61t-14.5,14.59q-8.67,4.42-21.22,4.42l-1.41-21.92a26.46,26.46,0,0,0,10.52-3q4.51-2.48,7.78-9.72T781.68,245q2.3-13.52,4.24-36l3-35.36h76v125.6H840.73V195.1H811Z" transform="translate(-0.5 0)"/><path d="M887.76,235.59a65,65,0,0,1,4.16-22.72,60.93,60.93,0,0,1,31.56-34.39A60.07,60.07,0,0,1,949.65,173q17.33,0,30,7.6a48.6,48.6,0,0,1,18.83,19.8l-18.74,12.91a32.13,32.13,0,0,0-6-8.93,30.14,30.14,0,0,0-7.6-5.75,34.19,34.19,0,0,0-8.49-3.09,40.46,40.46,0,0,0-8.66-1,32.9,32.9,0,0,0-16,3.71,35.2,35.2,0,0,0-11.32,9.64,42.49,42.49,0,0,0-6.81,13.44,50.81,50.81,0,0,0-2.3,14.94,48.74,48.74,0,0,0,2.65,16,42.57,42.57,0,0,0,7.51,13.53,37.58,37.58,0,0,0,11.67,9.37,31.88,31.88,0,0,0,14.94,3.54,39.33,39.33,0,0,0,8.84-1.06,33.61,33.61,0,0,0,8.75-3.36,33.14,33.14,0,0,0,7.69-5.92,27.33,27.33,0,0,0,5.66-8.75l20,11.49a37.79,37.79,0,0,1-8.58,12.47,55.19,55.19,0,0,1-12.55,9.11,64.11,64.11,0,0,1-14.94,5.66,65.5,65.5,0,0,1-15.56,1.94A53.48,53.48,0,0,1,924,294.65a64,64,0,0,1-19.18-14.76,68.46,68.46,0,0,1-12.55-20.69,64.56,64.56,0,0,1-4.51-23.61" transform="translate(-0.5 0)"/><polygon points="1113.58 195.1 1073.44 195.1 1073.44 299.24 1049.22 299.24 1049.22 195.1 1009.08 195.1 1009.08 173.71 1113.58 173.71 1113.58 195.1"/><path d="M1168.89,173.71h21.57l47.74,125.54h-25.11l-11.67-31.3h-43.85l-11.49,31.3H1121ZM1197,250.8l-17.33-49.33-18,49.33Z" transform="translate(-0.5 0)"/><path d="M1256.06,299.24V173.71h53.22a35.65,35.65,0,0,1,16,3.63,41.46,41.46,0,0,1,12.64,9.55,45.17,45.17,0,0,1,8.31,13.44,40.52,40.52,0,0,1,3,15.12,43.63,43.63,0,0,1-2.83,15.47,43,43,0,0,1-8,13.35,39.12,39.12,0,0,1-12.38,9.37,35.8,35.8,0,0,1-15.91,3.54H1280.4v42.08Zm24.4-63.48h28.29a14,14,0,0,0,11.23-5.48q4.51-5.48,4.51-14.85a24.51,24.51,0,0,0-1.41-8.58,20.94,20.94,0,0,0-3.71-6.45,14.77,14.77,0,0,0-5.39-4,15.76,15.76,0,0,0-6.28-1.33h-27.23Z" transform="translate(-0.5 0)"/></g></svg>