<?xml version="1.0" encoding="UTF-8" standalone="no"?>
<svg
   xmlns:dc="http://purl.org/dc/elements/1.1/"
   xmlns:cc="http://creativecommons.org/ns#"
   xmlns:rdf="http://www.w3.org/1999/02/22-rdf-syntax-ns#"
   xmlns:svg="http://www.w3.org/2000/svg"
   xmlns="http://www.w3.org/2000/svg"
   xmlns:sodipodi="http://sodipodi.sourceforge.net/DTD/sodipodi-0.dtd"
   xmlns:inkscape="http://www.inkscape.org/namespaces/inkscape"
   height="1792"
   viewBox="0 0 1792 1792"
   width="1792"
   version="1.1"
   id="svg4"
   sodipodi:docname="icon5.svg"
   inkscape:version="0.92.4 (unknown)">
  <metadata
     id="metadata10">
    <rdf:RDF>
      <cc:Work
         rdf:about="">
        <dc:format>image/svg+xml</dc:format>
        <dc:type
           rdf:resource="http://purl.org/dc/dcmitype/StillImage" />
      </cc:Work>
    </rdf:RDF>
  </metadata>
  <defs
     id="defs8" />
  <sodipodi:namedview
     pagecolor="#ffffff"
     bordercolor="#666666"
     borderopacity="1"
     objecttolerance="10"
     gridtolerance="10"
     guidetolerance="10"
     inkscape:pageopacity="0"
     inkscape:pageshadow="2"
     inkscape:window-width="1920"
     inkscape:window-height="1027"
     id="namedview6"
     showgrid="false"
     inkscape:zoom="0.13169643"
     inkscape:cx="896.00001"
     inkscape:cy="896.00001"
     inkscape:window-x="0"
     inkscape:window-y="27"
     inkscape:window-maximized="1"
     inkscape:current-layer="svg4" />
  <path
     d="m 1216,1568 v 192 q 0,14 -9,23 -9,9 -23,9 H 928 q -14,0 -23,-9 -9,-9 -9,-23 v -192 q 0,-14 9,-23 9,-9 23,-9 h 256 q 14,0 23,9 9,9 9,23 z M 736,1440 q 0,12 -10,24 l -319,319 q -10,9 -23,9 -12,0 -23,-9 L 41,1463 q -15,-16 -7,-35 8,-20 30,-20 H 256 V 32 Q 256,18 265,8.9999998 274,-1.5217393e-7 288,-1.5217393e-7 h 192 q 14,0 23,8.99999995217393 Q 512,18 512,32 v 1376 h 192 q 14,0 23,9 9,9 9,23 z m 672,-384 v 192 q 0,14 -9,23 -9,9 -23,9 H 928 q -14,0 -23,-9 -9,-9 -9,-23 v -192 q 0,-14 9,-23 9,-9 23,-9 h 448 q 14,0 23,9 9,9 9,23 z m 192,-512 v 192 q 0,14 -9,23 -9,9 -23,9 H 928 q -14,0 -23,-9 -9,-9 -9,-23 V 544 q 0,-14 9,-23 9,-9 23,-9 h 640 q 14,0 23,9 9,9 9,23 z M 1792,32 v 192 q 0,14 -9,23 -9,9 -23,9 H 928 q -14,0 -23,-9 -9,-9 -9,-23 V 32 Q 896,18 905,8.9999998 914,-1.5217393e-7 928,-1.5217393e-7 h 832 q 14,0 23,8.99999995217393 Q 1792,18 1792,32 Z"
     id="path2"
     inkscape:connector-curvature="0" />
</svg>
