<?xml version="1.0" ?><svg style="enable-background:new 0 0 48 48;" version="1.1" viewBox="0 0 48 48" xml:space="preserve" xmlns="http://www.w3.org/2000/svg" xmlns:xlink="http://www.w3.org/1999/xlink"><g id="Padding__x26__Artboard"/><g id="Icons"><g><path d="M37.65812,15.47861c-0.10059-0.11523-0.26465-0.15137-0.40576-0.08887    c-0.60498,0.26953-1.17188,0.43555-1.63574,0.53809c1.07227-1.07422,1.44189-2.21973,1.46094-2.28027    c0.04248-0.13574-0.00146-0.2832-0.11133-0.37402c-0.10986-0.0918-0.26416-0.10547-0.38867-0.03906    c-1.70215,0.91699-2.81445,1.15527-3.2207,1.21582c-1.75684-2.20898-4.63037-2.08789-6.74219-0.96387    c-2.06299,1.09961-3.86914,3.39844-3.24023,5.98145c-6.66357-0.4209-10.5835-5.50195-10.62305-5.55469    c-0.06982-0.0918-0.16211-0.14258-0.2959-0.13867c-0.11523,0.00586-0.22021,0.06738-0.28125,0.16602    c-1.93555,3.13086-0.1958,5.7666,0.92773,6.99609c-0.7002-0.1748-1.3291-0.48145-1.33838-0.48535    c-0.10938-0.05469-0.23877-0.04785-0.34131,0.01758c-0.10303,0.06445-0.16504,0.17871-0.16357,0.2998    c0.03564,3.15723,1.94092,4.65527,3.31201,5.3252c-0.54834,0.01367-0.93896-0.05469-0.94531-0.05566    c-0.12939-0.02441-0.25439,0.02637-0.33398,0.125c-0.08008,0.09961-0.09961,0.23535-0.05127,0.35254    c1.17432,2.85352,3.2749,3.69336,4.49072,3.93945c-3.16406,2.10937-7.0459,1.73144-7.08936,1.72754    c-0.15918-0.02441-0.31494,0.08008-0.36768,0.23438c-0.05273,0.15527,0.0083,0.3252,0.14746,0.41113    c2.07568,1.28125,5.24023,2.26465,7.87451,2.44727c0.25439,0.0166,0.52246,0.02637,0.80371,0.02637    c2.82812,0,6.9082-0.92871,10.20361-3.62793c3.5166-2.88086,4.90576-6.92871,5.42041-9.08496    c0.3208-1.34473,0.39502-3.32812,0.41064-3.93164c1.54199-1.13281,2.5166-2.69629,2.55859-2.76465    C37.77336,15.76181,37.75969,15.59384,37.65812,15.47861z M28.37541,29.87314c-0.09131,0-0.18311-0.03516-0.25146-0.10645    c-0.13428-0.13867-0.13086-0.36035,0.0083-0.49512c0.24414-0.23535,0.47021-0.47852,0.67969-0.72461    c0.12549-0.14844,0.34766-0.16406,0.49316-0.04004c0.14746,0.125,0.16504,0.3457,0.04004,0.49316    c-0.22412,0.26367-0.46582,0.52246-0.72656,0.77539C28.5507,29.84091,28.46281,29.87314,28.37541,29.87314z M29.86857,27.31552    c0.75049-1.05078,1.36084-2.29102,1.76465-3.58691c0.05762-0.18359,0.25293-0.28711,0.43799-0.22949    c0.18457,0.05762,0.2876,0.25391,0.22998,0.43848c-0.42529,1.36523-1.06982,2.67383-1.86328,3.78418    c-0.06836,0.0957-0.17578,0.14648-0.28516,0.14648c-0.07031,0-0.14111-0.02051-0.20312-0.06445    C29.7924,27.6915,29.75627,27.47275,29.86857,27.31552z" style="fill:#303030;"/></g></g></svg>