<svg id="Слой_1" data-name="Слой 1" xmlns="http://www.w3.org/2000/svg" xmlns:xlink="http://www.w3.org/1999/xlink" viewBox="0 0 1172 909"><defs><style>.cls-1{fill:url(#Безымянный_градиент_2);}</style><linearGradient id="Безымянный_градиент_2" x1="50.77" y1="472.07" x2="1067.58" y2="472.07" gradientTransform="translate(143.94 -138.1) rotate(16.71)" gradientUnits="userSpaceOnUse"><stop offset="0" stop-color="#81d4d1"/><stop offset="1" stop-color="#8349d3"/></linearGradient></defs><title>drop</title><path class="cls-1" d="M515.94,135c45.91,42.12,95.1,94.53,157.24,90.05,65.7-4.75,108.52-71,168.37-98.48,49-22.53,108.73-16.78,155.51,10.12,120.31,69.18,155.57,263.46,36.41,351.09-63.76,46.89-136.06,37.81-206.26,59-67,20.18-129.7,65.3-169.43,122.65-23.43,33.83-40.43,71.88-65.11,104.8-59.91,79.95-164.8,122.54-264,110.52-240-29.08-323.36-314.9-280.91-521C90.58,155.77,325.48-39.75,515.94,135Z"/></svg>