<svg id="Слой_1" data-name="Слой 1" xmlns="http://www.w3.org/2000/svg" xmlns:xlink="http://www.w3.org/1999/xlink" viewBox="0 0 968 1080"><defs><style>.cls-1{fill:url(#linear-gradient);}</style><linearGradient id="linear-gradient" x1="65.93" y1="539.83" x2="890.81" y2="539.83" gradientUnits="userSpaceOnUse"><stop offset="0.1" stop-color="#affde8"/><stop offset="0.93" stop-color="#31adc1" stop-opacity="0.7"/></linearGradient></defs><title>drop</title><path class="cls-1" d="M419.17,136.31C352.87,213.93,310.43,318.62,211.52,362,144.12,391.6,87.93,437.65,71.2,512.89,43,639.46,131.59,720.42,245.74,744.64c63.16,13.39,130.86,20,183.08,58,35.18,25.59,59.58,62.89,86.36,97.17,48.14,61.59,110.6,117.77,187.44,132.13s167.71-27.5,185.1-103.71c13.55-59.42-19.33-120.28-61.79-164s-95-76.87-136-122S620,533.29,639.36,475.5c14.49-43.23,52.32-73.55,81-109,58.08-71.67,86-189.79,17.4-264C688.57,49.25,606.61,32.71,537.21,53.85,487,69.16,450.42,99.73,419.17,136.31Z"/></svg>