<svg id="Слой_1" data-name="Слой 1" xmlns="http://www.w3.org/2000/svg" xmlns:xlink="http://www.w3.org/1999/xlink" viewBox="0 0 1069 1041"><defs><style>.cls-1{fill:url(#linear-gradient);}</style><linearGradient id="linear-gradient" x1="45.49" y1="540.45" x2="1002.4" y2="540.45" gradientUnits="userSpaceOnUse"><stop offset="0.1" stop-color="#affde8"/><stop offset="0.93" stop-color="#31adc1" stop-opacity="0.7"/></linearGradient></defs><title>drop</title><path class="cls-1" d="M610.86,144.88c26.91,37.58,45.46,81.17,61.72,124.72,18.58,49.75,36.11,103.09,71.39,144,33,38.26,74,75.06,111,110.08,50.09,47.44,106.93,92.2,133.6,155.83,26,62,15.7,140.9-34.2,185.9-59.35,53.52-153,45.81-226.25,13.94-79.16-34.42-149.09-75.1-228.61-17.83C454.44,894,429.61,944.27,385.26,976c-42.54,30.43-97.71,43.68-149.33,34.71C156,996.82,88.51,934.29,61,858S43.92,694.39,81.39,622.47c26.23-50.34,65-93.39,110.07-127.61,43-32.67,81.1-56.19,108.89-105.07,22.59-39.72,31.47-85.5,40.81-130.23s19.93-90.42,45.24-128.46,68.67-67.36,114.18-63.28C535,70.91,565.4,92.3,588.85,117.73A283.75,283.75,0,0,1,610.86,144.88Z"/></svg>