<svg id="Слой_1" data-name="Слой 1" xmlns="http://www.w3.org/2000/svg" xmlns:xlink="http://www.w3.org/1999/xlink" viewBox="0 0 1341 956"><defs><style>.cls-1{fill:url(#linear-gradient);}.cls-2{fill:url(#linear-gradient-2);}</style><linearGradient id="linear-gradient" x1="-5597.86" y1="2534.2" x2="-5364.36" y2="2534.2" gradientTransform="matrix(0.24, 0.97, -0.97, 0.24, 3969.53, 4915.14)" gradientUnits="userSpaceOnUse"><stop offset="0" stop-color="#ff74db"/><stop offset="0.22" stop-color="#db3ce4"/><stop offset="0.48" stop-color="#b500ee"/><stop offset="0.91" stop-color="#4a0191"/><stop offset="1" stop-color="#34017e"/></linearGradient><linearGradient id="linear-gradient-2" x1="396.96" y1="430.25" x2="1299.55" y2="430.25" gradientTransform="translate(-139.04 434.11) rotate(-23.79)" xlink:href="#linear-gradient"/></defs><title>drop</title><path class="cls-1" d="M66.84,240.82c1.78-33.33,13.45-67.76,30.24-89.62,32.18-41.91,120-90.34,170-52.61a64.49,64.49,0,0,1,24.85,56.58c-3.62,37.34-33.19,58.47-59.58,80.73-6.44,5.43-13,10.95-17.75,17.89-8.72,12.67-10.75,28.58-14.6,43.48-6,23.35-17.75,35.93-41.1,41.12-16.87,3.75-34.39,1.61-49.38-7.19C79,313.29,65,274.8,66.84,240.82Z"/><path class="cls-2" d="M294.62,346.13c-8.76,37.57.27,80.77,14.33,118.08,31.37,83.21,82.66,157.16,133.45,230.15,31.17,44.79,62.6,89.91,101.87,127.8,103.3,99.68,315.29,127.93,384.84-28.42,7.33-16.48,11.31-34.28,18.34-50.89,25.69-60.68,87.43-97,146.67-125.9s123-57,161-110.8c15.6-22.11,26.23-49.36,21.78-76-4.73-28.41-26.28-52.11-52.1-64.85s-55.44-15.79-84.22-14.72a320.49,320.49,0,0,0-91.34,16.85c-53,18-100.4,49.64-152.73,69.51-42.37,16.09-92.77,24.67-136.43,8.34-48.61-18.19-97.36-60.06-139.31-90.78-68-49.74-139.89-104.51-229.42-91.09-29.92,4.48-59.26,18.45-77.8,42.36A103.51,103.51,0,0,0,294.62,346.13Z"/></svg>