<svg id="Слой_1" data-name="Слой 1" xmlns="http://www.w3.org/2000/svg" xmlns:xlink="http://www.w3.org/1999/xlink" viewBox="0 0 1239.95 1167.96"><defs><style>.cls-1{fill:url(#linear-gradient);}.cls-2{fill:#a5e9ef;}.cls-3{fill:#ba6fd8;}.cls-4{fill:#9b3dbc;}.cls-5{fill:#1bcee4;}.cls-6{fill:#6771ce;}.cls-7{fill:#f4aaa9;}.cls-8{fill:#283339;}.cls-9{fill:#4146a9;}.cls-10{fill:#dddfdf;}.cls-11{opacity:0.4;}.cls-12{fill:#2dc4ab;}.cls-13{fill:#20b198;}.cls-14{fill:#31d9bc;}</style><linearGradient id="linear-gradient" x1="-630.34" y1="1184.84" x2="182.78" y2="1997.95" gradientTransform="matrix(0.28, 0.96, 0.96, -0.28, -563.8, 1148.47)" gradientUnits="userSpaceOnUse"><stop offset="0" stop-color="#7e32c6"/><stop offset="0.11" stop-color="#6432c6"/><stop offset="0.23" stop-color="#4d32c6"/><stop offset="0.35" stop-color="#3f32c6"/><stop offset="0.46" stop-color="#3a32c6"/><stop offset="0.54" stop-color="#3b38c8"/><stop offset="0.66" stop-color="#3e47cc"/><stop offset="0.78" stop-color="#4262d4"/><stop offset="0.92" stop-color="#4986df"/><stop offset="1" stop-color="#4d9fe7"/></linearGradient></defs><title>style</title><path class="cls-1" d="M1264.2-194.46c49,39.3,80.92,103.71,100.45,165.64,43.54,138.1,52.24,284.41,60.63,429,5.14,88.71,10.27,178.1-1.9,266.13-32,231.58-275.07,481-521.41,350.74-26-13.73-49-32.51-74.68-46.71-93.95-51.87-209.57-36.32-314.48-13.7s-214.79,50.78-317.6,20C153,964,112,939.83,90.8,901.18,68.29,860,72.05,808,92.29,765.72s55.13-76,93.05-103.58a522.53,522.53,0,0,1,133.93-70.29c86-30.21,178.5-37.44,265.5-64.63,70.46-22,143.63-61.73,183.1-126.57,44-72.19,64.26-174.85,87.09-256.39,37-132,74-274.56,202.15-347.44,42.84-24.36,94.45-36,142.26-24C1223.73-221.1,1245.25-209.66,1264.2-194.46Z"/><path class="cls-2" d="M817.23,277c9.16,2.76,11.75,10.07,12.47,18.44.48,5.48.43,11,.62,16.51a151.86,151.86,0,0,0,0,26c-.2,2.4-.39,4.8-.59,7.2-3,.58-5.16-1.51-7.7-2.46s-5.14-3.94-7.49-1.6c-2.6,2.59-.88,5.66,1.36,8.15.79.87,1.56,2-.08,3.33-5.68,1.1-10.17-3.09-15.41-4.45-7.15-1.86-10.86.7-10,8.07.92,8.22,5.81,14,12.73,18.28,8.19,5.08,17.41,5.66,26.62,6.33.06,32.06-.6,64.13.48,96.15.52,15.13-1.19,27.22-17.44,32.49-.21.07-.3.52-.45.79A218,218,0,0,0,775,532.18q-22.07,16-25.06,43.42c-1.4,12.88.73,25.06,4.57,37.26,4.54,14.41,3.37,28.13-7.52,39.65-4.73,5-10.24,8.34-16.82,2.48a1.82,1.82,0,0,0-2.19-1.56l-.14-.07c.37-13.5,2.78-26.63,5.45-39.89,2.06-10.17,4.78-21,1.38-31.79-4.23-13.53-10.17-17.06-23.27-12.23-6.28,2.31-12.13,5.78-18.18,8.72-13,6.69-24.53,16.22-38.74,20.7.79-22.42-.89-44.84,1.51-67.3,2-19.25,6.54-26,25.61-28.68s33.07-11.29,42.87-28a79,79,0,0,0,10.7-37.6c.31-8.82-1.37-19-10.76-24.07-8.77-4.77-16.56-.93-23.76,4.46-2.45,1.83-4.88,3.67-7.33,5.51-9.08,6.86-15,17.18-25.44,22.66-4.22,2.22-7.89,3.57-11.54-.59-2.54-25.84-1.81-51.76-1.8-77.66,41.12-23.53,82.17-47.2,123.42-70.5C790.76,289.85,802.39,280.24,817.23,277Z"/><path class="cls-3" d="M262.22,824.94c-.42-23.66-3.25-47.23-2.71-70.94.22-9.57-.37-19.55,3-28.33,7.43-19.52,5.7-39,3.22-58.9-1.63-13.1-2.47-26.31-3.67-39.46.42-20.81-1.4-41.66,1.59-62.4,1-6.95,1.78-13.95,5.21-20.27,20.27,9.47,41.17,13.62,63.31,7.65,4.43-.44,8.75-1.19,12.1-4.54,6.11-.73,11.77,1,17.33,3.23l3.3,37.37c1.81,41.59,4.06,83.15,1,124.82-2.42,32.89-3.68,65.87-5.46,98.81l-1,14.11c-7,1.86-14,.75-21.07.36q-1.5-8.16-3-16.32c-2-11.15-4.27-22.26-5.85-33.46-2.6-18.44-8.72-37-3.85-55.54,3.58-13.62,2.86-26.54.29-39.85-.51-2.68-.6-5.45-.88-8.18,2.56-13.92,0-27.74-1.62-41.45-1.32-11.47,2-21.78,4.89-32.35,1.73-6.43,8.74-6,12.86-9.41,1-.84,1.85-1.58.31-3.58-5.38,1.68-11.09,3.49-16.81,5.23-1.94.59-3.36,1.61-3.38,3.77-.13,11.34-4.78,22.16-3.79,33.62.46,1.37-.43,1.61-1.46,1.73-3.23,2.15-2.87,4.61-.63,7.24-2.06,19.53-3.48,39.16-6.32,58.58-5.81,39.79-12.38,79.47-18.64,119.19q-2.49,13.7-5,27.4c-6,4-12.42,2.51-18.82,1.64C261.19,839,265.53,831.12,262.22,824.94Z"/><path class="cls-3" d="M979.26,602.37c-.08,1.37-.16,2.73-.25,4.1q-2.87,27.76-5.74,55.53c-2.93,10.85-1.43,22.52-6,33.06a52,52,0,0,1-20.09.23c-4.1-10.12-2.35-21.1-4.6-31.49-.37-3.57-1.18-18.31-1.52-21.95-5.11-53.3-10.2-106.6-15.59-159.88-.43-4.26,1.58-9.3-2.63-12.87-.87-1.62-1.89-3.18-.25-5,3-3.29,1.09-5.79-1.85-7.31-6.1-3.16-12.4-5.91-18.66-8.85-1.53,3.11.82,4.8,2.31,5.45,12.42,5.46,11.46,16,11.43,26.9,0,10.54-2.23,21.29,1.41,31.7-.11,1.27-3.76,31.69-1.42,42.09,2,8.66,1.08,17.59.53,26.46-.51,8.13-2.33,50.18-2.61,63,0,1.21-1.29,18.12-1.1,20.32-1.38,3.56.55,7.92-2.65,11-6.73,1.72-13.52,2.48-20.42,1.17-4.55-6.54-2.15-14.63-4.8-21.59q-5.26-46.12-10.52-92.25c-.07-.76-.13-1.53-.2-2.29l-.78-5.27c.07-15.1-.15-30.21.26-45.3.94-34.22,2.18-68.42,3.3-102.63,3.64-1.94,5.68,1.34,8.1,2.75a93.74,93.74,0,0,0,47.41,12.71c15.7.11,30-5.29,44.43-10.28-1,39-1.94,78-3.11,117-.3,10.16-.34,20.07,2.86,30C980.06,570.07,978.84,599.37,979.26,602.37Z"/><path class="cls-4" d="M415.44,486.23c.46-10.79.52-21.66,7.07-31.06,14.31,11.26,30.61,19.14,46.65,27.46-7.85,75.18-1.73,150.58-3.43,225.86-3.18,1.48-5-1.28-7.29-2.4-7.46-3.58-13.8-9.3-22-11.41-4.29-2.88-8.33-6.32-12.95-8.51-6-2.85-8.1-6.6-8-13.45.47-38,.34-76.08.41-114.12,4.58-.45,9.22-.57,13.72-1.4,11.84-2.19,17.51-7.79,19.22-18,1.2-7.16-1.64-9.81-8.63-8.5-5.34,1-10.26,4.15-16.62,3.3,1.42-3.34,6-6.37,2.89-9.58s-5.59,2.43-8.87,2.26l-1.84-.07-.24-16.5Z"/><path class="cls-3" d="M469.16,482.63c-16-8.32-32.34-16.2-46.65-27.46,3-9.24,9.38-15.8,17.53-20.51,48.16-27.86,96.43-55.52,144.55-83.44,4-2.35,7.11-2.33,10.9.06,3.32,2.1,6.41,4.85,10.59,5.3,1.83,3.18,5.44,3.82,8.13,5.77,8.07,5.86,18.52,8.08,24.95,16.41a44.12,44.12,0,0,0-10.94,4.49c-40.83,23.75-81.91,47.07-122.6,71.05-11.66,6.87-25.14,11.79-32.25,24.84C472.56,480.63,470.59,481.48,469.16,482.63Z"/><path class="cls-5" d="M817.23,277c-14.84,3.23-26.47,12.84-39.26,20.05-41.25,23.3-82.3,47-123.42,70.5-2.87-1.73-5.79-3.37-8.6-5.2-12.44-8.07-26.61-13.32-37.9-23.26,11.39-9.58,25-15.67,37.63-23.14,35.84-21.12,72.05-41.62,108-62.63,8-4.67,15.14-5.57,23.27-.45C790.16,261.22,803.77,269,817.23,277Z"/><path class="cls-6" d="M976.71,411.92c-14.44,5-28.73,10.39-44.43,10.28a93.74,93.74,0,0,1-47.41-12.71c-2.42-1.41-4.46-4.69-8.1-2.75l1.74-35.36c20.07-6.19,40.46-11.76,55.56-27.85,7.33,2.73,11.1-.86,15.34-6.72a209.56,209.56,0,0,0,25.4-47c3,2.73,1.77,6.34,1.78,9.57Q976.76,355.67,976.71,411.92Z"/><path class="cls-7" d="M415.74,526.59l1.84.07c3.28.17,5.87-5.33,8.87-2.26s-1.47,6.24-2.89,9.58c6.36.85,11.28-2.3,16.62-3.3,7-1.31,9.83,1.34,8.63,8.5-1.71,10.23-7.38,15.83-19.22,18-4.5.83-9.14.95-13.71,1.4l-4.06-.06L361.57,551c-5.56-2.22-11.22-4-17.34-3.23-18.43-5-34.38-13.59-45-30.22-6.37-11.45-14.77-21.43-23-31.49-4.79-13.88-12.74-27-10.33-42.62.23-1.5.52-3,.78-4.48,6.18-5.53,10.71-13.83,21-12.43,2.15,3.71,5,7.18,6.32,11.17,7.59,22.59,20.95,42.24,31.5,63.31,7,13.91,18.11,19.07,32.32,20.47,8,5.37,17.93,5.48,26.47,9.24C395.84,535.79,406,533.46,415.74,526.59Z"/><path class="cls-8" d="M287.67,426.51c-10.28-1.4-14.81,6.9-21,12.43.27-26.8.49-53.6.92-80.4,0-2.59-.83-3.67-2.79-5-3.82-2.62-3.68-5.91-.52-9.86l5.86,7.3a24.34,24.34,0,0,1,1-3.06c12.83-26.46,46.36-27.53,64.14-18.21,15.36,8.06,22.18,21.63,22.28,38.71.14,21.88.15,43.77.22,65.64-8.13-3.67-14.37-11.8-24.62-10.47l-6,.4c-4.37-10-3.17-12.67,6-11.81,10,.92,15-4.22,17.3-12.87,3.48-13.34,2.95-26.86.2-40.25-1.13-5.5-2.4-11.22-8-15.32C338.14,363.6,324.93,373.38,307,378c-3.15.81-6.75,2.33-9.62-.53-3.74-3.73-7.92-5-12.45-2.24s-4.95,7.57-4.17,12.32c.85,5.18,3.83,11.21,8.62,10.66,12.28-1.41,8.78,6.59,8.91,12.6.1,4.59-.22,9.2-.35,13.81C294.5,425,290.79,424.14,287.67,426.51Z"/><path class="cls-7" d="M947.19,239.44l-.3,20.77a40.51,40.51,0,0,1-21,10.4c-10.68,1.88-14.68-2.59-11.27-12.53.56-1.65.35-3.56.49-5.35.56-4.1-.79-5.28-5.18-4.72-11.46,1.44-16.67-2.44-20.62-13.42-4.34-12.07-3.17-24.8-5.1-37.15,3.6-5.21,1.17-13.8,5.57-16.79,4.92-3.33,11.78,2.83,18.22,2.22a30.24,30.24,0,0,1,5.51.39c8.23.77,18-4.18,24.26.5,6.69,5,4.36,16,6.81,24.16,1.34,4.46,2.75,7.54,6.63,1.72a15.73,15.73,0,0,1,10.51-6.87c10.2,9.34,7,20.93-7.24,25.88-5-2.69-8.57-3-7.6,4.5C947.18,235.22,947.11,237.34,947.19,239.44Z"/><path class="cls-9" d="M197.13,663.9c.28,20.19.81,40.38-2.07,60.47-.7,4.9-.67,10-6.89,11.53-.09-11.69-.29-23.38-.22-35.07.13-22.36-3.17-44.09-11.38-65-5.41-13.79-15.8-27.27-25.72-31.41,26.92,26,32.2,57.94,34.27,91.44.84,13.53-.93,27,.43,40.38l-1.71,3a4.4,4.4,0,0,1-1.57-.27c-1-24.66-21.37-74.25-22.56-76.8-4-8.7-9.56-16.46-15.24-24.13-5.52-7.45-10.44-15.29-12.26-24.55-3-15.08,7.5-24.19,21.93-18.71,16.2,6.15,26.12,18.9,33.39,34C189,631.85,197.13,651.83,197.13,663.9Z"/><path class="cls-9" d="M1072.32,688.44c-8.3-1.51-12.55-6.12-13-14.91-.65-14.33-2-28.63-3-42.94,0-34.36,18-68.89,31.71-79.12a42.41,42.41,0,0,1,11.17-6.36c6.64-2.33,13.21-3.44,19,1.9s5.42,11.88,3.52,18.76c-2.4,8.7-7.61,15.92-12.07,23.55l-1.65,2.28,0,0-1.53,1.91-.16.25c-3.77,4.84-9.2,8.78-8.73,16-4.75.65-21,11.91-20.12,15.45,2.46,9.61,2,18.72-6.37,25.75-.66-12.43,1.92-24.44,4.51-36.49,3.53-16.41,12-30.82,18.2-46.13A44.57,44.57,0,0,0,1105,555.2c.9-1.16,3.74-2.08,1.34-3.79-1.2-.85-2.29,1.22-2.68,2.7-6,2.33-8,8.1-11,12.92-17.15,26.68-25.9,55.78-25.24,87.59-1.82,3-1.52,6.42-2,9.74C1064.19,673.49,1070.92,680.17,1072.32,688.44Z"/><path class="cls-6" d="M915.14,252.73c-.14,1.79.07,3.7-.49,5.35-3.41,9.94.59,14.41,11.27,12.53a40.51,40.51,0,0,0,21-10.4c3.32.78,6.8,1.15,9.39,3.77-.71,1-1.21,2.26-2.15,2.93-21,15.27-32,38-44.16,59.79a59.22,59.22,0,0,1-31.33,17.09c-1.34-8.05,2.14-16.49-2-24.31,3.11-5.4,2.05-11.36,1.73-17-.95-16.81,2.56-31.92,14.91-44.15l0,0,1.88-1.88,0,0c3.56,0,7.36.67,9.23-3.62Z"/><path class="cls-9" d="M910,326.7c12.16-21.82,23.12-44.52,44.16-59.79.94-.67,1.44-1.94,2.15-2.93,14.43.95,18.49,6.61,18.53,25.87a209.56,209.56,0,0,1-25.4,47c-4.24,5.86-8,9.45-15.34,6.72C926.82,336.81,919.77,329.78,910,326.7Z"/><path class="cls-5" d="M159.26,671.88c17.54,19,22,42.45,23,67.11-7.23.22-4.72-6.1-5.34-9.2-4-20.18-12.6-38-26.67-52.86-7-7.46-14.82-14.34-25.77-16.08,25.57,13.16,40.06,34.7,47.56,61.57,2.06,7.36,4.63,14.77,2.09,22.6-4,1.84-5.26-.67-6.49-3.86-3-7.73-5.81-15.57-11-22.19-7.39-14.45-20-24-32.16-33.87A107.91,107.91,0,0,1,114,676c-5.08-5.35-7.25-11.74-3.08-18.51,4-6.42,10.22-8.54,17.63-7.19C141.72,652.66,159.08,671.69,159.26,671.88Z"/><path class="cls-9" d="M961.75,202.77a15.73,15.73,0,0,0-10.51,6.87c-3.88,5.82-5.29,2.74-6.63-1.72-2.45-8.16-.12-19.13-6.81-24.16-6.23-4.68-16,.27-24.26-.5a30.24,30.24,0,0,0-5.51-.39c-6.44.61-13.3-5.55-18.22-2.22-4.4,3-2,11.58-5.57,16.79-3-.52-2.88-3.12-3-5-.36-9.59,2.61-18.85,2.21-28.66-.29-7.13,6.86-10.83,14.19-9.74,14.9,2.22,29.71,5,44.56,7.64a13.2,13.2,0,0,1,9.67,6.45c1.54,2.75,3.12,3.78,6.46,3.57,2.72-.17,7.55.54,2.41,5-1,.87-2.1,1.84-1,2.88C967.71,186.72,962.94,194.88,961.75,202.77Z"/><path class="cls-7" d="M333.13,423.57c10.25-1.33,16.49,6.8,24.62,10.47q12.72,24.94,25.47,49.88c1.74,3.41,4.7,4.59,8.44,4.26,7.92-.69,15.86-1.31,23.78-2l.06,23.87c-2.44.16-5.1-.26-7.3.56-22.55,8.37-39.14,1.65-50.26-19.4,1.1-10.47,5.65-20.35,2.06-31.57C355.08,444.29,345.05,433.39,333.13,423.57Z"/><path class="cls-5" d="M608.05,339.1c11.29,9.94,25.46,15.19,37.9,23.26,2.81,1.83,5.73,3.47,8.6,5.2,0,25.9-.74,51.82,1.8,77.66l-16.71-8.75-.48-57.71c-6.43-8.33-16.88-10.55-24.95-16.41-2.69-2-6.3-2.59-8.13-5.77C606.94,350.78,604,344.55,608.05,339.1Z"/><path class="cls-5" d="M276.23,486c8.27,10.06,16.67,20,23,31.49-9.7,4.1-12.35,13-6.16,21,5.17,6.66,12.2,9.64,20.42,10.62,6.24.74,12.41,2.07,18.61,3.13-22.14,6-43,1.82-63.31-7.65a59.09,59.09,0,0,1,2.8-6.7c7.93-14,14-28.17,5-44.22C275.51,491.64,274.29,488.7,276.23,486Z"/><path class="cls-9" d="M893.3,258.32c-12.35,12.23-15.86,27.34-14.91,44.15.32,5.65,1.38,11.61-1.73,17-2.39,1.9-4.83.13-7.24.09-7.72-4.76-11.16-13.81-18.73-18.72.22-1.5-.12-3.57.75-4.42C864,284.07,873.83,268.91,888.86,259,890,258.27,891.81,258.53,893.3,258.32Z"/><path class="cls-7" d="M850.69,300.85c7.57,4.91,11,14,18.73,18.72C858.83,330.9,845.93,337.3,830.33,338a151.86,151.86,0,0,1,0-26C837.89,309.69,844.84,306.28,850.69,300.85Z"/><path class="cls-9" d="M947.19,239.44c-.08-2.1,0-4.22-.28-6.29-1-7.52,2.59-7.19,7.6-4.5C953.92,233.5,952.34,237.68,947.19,239.44Z"/><path class="cls-6" d="M904.36,252.87c-1.87,4.29-5.67,3.65-9.23,3.62C897.55,253.61,900.76,252.75,904.36,252.87Z"/><path class="cls-10" d="M895.16,256.47l-1.88,1.88Z"/><path class="cls-2" d="M640,845.28c2.45,14.53-5.63,21.29-17.5,27.87-44.11,24.5-87.58,50.15-131.3,75.37-7.25,4.18-14.53,7.31-21.95.3l-2-1.57,0,.23c-1.64-6-1.83-12.07-1.82-18.23q.09-99.35,0-198.69c7.24-3.92,14.63-7.6,21.7-11.8,11.6-6.89,24-12.9,34.28-21.43,24.34-20.19,28.71-46.58,19.77-75.86-7.11-23.3-3.61-35.38,15.06-50.11,7.59,1.84,10.12,7.08,10,14.39a102.48,102.48,0,0,1-2.93,21.84c-1.77,7.43-4.25,14.8-3.17,22.64-.06,5.84-.45,11.7-.09,17.52.8,13.22,9.1,18.9,21.33,14.15a157.26,157.26,0,0,0,31.68-16.43c6.95-4.72,14.19-9.57,22.79-11.27-.47,27.16,1.53,54.38-1.93,81.47-.61.63-1.21,1.26-1.82,1.88l-1.86,1.85-1.88,1.74c-1.55.2-2.94.62-3.44,2.36l.13-.11c-1.71-.19-3.21,0-3.86,2l.12-.12c-7.7-.44-15.4-.83-22,4.45l0-.15c-1.85-.76-3.34-.63-4,1.59l.17-.16c-1.85-.32-3.38,0-3.92,2.11-8.49,5.64-16,12.26-20.64,21.56a65.22,65.22,0,0,0-10.81,29.3c-.07,5.2-.45,10.42-.14,15.6,1,16.48,14.07,23.89,28.82,16.59,3.58-1.78,6.61-4.32,9.89-6.5,12.23-8.09,19.54-22.2,33.94-27.55,4.92,1.5,4.8,5.83,5.41,9.73C640.92,809.54,638.14,827.49,640,845.28Z"/><path class="cls-3" d="M822.88,749c-5.91,9.69-14.25,16.45-24.14,22.07-44.64,25.41-89,51.26-133.51,76.91-2.91,1.67-6,3.05-9,4.57-.69-.91-1.44-1.25-2.34-.26l-.54,0-.46-.27c1.8-4.59,4-9.52,3.07-14.2-2.89-14.39-.89-28.84-1.47-43.25-.33-8.26.45-16.57-2.07-24.69-2.93-9.44-9.59-12.85-19.09-9.86-7,2.18-12.43,6.5-17.79,11.11-6.61,6.43-13,13.1-19.91,19.2-4.85,4.3-10.3,8.24-17.13,3.16l-2-1.84v.19c-4.34-10.52,1.78-19.6,4-29.21,9.62-7.54,20.53-10.61,32.67-12.53s23.4-8.17,28.1-21.41c4.33-1.94,5.8-6,7.55-10,7.2-16.37,5.18-33.67,5.67-50.78.46-15.59-2-31.3,1.72-46.76,19-10.44,36.61-23.39,57.08-31.11,10.32,4.78,5.89,13.78,5.11,20.89-1.28,11.54-4.28,22.9-6.55,34.34,0,5.24-.43,10.53.16,15.71.86,7.51,3.21,15,10.77,18.16,7.81,3.31,15.53,2.07,22.52-3.41C763,662.06,771,643.49,773,621.74c1.23-13-3.59-24.81-6.44-37-2.92-12.56-1.6-24.35,9.92-32.17a399.83,399.83,0,0,1,50.26-29q0,98.7,0,197.41c0,3.24-1.16,6.84,1.73,9.62C828.48,737.28,824.72,742.86,822.88,749Z"/><path class="cls-11" d="M285.46,843.07q2.48-13.7,5-27.4c14.4-6.37,29.7-5.47,44.88-5.54q1.5,8.16,3,16.31-.24,4.74-.46,9.48c-2.79,4.93-3.25,10.52-4.37,15.9-2.14,10.32.07,13.78,10.85,14a74.76,74.76,0,0,1,29.24,6.7c8.28,3.67,17.36,3.58,26.23,1.1,3.71-1,7.39-2.58,7.89-6.77.59-4.86-3.92-5.54-7.17-7-14.18-6.44-29.6-10.7-40.49-22.94q-.33-5.42-.65-10.83l1-14.11c17.66,3.12,34.44,8.69,49.85,18,1.93,1.18,3.2,4.7,6,2.91,2.3-1.46,1.13-4.54,1.14-6.89.05-37.22,0-74.44.07-111.66,0-3.28-1-6.81,1.4-9.77q.15,103.7.29,207.39c-1.72-1.71-2.74-3-5.79-.81-23,16.7-49.4,22-77.17,23.12-25.86,1-50.78-2.78-74.44-13.38-15.39-6.9-28.72-16.37-36.54-32.12-6.8-13.7-6-26.81,3.06-39,8.66-11.73,18.74-21.91,34-24.89,3.31,6.18-1,14.07,4.42,19.78-4,2.21-2.42,6.14-2.92,9.43-4.35,9.63-6.13,18.74,4.25,26.11,3.08,2.18,3.93,6.11,5.37,9.51,5.18,12.25,21.27,20.21,34.2,17,11-2.71,13.14-8,4.95-15.79-11.06-10.45-20.79-21.56-26.73-35.69Z"/><path class="cls-11" d="M822.88,749c1.84-6.18,5.6-11.76,5.64-18.48,1.83-3.73,1.36-7.75,1.41-11.69q.24-22.85.4-45.7l2-1.84c3.62-1.53,7.36-2.85,10.85-4.63,13.08-6.68,26.67-11.57,41.51-12.22,2.65,7,.25,15,4.8,21.59L887.74,680a39.07,39.07,0,0,1-15,12c-8.68,3.95-17.48,7.62-26.19,11.5-3,1.34-6.92,2.31-6.28,6.77.54,3.78,3.71,5.55,7,6.63,7.82,2.55,16.23,3.3,23.63.34,12.14-4.85,24.35-8,37.39-8.36,4.26-.12,8.63-2.19,8.22-7-.68-8-.6-16.51-6.39-23.24l-.18-3.68c3.2-3.13,1.27-7.49,2.65-11,.51,0-.19-10.46.85-12.91,1.23,0,4.59,0,5.81,0,7.32.64,15.19,1.15,22.51,1.79-.44.21.59,1.86.14,2.07.63,3.5.12,1.88.64,9,2.25,10.39.5,21.37,4.6,31.49l-2,5.12c-3.94,15-14.26,25.42-25.38,35.36-3,2.7-6.88,6.17-4.94,11,1.78,4.42,6.42,5.38,10.7,6.2,13.24,2.53,28.53-5.66,33.75-18.11,1.31-3.12,2.07-6.81,4.89-8.74,10.83-7.42,9-16.91,5-26.93l-1.92-4.13c4.62-10.54,3.12-22.21,6-33.06,22.15,6.42,38.6,19.56,47.61,41.08,4.56,10.87,1.52,21.33-4.11,30.77-10.12,17-26.6,26.19-44.35,32.78a153.38,153.38,0,0,1-57.64,10c-30-.83-59.29-5.39-84.51-23.83C828.06,751.22,825.36,750.29,822.88,749Z"/><path class="cls-5" d="M419.15,912q-.13-103.69-.29-207.39l.76.18,45.88,25.76q0,99.35,0,198.69c0,6.16.18,12.25,1.82,18.23-14.33-6.43-27.35-15.21-41-23C421.74,921.92,420.73,916.67,419.15,912Z"/><path class="cls-5" d="M1097.62,609.75s11.42-6.71,12.08-7.36c0,0,5.73-.54,7.71,2.3-.13.62-.25,1.24-.37,1.86-.51.57-15.39,40.12-18.2,42.43q-3.71,23.55-7.4,47.11c-.3,1.89-1.58,2.44-3.19,2.69l-7.9-5.33-2.15-1.63.19.2c-.61-1.89-2.11-2.14-3.79-2.07l.13.09-2.18-1.77-.24.17c-1.39-8.27-8.12-15-6.89-24.08.44-3.32.14-6.72,2-9.74l3.75-3.67c8.39-7,8.83-16.14,6.37-25.75C1076.59,621.66,1080.37,609.75,1097.62,609.75Z"/><path class="cls-4" d="M615.57,771.2c5.36-4.61,10.84-8.93,17.79-11.11,9.5-3,16.16.42,19.09,9.86,2.52,8.12,1.74,16.43,2.07,24.69.58,14.41-1.42,28.86,1.47,43.25,1,4.68-1.27,9.61-3.07,14.2L640,845.28c-1.84-17.79.94-35.74-1.83-53.49-.61-3.9-.49-8.23-5.42-9.73Z"/><path class="cls-12" d="M1074.6,690c1.68-.07,3.18.18,3.79,2.07A4,4,0,0,1,1074.6,690Z"/><path class="cls-12" d="M1072.55,688.27l2.18,1.77C1073.56,690,1072.63,689.66,1072.55,688.27Z"/><path class="cls-12" d="M1078.2,691.82l2.15,1.63Z"/><path class="cls-8" d="M653.92,852.33c.9-1,1.65-.65,2.34.26A1.47,1.47,0,0,1,653.92,852.33Z"/><path class="cls-13" d="M467.26,947.25l2,1.57Z"/><path class="cls-4" d="M812,510.27c4.7,5.39,14.07,4.74,16.65,12.88l-2.2.39a398,398,0,0,0-50.27,29c-11.52,7.82-12.84,19.61-9.92,32.17,2.85,12.23,7.67,24.06,6.44,37-2,21.75-10,40.32-27.66,54.11-7,5.48-14.71,6.72-22.52,3.41-7.56-3.2-9.9-10.65-10.76-18.16-.6-5.18-.15-10.47-.17-15.71l15.93,8,.14.07,2.19,1.56c6.58,5.86,12.09,2.52,16.82-2.48,10.89-11.52,12.06-25.24,7.52-39.65-3.84-12.2-6-24.38-4.57-37.26q3-27.44,25.06-43.42A218,218,0,0,1,812,510.27Z"/><path class="cls-5" d="M693.33,423.15c2.45-1.84,4.88-3.68,7.33-5.51,7.2-5.39,15-9.23,23.76-4.46,9.39,5.09,11.07,15.25,10.76,24.07a79,79,0,0,1-10.7,37.6c-9.8,16.75-23.94,25.42-42.87,28s-23.56,9.43-25.61,28.68c-2.4,22.46-.72,44.88-1.51,67.3l-14.78-7.38c0-17.82-.75-35.69.24-53.45,1.62-29,15.58-56.44,53.17-59.42,15.15-1.2,28.11-18.67,26-33.73-.66-4.7-2.44-8.92-7.56-10.58Z"/><path class="cls-7" d="M878.51,371.38c-16.09,4-32.94,4.11-48.76,9.46-9.22-.67-18.44-1.25-26.63-6.33-6.92-4.29-11.81-10.06-12.73-18.28-.83-7.37,2.88-9.93,10-8.07,5.24,1.36,9.73,5.55,15.41,4.45,1.64-1.36.87-2.46.08-3.33-2.24-2.49-4-5.56-1.36-8.15,2.35-2.34,5.09.7,7.49,1.6s4.66,3,7.7,2.46c4,5.51,9.73,9.92,16.07,8.84,11.25-1.93,22.69-4.27,32.83-10.24A59.22,59.22,0,0,0,910,326.7c9.8,3.08,16.85,10.11,24.1,16.83C919,359.62,898.58,365.19,878.51,371.38Z"/><path class="cls-5" d="M727.85,653.36l-15.93-8c2.27-11.44,5.27-22.8,6.55-34.34.78-7.11,5.21-16.11-5.11-20.89a60.75,60.75,0,0,0-20.13-12c6-2.94,11.9-6.41,18.18-8.72,13.1-4.83,19-1.3,23.27,12.23,3.4,10.83.68,21.62-1.38,31.79C730.63,626.73,728.22,639.86,727.85,653.36Z"/><path class="cls-4" d="M693,423.15l18.23,11.15c-9.45.95-14.72,8.17-20.63,14.16-8.43,8.57-17,16.86-28.33,21.46-9.92,4-17.67.34-20.76-9.8-2.34-7.71-2.51-15.67-2.2-23.65L656,445.22c3.66,4.16,7.32,2.81,11.54.59C678,440.33,683.93,430,693,423.15Z"/><path class="cls-4" d="M692.91,578.17a60.75,60.75,0,0,1,20.13,12C692.57,597.88,675,610.83,656,621.27l-18.57-9.22c2.76-6.65,1.47-13.69,2-20.56l14.79,7.38C668.38,594.39,679.89,584.86,692.91,578.17Z"/><path class="cls-13" d="M730.18,655,728,653.43A1.82,1.82,0,0,1,730.18,655Z"/><path class="cls-5" d="M332.14,552.29c-6.2-1.06-12.37-2.39-18.61-3.13-8.22-1-15.25-4-20.42-10.62-6.19-8-3.54-16.91,6.16-21,10.58,16.63,26.53,25.27,45,30.22C340.89,551.1,336.57,551.85,332.14,552.29Z"/><path class="cls-4" d="M325,673.1c-1.88-11.74-3.72-23.49-5.65-35.23-.5-3-1.25-6-1.89-8.94-1-11.46,3.66-22.28,3.79-33.62,0-2.16,1.44-3.18,3.38-3.77,5.72-1.74,11.43-3.55,16.81-5.23,1.54,2,.71,2.74-.31,3.58-4.12,3.39-11.13,3-12.86,9.41-2.86,10.57-6.21,20.88-4.89,32.35C325,645.36,327.57,659.18,325,673.1Z"/><path class="cls-7" d="M337.85,835.92q.22-4.74.46-9.48c7,.4,14.08,1.51,21.07-.35q.31,5.42.65,10.83C353.37,842.57,346.44,842.26,337.85,835.92Z"/><path class="cls-7" d="M285.46,843.07l.3,12.23c-7.67,5.86-14.95,4.27-22-1.15.5-3.29-1.06-7.22,2.92-9.43C273,845.58,279.49,847.06,285.46,843.07Z"/><path class="cls-3" d="M316,630.66l-.63,7.24C313.14,635.27,312.78,632.81,316,630.66Z"/><path class="cls-4" d="M922.79,469.1,917.18,512c-3.64-10.41-1.44-21.16-1.41-31.7,0-10.92,1-21.44-11.43-26.9-1.49-.65-3.84-2.34-2.31-5.45,6.26,2.94,12.56,5.69,18.66,8.85,2.94,1.52,4.82,4,1.85,7.31C920.9,465.92,921.92,467.48,922.79,469.1Z"/><path class="cls-7" d="M945.16,700.41l2-5.12a52,52,0,0,0,20.09-.23l1.92,4.13C961.43,705.24,953.44,705.62,945.16,700.41Z"/><path class="cls-7" d="M909.93,674.9l.18,3.68c-6.94,6.52-14.25,7-22.37,1.4l1.77-3.91C896.41,677.38,903.2,676.62,909.93,674.9Z"/><path class="cls-3" d="M639.71,591.49c-.53,6.87.76,13.91-2,20.56-6.16.85-11.33,3.36-14.71,8.84-3.6-.27-6.43,1.65-9.38,3.27-8,4.42-16,9-24.17,13.17-4,2-8.24,4.61-12.84,1.13l-1.92-2.28-.12.42c.95-6.06,0-12.16,1.44-18.34,3.63-15.82,7.59-31.64,6.32-48.22-1.07-13.89-12.58-24.22-23.72-20-6.58,2.48-12.91,5.85-17.11,12-19,22.79-24.77,47.84-15.17,76.68,4.25,12.74,7.24,27.43-5.88,37.51-16.84,12.94-35.6,23-54.72,32.29,1.7-75.28-4.42-150.68,3.43-225.86,1.43-1.15,3.4-2,4.21-3.49,7.11-13.05,20.59-18,32.25-24.84,40.69-24,81.77-47.3,122.6-71.05a44.12,44.12,0,0,1,10.94-4.49l.48,57.71c-.31,8-.14,15.94,2.2,23.65,3.09,10.14,10.84,13.82,20.75,9.8,11.36-4.6,19.91-12.89,28.34-21.46,5.91-6,11.18-13.21,20.63-14.16,5.12,1.67,6.9,5.89,7.56,10.59,2.11,15.06-10.85,32.53-26,33.73-37.59,3-51.55,30.45-53.17,59.42C639,555.8,639.73,573.67,639.71,591.49Z"/><path class="cls-5" d="M465.73,708.49c19.12-9.29,37.88-19.35,54.72-32.29,13.12-10.08,10.13-24.77,5.88-37.51-9.6-28.84-3.88-53.89,15.17-76.68l14.81,9.35c-18.67,14.73-22.17,26.81-15.06,50.11,8.94,29.28,4.57,55.67-19.77,75.86-10.28,8.53-22.68,14.54-34.28,21.43-7.07,4.2-14.46,7.88-21.7,11.8L419.62,704.8c4.53-5.15,10.63-7.69,16.8-10.12,8.22,2.11,14.56,7.83,22,11.41C460.76,707.21,462.55,710,465.73,708.49Z"/><path class="cls-2" d="M357.94,491.25c-5.66,6.05-1,12.86-1.32,19.3-.16,3.6.76,7.26,1.19,10.9-14.21-1.39-25.35-6.55-32.32-20.46-10.55-21.07-23.91-40.72-31.5-63.31-1.33-4-4.17-7.46-6.32-11.17,3.12-2.37,6.83-1.47,10.3-1.88,5.63,11.06,12.58,20.57,26.61,20.5,7.89,0,10.44-4.2,7.41-11.38-1.41-3.35-3.25-6.52-4.9-9.78l6-.4c11.92,9.82,21.95,20.72,26.87,36.11C363.59,470.9,359,480.78,357.94,491.25Z"/><path class="cls-7" d="M327.09,424c1.65,3.26,3.49,6.43,4.9,9.78,3,7.18.48,11.34-7.41,11.38-14,.07-21-9.44-26.61-20.5.13-4.61.45-9.22.35-13.81-.13-6,3.37-14-8.91-12.6-4.79.55-7.77-5.48-8.62-10.66-.78-4.75-.38-9.54,4.17-12.32s8.71-1.49,12.45,2.24c2.87,2.86,6.47,1.34,9.62.53,17.9-4.63,31.11-14.41,35.56-34.29,5.64,4.1,6.91,9.82,8,15.32,2.75,13.39,3.28,26.91-.2,40.25-2.26,8.65-7.31,13.79-17.3,12.87C323.92,411.3,322.72,414,327.09,424Z"/><path class="cls-14" d="M1109.7,602.39l-2,2Z"/><path class="cls-4" d="M556.31,571.36,541.5,562c4.2-6.14,10.53-9.51,17.11-12,11.14-4.2,22.65,6.13,23.72,20,1.27,16.58-2.69,32.4-6.32,48.22-1.42,6.18-.49,12.28-1.44,18.34-5.73,0-9.18-5.17-14.38-6.37-1.08-7.84,1.4-15.21,3.17-22.64a102.48,102.48,0,0,0,2.93-21.84C566.43,578.44,563.9,573.2,556.31,571.36Z"/><path class="cls-5" d="M560.19,630.23c5.2,1.2,8.65,6.36,14.38,6.37l.12-.42c-.16,1.43.86,1.87,1.92,2.28,4.6,3.48,8.88.87,12.84-1.13,8.18-4.14,16.13-8.75,24.17-13.17,3-1.62,5.78-3.54,9.38-3.27l11.13,7.56,2,2,.14-.44c-.13,1.38-.25,2.76-.38,4.14-8.6,1.7-15.84,6.55-22.79,11.27a157.26,157.26,0,0,1-31.68,16.43c-12.23,4.75-20.53-.93-21.33-14.15C559.74,641.93,560.13,636.07,560.19,630.23Z"/><path class="cls-5" d="M615.57,771.2l17.16,10.86c-14.39,5.35-21.7,19.46-33.93,27.55-3.28,2.18-6.31,4.72-9.89,6.5-14.75,7.3-27.82-.11-28.82-16.59-.31-5.18.07-10.4.14-15.6,5.57,2.37,9.92,7.25,16.3,8v-.2l2,1.84c6.83,5.08,12.28,1.14,17.13-3.16C602.56,784.3,609,777.63,615.57,771.2Z"/><path class="cls-4" d="M641.33,728.76c-4.69,13.24-15.89,19.48-28.09,21.41s-23,5-32.67,12.52c-2.85-3.08-8.68-2.64-9.53-8.07,4.67-9.3,12.15-15.92,20.64-21.56L595.6,731l-.17.16,4-1.59,0,.15c7.26-1.77,15.14-.48,22-4.45l-.12.12c1.61,0,3-.39,3.86-2l-.13.1,3.33-.6C632.61,724.92,636.42,728.08,641.33,728.76Z"/><path class="cls-4" d="M571,754.62c.85,5.43,6.68,5,9.53,8.07-2.26,9.62-8.38,18.7-4,29.22-6.38-.74-10.73-5.62-16.3-8A65.22,65.22,0,0,1,571,754.62Z"/><path class="cls-14" d="M635.9,634.2c.13-1.38.25-2.76.37-4.14a2,2,0,0,1,1.6.52l1.26,1.87c.07,22.85,1.27,45.72-.75,68.54l-.42,2.07c-.25,4.56-.38,9.16-3.7,12.84l-.29-.23C637.43,688.58,635.43,661.36,635.9,634.2Z"/><path class="cls-14" d="M621.36,725.22c-6.81,4-14.69,2.68-22,4.45C606,724.39,613.66,724.78,621.36,725.22Z"/><path class="cls-14" d="M628.3,722.89l-3.33.6c.5-1.73,1.89-2.15,3.44-2.35l.2.25C628.49,721.88,628.39,722.38,628.3,722.89Z"/><path class="cls-14" d="M625.1,723.39c-.82,1.56-2.25,1.93-3.86,2C621.89,723.42,623.39,723.2,625.1,723.39Z"/><path class="cls-14" d="M599.44,729.52l-4,1.59C596.1,728.89,597.59,728.76,599.44,729.52Z"/><path class="cls-14" d="M595.6,731l-3.92,2.11C592.22,730.92,593.75,730.63,595.6,731Z"/><path class="cls-14" d="M632.15,717.55c.61-.62,1.21-1.25,1.82-1.88l.29.23c-.53.71-1,1.43-1.58,2.15Z"/><path class="cls-14" d="M630.29,719.4l1.86-1.85.53.5-2,1.75Z"/><path class="cls-14" d="M628.41,721.14l1.88-1.74.43.4-2.11,1.59Z"/><path class="cls-4" d="M628.61,721.39l2.11-1.59,2-1.75c.53-.72,1.05-1.44,1.58-2.15,3.32-3.68,3.45-8.28,3.7-12.84l.42-2.07c2-22.82.82-45.69.75-68.54.33-1.13-.18-1.7-1.26-1.87a2,2,0,0,0-1.6-.52l-.13.44-2-2L623,620.89c3.38-5.48,8.55-8,14.71-8.84l18.57,9.22c-3.72,15.46-1.26,31.17-1.72,46.76-.49,17.11,1.53,34.41-5.67,50.78-1.75,4-3.22,8-7.55,10-4.92-.68-8.73-3.84-13-5.87C628.39,722.38,628.49,721.88,628.61,721.39Z"/><path class="cls-3" d="M830.34,545.39q0,63,0,125.92l0,1.86q-.2,22.86-.4,45.7c0,3.94.42,8-1.41,11.69-2.89-2.78-1.72-6.38-1.73-9.62q-.07-98.7,0-197.41l2.21-.38C831.27,530.45,828.93,538,830.34,545.39Z"/><path class="cls-8" d="M578.53,793.56l-2-1.84Z"/><path class="cls-8" d="M337.85,835.92c8.59,6.34,15.52,6.65,22.18,1,10.89,12.24,26.31,16.5,40.49,22.94,3.25,1.49,7.76,2.17,7.17,7-.5,4.19-4.18,5.73-7.89,6.77-8.87,2.48-17.95,2.57-26.23-1.1a74.76,74.76,0,0,0-29.24-6.7c-10.78-.26-13-3.72-10.85-14C334.6,846.44,335.06,840.85,337.85,835.92Z"/><path class="cls-8" d="M263.72,854.15c7.09,5.42,14.37,7,22,1.15,5.94,14.13,15.67,25.24,26.73,35.69,8.19,7.74,6,13.08-4.95,15.79-12.93,3.2-29-4.76-34.2-17-1.44-3.4-2.29-7.33-5.37-9.51C257.59,872.89,259.37,863.78,263.72,854.15Z"/><path class="cls-8" d="M887.74,680c8.12,5.58,15.43,5.12,22.37-1.4,5.79,6.73,5.71,15.22,6.39,23.24.41,4.81-4,6.88-8.22,7-13,.36-25.25,3.51-37.39,8.36-7.4,3-15.81,2.21-23.63-.34-3.3-1.08-6.47-2.85-7-6.63-.64-4.46,3.27-5.43,6.28-6.77,8.71-3.88,17.51-7.55,26.19-11.5A39.07,39.07,0,0,0,887.74,680Z"/><path class="cls-8" d="M945.16,700.41c8.28,5.21,16.27,4.83,24-1.22,4.07,10,5.87,19.51-5,26.93-2.82,1.93-3.58,5.62-4.89,8.74-5.22,12.45-20.51,20.64-33.75,18.11-4.28-.82-8.92-1.78-10.7-6.2-1.94-4.83,1.92-8.3,4.94-11C930.9,725.83,941.22,715.45,945.16,700.41Z"/><path class="cls-14" d="M1117,606.55l-1.52,1.72Z"/><path class="cls-8" d="M576.61,638.46c-1.06-.41-2.08-.85-1.92-2.28Z"/><path class="cls-14" d="M634.13,628.45l2,2Z"/><path class="cls-13" d="M638.38,701l-.42,2.07Z"/><path class="cls-13" d="M637.87,630.58c1.08.17,1.59.74,1.26,1.87Z"/><path class="cls-5" d="M1135.08,710c-12,9.14-12,9.2-25.12,1.52-4.49-2.63-8.77-5.64-13.14-8.47.27-14.12.65-28.14,3.66-42.11,1.76-8.17,5.59-11.34,13.49-11.84,6.52-.42,13-2,19.47-3-9.79-4.74-18.77.44-28.55.26a135.27,135.27,0,0,1,26.86-53.13c-8.91,1.83-9.27,9.3-14.34,11.48-2-2.84-6.62-.23-9.15-1.33.15-1,14-16.15,23-17.22,10.66-1.25,17.43,6.58,11.52,15.11-9.94,14.35-5.7,24.28,4.76,35.47,7.44,8,6.29,15.79-2.71,22.14-9.53,6.74-11.33,14.35-7.26,24.65A27.82,27.82,0,0,1,1135.08,710Z"/></svg>