<svg width="113" height="31" viewBox="0 0 113 31" fill="none" xmlns="http://www.w3.org/2000/svg">
<path d="M15.7793 21.8672L19.496 25.5332C20.4741 25.1473 21.3869 24.6327 22.1694 23.9253L22.8867 23.3464C23.0823 23.2178 23.2127 23.0249 23.3431 22.8962L22.365 21.9315H15.7793V21.8672Z" fill="white"/>
<path d="M26.8642 26.3051C26.6033 26.5623 26.4077 26.7553 26.1469 27.0125C25.234 27.8486 24.1907 28.5561 23.1475 29.0706L24.2559 30.164L24.9732 30.8714H31.5589L27.777 27.1412L26.8642 26.3051Z" fill="white"/>
<path d="M15.8448 26.305C12.715 26.305 10.172 25.2759 8.21585 23.2178C6.19449 21.0954 5.1512 18.5228 5.1512 15.4357C5.1512 12.3485 6.19449 9.77593 8.21585 7.65353C10.2372 5.59543 12.7802 4.56639 15.8448 4.56639C18.9095 4.56639 21.4525 5.59543 23.4738 7.65353C25.4952 9.77593 26.5385 12.3485 26.5385 15.4357C26.5385 16.4004 26.4081 17.3008 26.2125 18.1369C25.756 19.9378 24.7779 21.61 23.4086 22.8963L24.2563 23.7324L26.9297 26.3693C28.1686 25.1473 29.2119 23.7967 29.9291 22.2531C30.842 20.4523 31.4289 18.4585 31.4941 16.4647C31.4941 16.1432 31.4941 15.8216 31.4941 15.5C31.4941 11.0622 29.9944 7.39626 26.9297 4.43776C23.9303 1.47925 20.2136 0 15.7144 0C11.2805 0 7.49858 1.47925 4.49915 4.43776C1.49971 7.39626 0 11.0622 0 15.5C0 19.8734 1.49971 23.6037 4.49915 26.5622C7.49858 29.5207 11.2153 31 15.7144 31C16.4317 31 17.1489 30.9357 17.801 30.8714C19.6267 30.6784 21.3873 30.0996 23.0174 29.1992L19.4311 25.6618C18.3226 26.0477 17.1489 26.305 15.8448 26.305Z" fill="white"/>
<path d="M56.9892 13.2438C56.9892 10.8641 56.1416 8.87036 54.5115 7.26248C52.8813 5.65459 50.86 4.88281 48.4474 4.88281C46.0348 4.88281 44.0134 5.65459 42.3833 7.26248C40.7532 8.87036 39.9707 10.8641 39.9707 13.2438C39.9707 15.6235 40.7532 17.6172 42.3833 19.2251C44.0134 20.833 46.0348 21.6048 48.4474 21.6048C50.2079 21.6048 51.7076 21.1546 53.0769 20.3185L53.9246 21.1546H57.4457L54.9679 18.7106C56.3372 17.167 56.9892 15.3662 56.9892 13.2438ZM53.1421 16.7812L52.1641 15.8164H48.643L51.2512 18.389C50.4035 18.8392 49.4907 19.0322 48.5126 19.0322C46.8824 19.0322 45.5131 18.4534 44.4047 17.36C43.2962 16.2023 42.7745 14.8517 42.7745 13.1795C42.7745 11.5073 43.2962 10.0924 44.4047 8.999C45.5131 7.90564 46.8824 7.3268 48.5126 7.3268C50.1427 7.3268 51.512 7.90564 52.6205 8.999C53.729 10.1567 54.2506 11.5073 54.2506 13.1795C54.2506 14.5944 53.8594 15.7521 53.1421 16.7812Z" fill="white"/>
<path d="M68.2041 16.138C68.2041 17.0384 67.878 17.8102 67.2912 18.389C66.6391 18.9679 65.8567 19.2894 64.9438 19.2894C64.0961 19.2894 63.3137 18.9679 62.7268 18.389C62.14 17.7459 61.8139 17.0384 61.8139 16.138V9.32056H59.4014V16.8455C59.4014 18.1961 59.8578 19.2894 60.7707 20.1898C61.6835 21.0903 62.8572 21.5405 64.2265 21.5405C65.9219 21.5405 67.226 20.8973 68.2041 19.5467V21.2832H70.6166V9.32056H68.2041V16.138V16.138Z" fill="white"/>
<path d="M80.0066 8.99901C78.4417 8.99901 77.0724 9.51354 75.9639 10.6069V6.94092H73.5513V21.2832H75.9639V19.9969C77.0724 21.026 78.4417 21.6048 80.0066 21.6048C81.7019 21.6048 83.1364 21.026 84.2449 19.804C85.3534 18.6463 85.9402 17.1027 85.9402 15.3019C85.9402 13.5011 85.3534 12.0218 84.2449 10.7998C83.0712 9.64216 81.7019 8.99901 80.0066 8.99901ZM82.354 18.0675C81.6367 18.7749 80.7238 19.1608 79.6806 19.1608C78.6373 19.1608 77.7896 18.7749 77.0724 18.0675C76.3551 17.2957 76.0291 16.3953 76.0291 15.3019C76.0291 14.2086 76.4203 13.2438 77.0724 12.5364C77.7896 11.7646 78.6373 11.443 79.6806 11.443C80.7238 11.443 81.6367 11.8289 82.354 12.5364C83.0712 13.2438 83.3972 14.2086 83.3972 15.3019C83.4624 16.3953 83.0712 17.36 82.354 18.0675Z" fill="white"/>
<path d="M90.7002 9.32056H88.2876V21.2832H90.7002V9.32056Z" fill="white"/>
<path d="M96.6988 6.94092H94.2862V9.32059H92.4604V11.3787H94.2862V17.553C94.2862 18.582 94.6774 19.4824 95.3947 20.1899C96.1119 20.8973 97.09 21.2189 98.1333 21.2189H99.8938V18.9036H98.3289C97.8725 18.9036 97.4813 18.7106 97.1552 18.3891C96.8292 18.0675 96.6988 17.6816 96.6988 17.1671V11.25H99.8938V9.19196H96.6988V6.94092Z" fill="white"/>
<path d="M110.392 9.32067L106.806 18.0032L103.35 9.32067H100.872L105.632 20.9617L105.11 22.2481C104.85 22.8912 104.524 23.4057 104.067 23.663C103.611 23.9846 103.089 24.1132 102.372 24.1132H101.85V26.4286H102.372C103.611 26.4286 104.589 26.1713 105.371 25.5924C106.154 25.0779 106.806 24.1775 107.262 23.0198L113 9.25635H110.392V9.32067Z" fill="white"/>
<path d="M90.7002 6.94092H88.2876V8.48449H90.7002V6.94092Z" fill="white"/>
</svg>
