<svg id="Слой_1" data-name="Слой 1" xmlns="http://www.w3.org/2000/svg" viewBox="0 0 696.81 624.12"><defs><style>.cls-1{fill:#fff;}</style></defs><title>logo</title><path class="cls-1" d="M462.09,126.23c-.42-.09-.68-.24-.86-.17l-128.9,47.65a14.84,14.84,0,0,0,.21,2.31,174.46,174.46,0,0,1,4.22,24,40.67,40.67,0,0,1,.33,5.17c0,6.05.75,12.08.23,18.14-.29,3.44-.2,6.91-.52,10.35-2.23,24.22-10.1,46.2-26.47,64.6A110.44,110.44,0,0,1,266,328.37a146.1,146.1,0,0,1-27.82,7.45c-1.91.31-3.81.71-5.73,1.08-.23,1.52.73,2.28,1.31,3.13q9.33,13.59,18.71,27.13l66.24,96c.7,1,1.39,2,2,3.08,2.56,4.14,2.24,8.79-2.41,12a9.14,9.14,0,0,1-12.61-1.66c-.47-.57-.88-1.2-1.3-1.81l-86.07-125.6c-3.49-5.09-6.59-10.52-10.57-15.19-4.17-4.89-.72-14.17,6.66-14.71,1.35-.1,2.71-.12,4.07-.13a115.94,115.94,0,0,0,45.31-9.47,89.8,89.8,0,0,0,31.43-22.4,90.78,90.78,0,0,0,20.82-40.8,128.72,128.72,0,0,0,2.6-17.52,130.45,130.45,0,0,0,.35-16.65c-.51-13.34-2.17-26.53-6.73-39.2a75.24,75.24,0,0,0-12.07-22A69.74,69.74,0,0,0,281.14,135a99.27,99.27,0,0,0-29.66-11.18c-5.06-1.11-10.19-1.77-15.33-2.42a196.64,196.64,0,0,0-24-1c-24-.11-47.93,0-71.89,0a37.08,37.08,0,0,1-5.17-.29,6.77,6.77,0,0,1-5.87-4.95,12.35,12.35,0,0,1-.12-7.65,6.9,6.9,0,0,1,5.81-5,27.31,27.31,0,0,1,4.43-.26q38.73,0,77.45,0c3.58,0,7.17,0,10.74.24,17.44,1.14,34.51,4,50.74,10.83a100.29,100.29,0,0,1,27.55,17.15,80.39,80.39,0,0,1,17,21.3c.48.87,1,1.72,1.48,2.57a4.6,4.6,0,0,0,.71.63c1-.34,2.2-.69,3.34-1.11l40.62-15q26.73-9.9,53.45-19.83,24.46-9.06,48.95-18.11c1.39-.51,2.75-1.1,4.09-1.74a13,13,0,0,1,17.3,6.07,51.33,51.33,0,0,1,2.56,6.14q31.77,96,63.47,191.92a39.14,39.14,0,0,1,1.23,4.26c1.07,5.23-1.94,9.55-7.21,10.57-4.36.84-7.54-.28-10.1-4.89a20.45,20.45,0,0,1-1.34-3.44q-21.06-63.42-42.09-126.84-8.28-24.94-16.51-49.91c-.38-1.16-.84-2.29-1.38-3.73a4.88,4.88,0,0,0-1.5,2.53Q468.6,161.83,457.28,192,432.14,259.07,407,326.15q-27.21,72.63-54.45,145.26c-.48,1.27-.91,2.57-1.51,3.78-2.43,4.89-7.26,6.5-12.12,4.05a14.94,14.94,0,0,1-2.48-1.59,7.49,7.49,0,0,1-2.71-8.27,34.84,34.84,0,0,1,1.3-3.85q30-79.9,60-159.8,33.06-88.05,66.12-176.09C461.56,128.55,462.3,127.48,462.09,126.23Z"/><path class="cls-1" d="M97.73,163.17a15,15,0,0,0-.24,1.51c0,1.36,0,2.72,0,4.08q0,149.13,0,298.27c0,1.72,0,3.45-.07,5.18a7.6,7.6,0,0,1-6.29,7.59,12,12,0,0,1-7.55-.85c-2.91-1.32-4-3.92-4.35-6.86a20.3,20.3,0,0,1,0-2.59q0-156.92,0-313.83a12.69,12.69,0,0,1,.89-5.79c1.6-3.25,4.09-5.19,7.83-5.26,1.23,0,2.47,0,3.7,0H203.84a153.68,153.68,0,0,1,19.89,1.58,143.16,143.16,0,0,1,14.5,2.79,69.4,69.4,0,0,1,19.51,7.86c12.56,7.39,20.93,18.21,25.77,31.83a84.59,84.59,0,0,1,4,19.51,123.71,123.71,0,0,1,.37,17.74,83.93,83.93,0,0,1-6.25,29.88c-6.49,15.33-17.62,26-32.81,32.5-10.18,4.38-20.88,6.52-31.88,7.53-10.1.93-20.22.84-30.33.84a21.73,21.73,0,0,1-4.42-.34,9.34,9.34,0,0,1-7.31-10.77,9.12,9.12,0,0,1,7.34-6.91c1.1-.11,2.22-.16,3.33-.17,8.27-.14,16.55-.05,24.81-.43a87.44,87.44,0,0,0,34.29-8.21c11.94-5.74,19.22-15.13,22.45-27.83a87.87,87.87,0,0,0,2.38-15.67,98.46,98.46,0,0,0-.13-15.17c-.68-8-2.41-15.83-6.39-23a41.92,41.92,0,0,0-19.52-18A71.26,71.26,0,0,0,224,164.62,156,156,0,0,0,200,162.85c-32.61.06-65.21,0-97.82,0A14.53,14.53,0,0,0,97.73,163.17Z"/><path class="cls-1" d="M600.05,356.48c-1.46,0-2.92-.08-4.38-.08h-113c-1.48,0-3,0-4.44,0-5.38-.12-9.07-3.7-9.18-9.07a13.48,13.48,0,0,1,.75-4.35,6.29,6.29,0,0,1,4.84-4.16,26,26,0,0,1,5.48-.65c12.1,0,24.21,0,36.31,0h87.07c1.11,0,2.23-.06,3.34,0,4.3.33,7.47,2.21,9,6.49,1.31,3.73,2.76,7.4,4.12,11.1Q640,410.27,660.1,464.81c.72,2,1.34,4,1.86,6a6.79,6.79,0,0,1-2.51,7.26,9.61,9.61,0,0,1-15.55-3.92c-2.57-6.55-4.92-13.18-7.37-19.78-.51-1.38-1-2.75-1.62-4.26-2.25-.52-4.46-.21-6.65-.26s-4.69,0-7,0h-6.66l-6.81.05a19.61,19.61,0,0,0-.32,2.3c0,2.71,0,5.43,0,8.15,0,25.07.05,50.14,0,75.21,0,8.65,3.21,15.87,9,22.05,6.28,6.74,14.25,10.43,23.17,12.26.73.14,1.47.22,2.19.36,4.62.93,6.76,4.64,5.23,9.08-1.64,4.76-4.36,6.41-9.3,5.63a61.33,61.33,0,0,1-30.15-13.18c-9.14-7.55-15.47-16.91-17.43-28.81a60.07,60.07,0,0,1-.8-9.56q-.09-39.64,0-79.29a29.82,29.82,0,0,0-1.76-10.48c-4.13-11.37-8-22.83-12-34.25-.32-.93-.66-1.86-1-2.79a3.26,3.26,0,0,0-3.36-2.37c-1,0-2,0-3,0H466.3c-1.24,0-2.47,0-3.71,0a8.34,8.34,0,0,1-8.15-7.19,13.11,13.11,0,0,1-.15-2.58c.15-5.3,2.76-7.58,7.68-8.25a18.61,18.61,0,0,1,2.59-.05H577.93c5-.24,8.88,2.46,10.41,7.64,1.32,4.49,2.9,8.91,4.35,13.37q4,12.31,8,24.64c.3.94.66,1.85,1,2.87,3,.66,5.9.26,8.83.33,3.09.06,6.18,0,9.26,0h8.76a3.42,3.42,0,0,0,.2-.61,1.6,1.6,0,0,0,0-.72q-14-37.84-28-75.69A15.19,15.19,0,0,0,600.05,356.48Z"/><path class="cls-1" d="M404.06,451.64a11.88,11.88,0,0,1-8.2-5.17,6.55,6.55,0,0,1-.81-5.34c.42-1.55.91-3.07,1.43-4.59Q414,385.24,431.6,334q19.65-57.42,39.27-114.85a16,16,0,0,1,2.65-5.25c2.87-3.48,7.09-4.36,11.34-2.34a9,9,0,0,1,4.89,9.82,22.66,22.66,0,0,1-.88,3.2q-33.8,98.14-67.62,196.29c-2.65,7.7-5.32,15.39-7.95,23.09a12.39,12.39,0,0,1-3.45,5.6A8.73,8.73,0,0,1,404.06,451.64Z"/><path class="cls-1" d="M138.25,530.66h35c1-.95.78-2,.66-2.91a23,23,0,0,0-3.19-9,30.42,30.42,0,0,0-10.06-10.18,52,52,0,0,0-22.54-7.67,49.48,49.48,0,0,0-18.63,1.62,38.07,38.07,0,0,0-16.69,9.23c-5.77,5.52-9.64,12.08-10.61,20.2-1.44,11.94,2.94,21.51,11.8,29.17a41.28,41.28,0,0,0,22.14,9.51,6.45,6.45,0,0,1,5.71,4.51c1.85,5,.75,7.43-2.61,10.15a3.59,3.59,0,0,1-2.37.75c-12.39-1.32-23.76-5.29-33.74-12.95A48.52,48.52,0,0,1,81,559.75c-9.54-15.83-9.61-31.77,0-47.54,5.77-9.44,14.16-16,24.12-20.64A63.72,63.72,0,0,1,125,486c18.19-2,34.53,2.37,48.78,13.85a48.8,48.8,0,0,1,16.61,24.41c1.34,4.47,1.42,9,1.41,13.54a4.75,4.75,0,0,1-.75,2.42,27.92,27.92,0,0,1-2.76,3.46,5.48,5.48,0,0,1-4.64,1.88c-.61-.05-1.23,0-1.85,0H142.19c-.86,0-1.73,0-2.59,0a3,3,0,0,1-1.44-.22c-2.42-1.61-4.38-3.62-5-6.6a3.38,3.38,0,0,1,.75-2.78C135.31,534.25,136.71,532.55,138.25,530.66Z"/><path class="cls-1" d="M418.29,530.72c.68-3.55-.32-6.37-1.51-9.07A27,27,0,0,0,409,511.41c-7.72-6.23-16.56-9.46-26.41-10.5a47.86,47.86,0,0,0-21.1,2.44c-9.85,3.43-17.39,9.64-22,19.13a29.86,29.86,0,0,0-3.11,13.58,31.56,31.56,0,0,0,4.2,15.54,35.75,35.75,0,0,0,15.8,14.6c4.21,2,8.47,4,13.22,4.58a14.91,14.91,0,0,1,2.51.64,5.73,5.73,0,0,1,4,7.25,9.06,9.06,0,0,1-1.56,2.9c-.75,1-1.78,1.71-2.58,2.65a4.17,4.17,0,0,1-4,1.34c-1.83-.24-3.67-.52-5.46-.94a61.16,61.16,0,0,1-28.6-14.82c-8.56-8-14-17.85-15.15-29.66a43.57,43.57,0,0,1,9.13-31.23c7.14-9.42,16.56-15.76,27.65-19.67a65.72,65.72,0,0,1,22.12-3.69,64.31,64.31,0,0,1,33.47,9.14,54.11,54.11,0,0,1,19.46,19.38,40.07,40.07,0,0,1,5.8,17.77c.1,1.47.33,2.93.43,4.41a9.35,9.35,0,0,1-1.5,5.27,6.26,6.26,0,0,1-4.74,3.21,68.9,68.9,0,0,1-8.08.82c-10.87.1-21.73.05-32.6,0a14.94,14.94,0,0,1-2.22-.09c-3.27-.51-7-4.73-6.6-7.9a7.64,7.64,0,0,1,3.91-6,9.15,9.15,0,0,1,4.65-.93c8.27,0,16.54,0,24.82,0Z"/><path class="cls-1" d="M134.28,279.15c3.76-.18,6.34,1.6,8.51,4.12A29,29,0,0,1,144.7,286L247.28,438.28c.48.71.92,1.46,1.44,2.15,3.57,4.69-.23,12.52-5.37,13.71a8.5,8.5,0,0,1-9.2-3.2c-1.83-2.48-3.5-5.07-5.24-7.63q-50.35-74.08-100.69-148.18A27,27,0,0,1,125.8,291a7.13,7.13,0,0,1,1.87-8.74C129.6,280.53,131.58,278.72,134.28,279.15Z"/><path class="cls-1" d="M528.29,141a6.94,6.94,0,0,1,4-6.91,10.34,10.34,0,0,1,6-1.46c3.17.32,5.66,1.68,7.11,4.6a22.85,22.85,0,0,1,1.23,3.09q27.08,81.51,54.11,163a21.9,21.9,0,0,1,1,4.3,8.43,8.43,0,0,1-5.93,9.49c-4.7,1.59-8.8.23-11.21-3.83a18.36,18.36,0,0,1-1.59-3.73q-15.23-46.24-30.41-92.5-11.56-35.17-23.11-70.35C529,144.85,528.15,143,528.29,141Z"/><path class="cls-1" d="M572.92,554.55V572.7c0,1,0,2-.06,3a6.24,6.24,0,0,1-2.07,4.59c-.84.72-1.6,1.55-2.42,2.29a6.21,6.21,0,0,1-7.78.84c-2.51-1.5-4.33-3.35-4.94-6.52a38,38,0,0,1-.82-7.28c0-11.11,0-22.22,0-33.34A32.19,32.19,0,0,0,547,514.81a40.68,40.68,0,0,0-16.91-11.62,47.13,47.13,0,0,0-28-1.69c-.6.14-1.2.27-1.8.42a7.34,7.34,0,0,1-8.84-4.13,6.57,6.57,0,0,1,1.93-8.54,14.82,14.82,0,0,1,6.67-3,79.44,79.44,0,0,1,14.36-1.09,61.24,61.24,0,0,1,14.65,1.7c12.3,3,23,8.89,31.55,18.28a45.47,45.47,0,0,1,11.75,23.51,49,49,0,0,1,.55,7.37C573,542.2,572.92,548.37,572.92,554.55Z"/><path class="cls-1" d="M266,550.91c2-3.53,3.75-6.52,5.46-9.52,1.46-2.57,3-5.12,4.33-7.75a11,11,0,0,1,5.05-4.64,12.94,12.94,0,0,1,7.88-1.33c2.57.29,4.24,2,5.45,4a5.06,5.06,0,0,1,0,4.32,32.19,32.19,0,0,1-2.24,4.66Q282,557.61,272,574.49c-.75,1.28-1.45,2.6-2.27,3.82-2.3,3.41-5.07,2.77-7.62,0a7.57,7.57,0,0,1-.94-1.59q-22.33-38.41-44.68-76.82c-1.9-3.27-2.31-6.43-.38-9.75a3.29,3.29,0,0,1,1.18-1.38c2.59-1.18,5.25-2.17,8.14-1.14a13.15,13.15,0,0,1,6.69,5.62c2.38,3.75,4.71,7.53,6.94,11.37q12.43,21.46,24.79,43C264.42,548.58,265.05,549.46,266,550.91Z"/><path class="cls-1" d="M145.72,423.5V468c0,1.23,0,2.47,0,3.7-.17,6-4.68,9.51-10.51,8.23-5-1.11-7.58-4.23-7.61-9.45,0-8.4,0-16.8,0-25.2V378.91c0-1,0-2,0-3a9.32,9.32,0,0,1,10.87-8.83,16.17,16.17,0,0,1,2.16.52,6.86,6.86,0,0,1,5,6.2,34.65,34.65,0,0,1,.07,4.08Z"/><path class="cls-1" d="M473.46,534.9v39.61c0,1.36,0,2.71,0,4.07-.14,4.15-1.68,6-5.59,7.18a10.61,10.61,0,0,1-7.57-.56,7.43,7.43,0,0,1-4.88-7.19V492.5c.06-4.2,1.8-6.63,5.77-8a11.39,11.39,0,0,1,8,.14,6,6,0,0,1,4.28,5.86c0,1.35,0,2.71,0,4.07Z"/><path class="cls-1" d="M523.14,38.24a16.12,16.12,0,1,1-16.37-16A16.08,16.08,0,0,1,523.14,38.24Z"/></svg>